<svg viewBox="0 0 330 200" xmlns="http://www.w3.org/2000/svg"><g><g><g><g><g><line x1="41.218000411987305" y1="152.58400006819423" x2="36.218000411987305" y2="152.58400006819423" style="visibility: inherit;" fill="rgb(0, 0, 0)" stroke="rgb(204, 204, 204)" stroke-width="1px" class="style-scope vz-line-chart2"></line><line x1="41.218000411987305" y1="109.10136682262912" x2="36.218000411987305" y2="109.10136682262912" style="visibility: inherit;" fill="rgb(0, 0, 0)" stroke="rgb(204, 204, 204)" stroke-width="1px" class="style-scope vz-line-chart2"></line><line x1="41.218000411987305" y1="78.24994755720655" x2="36.218000411987305" y2="78.24994755720655" style="visibility: inherit;" fill="rgb(0, 0, 0)" stroke="rgb(204, 204, 204)" stroke-width="1px" class="style-scope vz-line-chart2"></line><line x1="41.218000411987305" y1="54.319727647087134" x2="36.218000411987305" y2="54.319727647087134" style="visibility: inherit;" fill="rgb(0, 0, 0)" stroke="rgb(204, 204, 204)" stroke-width="1px" class="style-scope vz-line-chart2"></line><line x1="41.218000411987305" y1="34.76731431164146" x2="36.218000411987305" y2="34.76731431164146" style="visibility: inherit;" fill="rgb(0, 0, 0)" stroke="rgb(204, 204, 204)" stroke-width="1px" class="style-scope vz-line-chart2"></line><line x1="41.218000411987305" y1="18.235984385972245" x2="36.218000411987305" y2="18.235984385972245" style="visibility: inherit;" fill="rgb(0, 0, 0)" stroke="rgb(204, 204, 204)" stroke-width="1px" class="style-scope vz-line-chart2"></line><line x1="41.218000411987305" y1="3.9158950462188784" x2="36.218000411987305" y2="3.9158950462188784" style="visibility: inherit;" fill="rgb(0, 0, 0)" stroke="rgb(204, 204, 204)" stroke-width="1px" class="style-scope vz-line-chart2"></line></g><g transform="translate(31.218000411987305, 0)"><text style="text-anchor: end; visibility: inherit; font-family: &quot;Helvetica Neue&quot;, sans-serif; font-size: 12px; font-weight: 200;" x="0" y="152.58400006819423" dx="0em" dy="0.3em" fill="rgb(50, 49, 63)" stroke="none" stroke-width="1px" class="style-scope vz-line-chart2">0.2</text><text style="text-anchor: end; visibility: hidden; font-family: &quot;Helvetica Neue&quot;, sans-serif; font-size: 12px; font-weight: 200;" x="0" y="109.10136682262912" dx="0em" dy="0.3em" fill="rgb(50, 49, 63)" stroke="none" stroke-width="1px" class="style-scope vz-line-chart2">0.3</text><text style="text-anchor: end; visibility: inherit; font-family: &quot;Helvetica Neue&quot;, sans-serif; font-size: 12px; font-weight: 200;" x="0" y="78.24994755720655" dx="0em" dy="0.3em" fill="rgb(50, 49, 63)" stroke="none" stroke-width="1px" class="style-scope vz-line-chart2">0.4</text><text style="text-anchor: end; visibility: hidden; font-family: &quot;Helvetica Neue&quot;, sans-serif; font-size: 12px; font-weight: 200;" x="0" y="54.319727647087134" dx="0em" dy="0.3em" fill="rgb(50, 49, 63)" stroke="none" stroke-width="1px" class="style-scope vz-line-chart2">0.5</text><text style="text-anchor: end; visibility: inherit; font-family: &quot;Helvetica Neue&quot;, sans-serif; font-size: 12px; font-weight: 200;" x="0" y="34.76731431164146" dx="0em" dy="0.3em" fill="rgb(50, 49, 63)" stroke="none" stroke-width="1px" class="style-scope vz-line-chart2">0.6</text><text style="text-anchor: end; visibility: hidden; font-family: &quot;Helvetica Neue&quot;, sans-serif; font-size: 12px; font-weight: 200;" x="0" y="18.235984385972245" dx="0em" dy="0.3em" fill="rgb(50, 49, 63)" stroke="none" stroke-width="1px" class="style-scope vz-line-chart2">0.7</text><text style="text-anchor: end; visibility: hidden; font-family: &quot;Helvetica Neue&quot;, sans-serif; font-size: 12px; font-weight: 200;" x="0" y="3.9158950462188784" dx="0em" dy="0.3em" fill="rgb(50, 49, 63)" stroke="none" stroke-width="1px" class="style-scope vz-line-chart2">0.8</text></g><line x1="41.218000411987305" y1="0" x2="41.218000411987305" y2="177.98199939727783" fill="rgb(0, 0, 0)" stroke="rgb(204, 204, 204)" stroke-width="1px"></line></g></g><g transform="translate(41, 0)" clip-path="url(#clip_0)"><clipPath id="clip_0"><rect width="288" height="177"></rect></clipPath><g><g><g><line x1="0" y1="0" x2="0" y2="177.98199939727783" fill="rgb(0, 0, 0)" stroke="rgb(60, 60, 60)" stroke-width="1px" opacity="0.25" class="style-scope vz-line-chart2"></line><line x1="32.08688884311252" y1="0" x2="32.08688884311252" y2="177.98199939727783" fill="rgb(0, 0, 0)" stroke="rgb(60, 60, 60)" stroke-width="1px" opacity="0.25" class="style-scope vz-line-chart2"></line><line x1="64.17377768622504" y1="0" x2="64.17377768622504" y2="177.98199939727783" fill="rgb(0, 0, 0)" stroke="rgb(60, 60, 60)" stroke-width="1px" opacity="0.25" class="style-scope vz-line-chart2"></line><line x1="96.26066652933756" y1="0" x2="96.26066652933756" y2="177.98199939727783" fill="rgb(0, 0, 0)" stroke="rgb(60, 60, 60)" stroke-width="1px" opacity="0.25" class="style-scope vz-line-chart2"></line><line x1="128.34755537245007" y1="0" x2="128.34755537245007" y2="177.98199939727783" fill="rgb(0, 0, 0)" stroke="rgb(60, 60, 60)" stroke-width="1px" opacity="0.25" class="style-scope vz-line-chart2"></line><line x1="160.43444421556262" y1="0" x2="160.43444421556262" y2="177.98199939727783" fill="rgb(0, 0, 0)" stroke="rgb(60, 60, 60)" stroke-width="1px" opacity="0.25" class="style-scope vz-line-chart2"></line><line x1="192.5213330586751" y1="0" x2="192.5213330586751" y2="177.98199939727783" fill="rgb(0, 0, 0)" stroke="rgb(60, 60, 60)" stroke-width="1px" opacity="0.25" class="style-scope vz-line-chart2"></line><line x1="224.60822190178766" y1="0" x2="224.60822190178766" y2="177.98199939727783" fill="rgb(0, 0, 0)" stroke="rgb(60, 60, 60)" stroke-width="1px" opacity="0.25" class="style-scope vz-line-chart2"></line><line x1="256.69511074490015" y1="0" x2="256.69511074490015" y2="177.98199939727783" fill="rgb(0, 0, 0)" stroke="rgb(60, 60, 60)" stroke-width="1px" opacity="0.25" class="style-scope vz-line-chart2"></line><line x1="288.7819995880127" y1="0" x2="288.7819995880127" y2="177.98199939727783" fill="rgb(0, 0, 0)" stroke="rgb(60, 60, 60)" stroke-width="1px" opacity="0.25" class="style-scope vz-line-chart2"></line></g><g><line x1="0" y1="152.58400006819423" x2="288.7819995880127" y2="152.58400006819423" fill="rgb(0, 0, 0)" stroke="rgb(60, 60, 60)" stroke-width="1px" opacity="0.25" class="style-scope vz-line-chart2"></line><line x1="0" y1="109.10136682262912" x2="288.7819995880127" y2="109.10136682262912" fill="rgb(0, 0, 0)" stroke="rgb(60, 60, 60)" stroke-width="1px" opacity="0.25" class="style-scope vz-line-chart2"></line><line x1="0" y1="78.24994755720655" x2="288.7819995880127" y2="78.24994755720655" fill="rgb(0, 0, 0)" stroke="rgb(60, 60, 60)" stroke-width="1px" opacity="0.25" class="style-scope vz-line-chart2"></line><line x1="0" y1="54.319727647087134" x2="288.7819995880127" y2="54.319727647087134" fill="rgb(0, 0, 0)" stroke="rgb(60, 60, 60)" stroke-width="1px" opacity="0.25" class="style-scope vz-line-chart2"></line><line x1="0" y1="34.76731431164146" x2="288.7819995880127" y2="34.76731431164146" fill="rgb(0, 0, 0)" stroke="rgb(60, 60, 60)" stroke-width="1px" opacity="0.25" class="style-scope vz-line-chart2"></line><line x1="0" y1="18.235984385972245" x2="288.7819995880127" y2="18.235984385972245" fill="rgb(0, 0, 0)" stroke="rgb(60, 60, 60)" stroke-width="1px" opacity="0.25" class="style-scope vz-line-chart2"></line><line x1="0" y1="3.9158950462188784" x2="288.7819995880127" y2="3.9158950462188784" fill="rgb(0, 0, 0)" stroke="rgb(60, 60, 60)" stroke-width="1px" opacity="0.25" class="style-scope vz-line-chart2"></line></g></g></g><g><g><line x1="32.08688884311252" y1="0" x2="32.08688884311252" y2="177.98199939727783" fill="rgb(0, 0, 0)" stroke="rgb(153, 153, 153)" stroke-width="1.5px"></line></g></g><g><g><g><g><g class="style-scope vz-line-chart2"><path style="fill: none;" stroke="rgb(255, 112, 67)" stroke-width="2px" d="M36.36407112589942,-0.8985360758187539L36.37690588143667,1.07948343758369L36.5309229478836,2.8288623612086212L36.553383770073786,4.97331966952126L36.69456608098348,6.834311448154267L37.066773991563586,7.89159528038428L37.512781746482844,8.829696963451568L37.650755368508236,10.70383488193906L37.66038143516117,11.94537773564258L38.00371114578247,13.157308404730628L38.10959787896474,14.141327628111071L38.23794543433719,16.009681601467662L38.619779411570235,17.24091761235536L38.81230074462891,18.582057832099963L39.14279569971296,20.66473547673806L39.344943099424576,21.81660691410056L39.48933409921858,20.022445194883403L39.7524465877321,20.768380628140534L39.903254965294735,22.351731549146706L39.95780267632802,23.027926730447774L39.96422005409665,23.688432947546033L40.06048072062598,24.565901980338907L40.06368940951029,25.504421833649303L40.10219367612203,26.177777884820273L40.11823712054359,27.323303505699783L40.211289098188615,27.43155775228999L40.70221849748824,27.853923742557072L40.87869638612535,29.053340284665865L41.60706876286401,29.996735802157048L41.834885673650106,29.997460968555515L42.22955440642039,31.76052897126408L42.450953939437866,32.80103798731295L42.502292961586846,33.938351177905446L42.50550165047116,35.45202500706381L42.69160560576121,36.91724392351372L43.253126160515684,37.021759794750125L43.695925226550635,34.96970954965991L43.70234260431925,35.94556066040775L43.86277704853482,35.748128301169686L44.09059395932091,35.95073539218464L44.32482824787564,35.64963504225642L44.34728907006581,37.519678315288644L44.690618780687124,37.7025772024339L44.780462069447836,38.33672083839673L45.03715718019273,36.72899191848208L45.236095891020035,37.8009356912369L45.550547401682536,37.65450869168134L45.66606020151774,39.08471388725465L45.9387987566842,40.32597182583291L46.205119934082035,41.37898872764512L46.500319311438666,42.12729988480271L46.55486702247196,42.48103394489178L47.052213799540205,42.95449712592864L47.065048555077446,44.76269903048711L47.090718066151936,46.309392626594075L47.450091221194796,48.01937483841036L47.495012865575156,49.47294808760495L47.79021224293179,50.821349018396376L48.03728128702375,50.92241423815902L48.470454286405776,52.46541049654766L48.560297575166494,53.37061470390945L49.23733092975617,54.37610099381661L49.28225257413652,55.64962492732708L49.47798259607951,55.90270330366657L49.89190346215566,57.5225482474693L50.30903301711613,58.6631499156684L50.45021532802581,58.6015294642162L50.722953883192275,59.38083726568594L50.9026404607137,58.27419941300069L50.92510128290388,59.877546539128076L51.04061408273909,60.24946538378383L51.306935260136925,59.48853791149938L51.980759925842285,59.823359261969L52.04172501464419,61.41356322324074L52.26633323654599,60.979530353719994L52.545489169481066,61.92814020893951L53.18080956857469,62.91453742130396L53.27386154621972,63.53947093766455L53.5818956791136,64.06412715920169L53.62039994572533,64.68032754265067L54.079242456181845,65.73735812830176L54.438615611224705,66.19166677056481L54.91350156610277,66.325189877482L55.04505781035953,67.46161033618769L55.773430187098185,67.79015236957818L56.023707920074465,68.70651171032948L56.0333339867274,69.23657235000287L56.081464319992065,69.11644247651874L56.18735105317434,69.53836142638596L57.076157874128555,70.29681731218403L57.108244762971665,70.96155152897572L57.22054887392256,72.27300526543982L57.72752171764374,72.39555821439085L57.968173383967084,72.15559851358735L58.333963916778565,73.30261305516734L58.46552016103533,72.29724523912967L58.92115398260753,73.75137571863274L58.937197427029076,75.29270506164201L58.96607562698788,76.349337267895L59.354326981989544,77.49910547127382L59.386413870832655,78.30040171535211L59.6848219370736,78.87615478733387L60.573628758027816,80.25672870750988L60.66668073567285,80.81894318012111L60.734063202243384,81.06500145883867L60.75652402443355,81.07801414972539L60.94262797972361,80.63808733270403L61.799347911834715,81.5266535759954L62.46675519977146,82.64020266865813L62.742702443822225,82.98633882513963L62.78441539931827,84.0574578194238L63.146997243245444,84.90072972012486L63.204753643163045,86.41059502320797L63.67001353138818,87.54798821671315L63.87536961998409,87.35197804988081L64.44330755250719,87.25181396456715L65.05937581829495,88.28514474584122L65.08183664048512,89.09246091234085L65.45404455106524,89.72488108174784L65.71073966181014,90.43718735292423L65.84871328383551,88.38208777167704L66.12145183900198,88.97543971916647L66.2722602165646,88.66671965308198L66.45515548297034,89.44331858440957L66.60275517164867,88.35797503921539L66.60596386053298,88.27669036496754L66.67655501598782,89.42202221244402L66.9011632378896,90.3786322339693L67.06801505987379,90.66002920969133L67.07764112652673,90.75239829271229L67.19957130413056,91.3182830075092L67.2733711484697,92.04097483669554L67.2990406595442,91.94723740043898L67.44664034822252,91.41190643123062L67.70975283673604,91.89005612170335L67.77071792553797,92.19526108568782L68.01778696962992,91.82952837078923L68.72690721306272,92.65677716210315L68.89696772393121,91.78792398657563L68.96114150161743,92.85359404972745L69.06061085703108,93.50315663482563L69.08948905698989,93.83164702452727L69.19858447905646,94.3847825805755L69.46169696756998,94.1670103610126L69.5804184562895,94.72549963037976L69.81786143372854,93.68370503254258L70.4916860994339,93.0826581814658L70.50772954385545,93.71759421787404L70.62324234369066,93.68284638490832L71.0339545208825,94.25799411358977L71.1173804318746,94.08314406763414L71.5216752312978,94.93871843452932L72.7441856962204,95.09686788794143L73.40517560638853,95.57497714314525L73.6041143172158,95.79860221128557L73.85439205019209,96.04334600815051L73.90893976122538,96.43999059438677L73.99557436110177,97.09203212589088L74.06295682767232,97.07098035696136L74.10146109428406,97.80270246837539L74.14959142754871,98.11248276454415L75.08973727065192,98.09544271642245L75.41702353685166,98.6812914423126L75.55178846999274,96.23714206961597L75.71543160309263,96.10863476602368L75.78923144743177,95.4255163756003L75.97854409160614,96.09972573780551L76.3988823354509,96.51351526542797L76.63632531288994,97.40441651836781L77.26522833421495,97.23933450918047L77.71765346690283,98.61302811767136L77.95188775545756,98.5425923481768L78.03531366644964,99.20860105966334L78.09307006636726,98.15680060041628L78.28238271054161,97.02927473993644L78.44281715475718,98.07027056161918L79.03642459835476,98.20998220981332L79.05567673166063,99.47069806578477L79.15193739818997,100.0674536899415L79.18081559814877,100.33047131418975L79.21290248699188,101.20751110939268L79.50810186434852,100.36360208819332L79.53698006430733,100.36948782230247L79.60436253087785,100.44658220573224L79.80971861947377,100.77214619837231L79.87068370827568,101.47857240048138L80.50600410736932,101.13265258490179L80.79478610695733,101.15087575275301L81.0707333510081,100.97883319156469L81.25683730629815,101.43732526299915L81.73493195006053,101.35935154843037L81.74134932782916,102.8058568636096L81.84402737212712,104.0146127107755L81.94349672754075,103.81966847249988L82.59165188217162,104.1096190497234L82.6686604153951,104.85962573556205L83.40345016990238,104.94146576231545L83.73073643610212,105.1183282706239L83.79811890267266,105.89509505072122L84.22487452428607,106.36488612817013L84.45590012395648,106.32483862986577L84.52649127941132,106.12052422717012L84.72863867912292,105.29890381767618L85.04629887866973,104.29774487413796L85.6623671444575,105.3450347768467L86.02174029950037,106.33085674991304L86.1757573659473,107.12654714202056L86.31052229908838,106.88565630240498L86.84637334276836,106.94585024515557L86.945842698182,107.10584477150852L87.4014765197542,105.82745256016074L87.5715370306227,106.41986448150375L87.65175425273048,106.9383150798418L87.72234540818533,107.85753304302187L88.05925774103801,108.65580017483688L88.37691794058482,107.23930699085007L88.42183958496518,107.91210470553165L88.5148915626102,107.15441082567044L88.54056107368469,108.1945611680062L88.63361305132972,108.37470007275162L88.95127325087653,108.52260809128046L89.69248038315244,109.32727744099958L89.90104516063266,109.79642434195797L90.0518535381953,111.24451132422884L90.69038262617323,109.88038232753918L90.86365182592604,110.60121451381988L91.29040744753944,110.81842769647605L91.29361613642374,111.34998256401717L91.74283258022733,111.58498068442081L92.55463086795807,111.7169431124457L92.91721271188524,112.63341906056135L93.42418555560643,111.1418884391048L93.59424606647491,111.67781372276615L93.92153233267466,111.2890716343823L94.75579144259558,111.32551304966721L95.10553853098551,107.32671390522083L95.15046017536586,105.95937219890523L95.39752921945784,106.01094914211772L95.76652844115362,106.57116398731637L96.06172781851028,107.49293900775464L96.24462308491601,107.75001275345456L96.37297064028846,108.15043355436015L96.43072704020607,109.4736374197989L96.45960524016486,110.38790591056781L96.7034655953725,110.67932066279877L97.04358661710951,110.24448369998937L97.05321268376244,110.94559975552778L97.06925612818401,111.17501254688712L97.2970730389701,111.97591678094561L97.48959437202878,111.36443507578488L97.67248963843451,111.60810322015867L97.81688063822851,111.42867669991885L97.99014983798133,112.08773428526305L97.99335852686563,112.52747113741431L98.06394968232048,111.93329867830829L98.11528870446946,111.92897122388176L98.53883563719855,112.42452190372188L98.76023517021603,111.94496050399151L98.76986123686896,112.29053448884636L98.92708699220022,113.23646249689463L99.00409552542368,113.61683806156866L99.72605052439371,114.04507532841832L99.93140661298963,111.78564117797725L100.13997139046987,110.64255235793858L100.21377123480903,109.6403166801271L100.48330110109117,109.42693615849396L100.49292716774411,110.13498828242987L100.50897061216565,110.59652401212682L100.72395276741452,110.77612539866661L100.78170916733212,109.07943860991224L101.1474997001436,108.435422398278L101.65447254386478,109.13818465161927L102.02026307667627,110.04737343258185L102.10368898766835,109.94497621925449L102.1710714542389,111.23668470302503L102.19032358754475,111.21548312419277L102.69729643126594,112.24039416582167L103.46417307461631,112.80798746871226L103.61498145217895,109.747393926838L103.73691162978278,110.74558530670814L103.82675491854349,110.7234386084344L104.19254545135499,111.20966875896718L104.42357105102539,112.4262127793455L105.13269129445818,113.33553787071642L105.37334296078151,112.7749181603855L105.66212496036952,112.96511862955627L106.32953224830628,112.94957135453791L106.36161913714938,113.06392134989741L106.47071455921598,113.73183318248914L106.50280144805909,113.93335691951984L106.58622735905118,114.8791620166781L106.73061835884519,115.70990200285917L106.80441820318433,116.58694528331986L107.04506986950769,117.25670140303654L107.25684333587223,115.42286217882142L107.61942517979939,116.0556285415928L108.03655473475986,116.5804435306008L108.07185031248727,116.43008783699824L108.1360240901735,117.20115577936639L108.89648335575527,113.79086941042964L109.34890848844317,113.81340611069722L109.4740473549313,114.38112136538854L109.56709933257632,114.76703555916754L109.8462552655114,114.39740489301138L110.00027233195834,114.08427785575597L110.00668970972697,114.03543089503623L110.1286198873308,114.07791401606308L110.20241973166996,106.73295343225622L110.88266177514394,107.31995607698993L111.08801786373986,108.67563050458138L111.40246937440236,108.73410451018786L111.42813888547686,109.25997992348256L111.98645075134702,109.18370949629747L112.09233748452928,107.94442244952842L112.32978046196831,108.47525491003853L112.45491932845646,109.0278487943482L112.73086657250721,109.99537194042506L113.04531808316973,111.10436865437686L113.11590923862457,111.98863532289778L113.36939566048517,112.87165515051949L113.55870830465952,113.69095701962003L113.92449883747102,114.1590624271555L113.97262917073567,115.09089950254813L114.22611559259626,115.3371568702449L114.50527152553134,115.19503697208009L114.90956632495455,114.79104663918308L115.02187043590546,114.72346501560807L115.25931341334449,115.4554020963362L115.72457330156962,114.91168812345333L115.8047905236774,113.77273644426782L116.01014661227332,114.1599412734156L116.05506825665368,115.03874391638041L116.44973698942397,115.47209206943478L116.48503256715138,114.89578138040667L116.80590145558251,116.14109542843909L117.02088361083136,116.43754702372036L118.07012487600116,117.53064297982402L118.07333356488546,118.37804171463065L118.16638554253048,118.85601276678142L118.17280292029912,119.63865284652451L118.49046311984593,118.44007469839124L119.17712254108852,119.1788760221666L119.19637467439439,119.0146616317146L119.21562680770026,120.07132872370323L119.2284615632375,119.8445759937067L119.23167025212182,120.59714308548102L119.60066947381762,120.25478715590594L120.3418766060935,120.70044055113127L120.65632811675601,121.25295945063785L120.68841500559913,121.49918288131639L120.7108758277893,122.39892072220835L120.76863222770692,123.390268677834L121.09270980502234,122.12442535365003L121.36865704907311,121.09657430724442L121.66064773754543,121.79982542010121L121.76974315961202,122.41122323301526L121.82749955952963,122.20769243883527L122.73555851378971,119.23618695879325L122.96016673569149,119.19114296650264L123.33558333515592,119.39398521048545L123.37729629065197,119.80926710105818L123.6724956680086,120.49781388682763L123.76554764565363,120.9882291036327L123.89068651214176,121.66098930734546L125.0426058216095,121.77661466874406L125.12603173260159,121.11432574288384L125.19662288805644,121.27321513541867L125.25758797685835,121.07370582283923L125.33780519896612,121.24686690978292L125.3891442211151,122.37280836369291L125.78381295388539,123.12966882007609L125.9827516647127,123.99896509897405L126.65015895264943,124.38839057372294L126.70149797479841,123.52365400507998L126.86193241901398,122.77944536014445L126.93894095223745,123.64929875612408L127.09937539645301,124.07300255591633L127.53575708471934,124.40829016317562L127.79566088434855,125.05432575890084L127.79886957323286,125.68197932809025L128.34755537245007,126.37074728070723L128.36359881687164,127.11738440082905L128.44702472786375,128.0780461426397L128.64275474980673,126.17432204118771L128.90586723832024,126.9777023251091L129.12726677133773,127.58927439107546L129.2588230155945,128.0222213554128L129.39679663761987,128.21786743987886L129.82034357034897,128.7233500701825L129.85563914807636,128.14603217888214L130.31127296964857,128.47118025027692L130.61288972477382,127.76976868515082L130.6578113691542,128.7617016127638L130.71556776907178,129.1648979655499L131.89315658961402,128.7203463400734L132.85897194379172,128.62811162393794L132.97769343251122,129.27995929368197L133.78949172024195,129.79551303647546L134.14886487528483,129.80004009550447L134.35742965276506,130.22469030433234L134.37989047495523,130.12717778238073L134.40555998602974,129.49164185058808L134.55957705247667,129.61670341882876L134.58845525243547,129.56707798417798L134.77776789660984,130.41352685252804L134.8194808521059,130.75680950592633L135.32324500694276,131.63499429141714L135.429131740125,132.2348920606805L135.5638966732661,131.9052354566136L136.16071280574798,130.32635599205807L136.50404251636928,130.97951345757457L136.72544204938677,128.71581268069986L136.87304173806507,129.48259061526647L137.03026749339634,129.4808272616124L137.20995407091777,130.29351231305083L137.63350100364687,128.4063608616559L137.65917051472135,127.30018959813555L137.98003940315246,127.09339377170431L138.0185436697642,126.54055801981107L138.08271744745042,127.49454248669707L138.46134273579915,128.55097359530652L138.54797733567557,127.02930754560504L138.55439471344417,128.1445073258009L138.8431767130322,128.5707072614685L139.06778493493397,125.05087224606511L139.17688035700056,126.24675645796086L139.2667236457613,127.20464497473185L139.7031053340276,127.79983276500221L139.99830471138424,128.97373451560156L140.30954753316243,129.40627931915364L140.33842573312123,130.49340309800002L140.37692999973297,129.10209211759457L140.4378950885349,129.9088556808679L140.49244279956818,131.02674197845874L140.665711999321,131.56988754944098L140.70421626593273,131.15349634703534L140.7844334880405,131.53039646427254L140.90315497676002,129.7837095323216L141.23685862072838,130.40555626086325L141.2978237095303,127.2580519068946L141.46788422039882,128.25962042596447L141.63473604238297,126.43611853905117L142.34385628581578,125.53007907963007L142.4112387523863,126.32867221025646L142.58771664102343,127.21974352564035L142.86687257395852,126.5375125939643L142.87008126284283,127.4122623835848L142.99201144044665,128.59233828940802L143.10431555139755,129.79759943573848L143.69471430611082,130.30565675928753L143.99953975012036,130.902816225718L144.75999901570216,131.63962532125097L144.95893772652943,133.21913678701114L145.2060067706214,134.59683777556086L145.459493192482,128.36494189905437L145.52687565905254,127.86419391401009L145.55254517012702,129.07466777707123L145.6006755033917,129.48618829468376L145.93437914736006,130.06058149371182L145.94079652512866,130.91245513440532L146.2295785247167,131.90513746318786L146.8648989238103,132.76922169504712L146.8873597460005,133.21160349257687L147.09913321236505,134.4105605166628L147.1151766567866,132.04068469322604L147.44888030075498,129.4015250529705L147.50342801178826,128.44717549481373L147.71841016703712,128.6712082395535L148.38902614385816,128.23614936199164L148.44036516600715,128.3461469053432L148.48207812150318,128.04360740963216L148.59438223245408,129.19433208101324L148.67780814344619,130.20999628045112L149.4254326534907,130.75333231050283L149.61795398654937,131.05767238627433L149.7142146530787,131.5346227978518L149.77517974188063,132.04388849271896L150.06075305258432,133.21657617203965L150.1987266746097,132.97972179333115L150.2276048745685,133.7402477377574L150.32707422998217,133.38463675649922L150.50996949638792,133.710609966937L150.97843807349736,134.82389040091644L151.35064598407746,135.2385363193861L151.4565327172597,136.04210258760418L152.26833100499047,136.82612135590483L152.37742642705706,137.41263301855247L153.25981587024265,137.7543366857525L153.6191890252855,138.71009238948017L154.63313471272787,139.64635278127207L154.809612601365,140.14184220753896L154.85774293462964,140.74747038854323L155.18823788971372,138.96092822258805L155.42568086715275,138.4937403334772L155.47701988930174,138.58763426687327L155.51231546702917,138.26304548855018L155.62141088909573,138.10047629998115L155.87810599984064,138.463165416513L156.07383602178362,139.13398341297898L156.07704471066793,137.97259908209605L156.26314866595797,137.61936096576937L156.3273224436442,138.06556589573356L156.4652960656696,136.9470477847677L156.71236510976155,136.98482597500035L157.16479024244944,136.2408160396755L157.24179877567292,136.81502870015444L157.67818046393924,135.65900628039444L157.98621459683312,135.7526886850861L158.17552724100747,136.51001937887253L158.2108228187349,136.23015147264113L159.1220904618793,133.98198966865706L159.47825492803784,135.56427917699017L159.56809821679857,136.09969350020702L159.73174134989844,137.03441409667985L160.04298417167664,137.9303277838829L160.14245352709028,137.61413577816924L160.15849697151182,138.318169165293L160.21304468254513,137.9787638219033L160.49861799324884,138.27550483853258L161.38421612531874,138.54898726151976L162.0002843911065,137.44151886036283L162.03878865771824,136.82123476515852L162.510465923712,136.94013034758865L162.5425528125551,137.20843913730488L162.56180494586096,137.8872906859889L162.5746397013982,138.34942731244644L162.67410905681186,138.9384902281527L162.68052643458049,138.80139366530557L162.72544807896085,139.42757679155565L162.7447002122667,140.00699275750878L162.97893450082142,140.10607393679254L163.7714806552463,140.56641520140215L164.0538452770657,140.42874538074142L164.13727118805778,140.2668382842271L164.4260531876458,140.83975417603241L164.5126877875222,140.6912170826782L164.737296009424,141.49775339632072L164.95548685355718,140.8362646559903L165.2185993420707,139.05471033851396L165.37261640851764,139.02159455979532L165.4239554306666,136.38458997405934L166.14591042963664,136.60973043818478L166.43790111810895,137.55520274438328L166.871074117491,137.7398430977807L166.89353493968116,137.91462916480947L167.28178629468283,137.0946609604076L167.35879482790628,136.89867864154357L167.43580336112976,137.45430621590185L167.63474207195708,137.33179001896494L167.93956751596662,137.43358954405016L168.29573198212518,138.36510061605432L168.3534883820428,139.1169219733889L169.02731304774815,139.45566741760666L169.34176455841066,139.9153697776866L169.8391113354789,137.85178455492053L169.94499806866114,137.87067184893976L169.99954577969444,137.94132094522237L170.1246846461826,137.8345027439461L170.9525263783349,135.88629317139473L171.5814293996599,136.27011422687963L171.7226117105696,136.6428854382088L171.83491582152047,136.82630933108615L171.93117648804983,136.88358032465803L172.0081850212733,137.63342638377384L172.11086306557127,138.57720325570713L172.34188866524167,139.0166472307606L172.42852326511806,140.12967994030006L172.44135802065531,140.22880088640215L172.57291426491207,136.84808863266213L172.64350542036692,138.20599702697407L173.19219121958415,138.08076375774408L173.20502597512137,138.39265464680727L173.24673893061745,139.0962611436466L173.50343404136234,139.77814937636606L173.5162687968996,138.83488993472858L173.63178159673478,138.6475739236494L173.91093752966987,139.1795597084132L173.93339835186003,138.96959103345094L174.07458066276976,138.64531444514336L174.24464117363823,140.07675680575375L175.1462827501297,140.1781382923021L175.149491439014,139.50488344339777L175.33880408318836,137.57315577276017L175.6083339494705,137.24613945329054L175.84256823802522,136.68614238687775L175.8874898824056,136.903188050754L176.36237583728365,136.94263356629605L176.45863650381298,137.9163315172962L176.81159228108723,138.3983171860619L177.47258219125536,138.766309236826L177.50146039121415,138.408085186201L177.67152090208268,138.26603051762356L178.10469390146466,138.20693772465287L178.2202067012999,138.9711311863081L178.58920592299566,139.13922940802541L179.169978611056,138.6282411616582L179.28228272200693,137.40724045327423L179.7635860546536,138.14700608718888L179.79246425461238,138.97941203097892L179.8790988544888,139.86515459768285L179.97535952101813,139.917443487923L180.08445494308472,140.6383435923449L180.2288459428787,140.60961268514052L180.34435874271395,141.14993431090338L180.70694058664108,141.61671957727523L180.75827960879008,141.2378667818823L181.01176603065068,142.12172569186367L181.28771327470145,142.3952262844938L181.91982498491078,142.48934027864317L183.530586804835,141.59663643480275L183.66856042686038,141.17237595068127L183.86108175991907,141.42171412491723L183.9252555376053,141.107881105969L184.00868144859737,141.327229578673L184.2974634481854,140.86080622348987L184.46431527016958,140.3948317378244L184.65683660322824,139.69946942832522L184.77234940306346,140.17632630719126L184.94240991393195,139.14081059361865L184.95524466946918,139.93464342384445L184.99695762496526,140.12042687185075L185.0418792693456,138.36217622840957L185.11888780256908,139.84296539132615L185.15739206918082,140.92685248670657L185.26007011347878,141.9958022523898L185.28253093566894,142.07160146921865L185.32745258004928,141.44781587172986L185.69003442397647,141.4890943796965L185.7253300017039,142.28707945773434L185.74458213500975,142.6830843137751L185.87613837926654,141.12169797761726L185.8889731348038,141.3199167047862L185.93389477918413,141.69432072342363L186.0076946235233,142.5740709338976L186.34781564526028,140.14474260423285L186.68472797811296,140.48151328229903L186.73606700026193,141.12367695963766L186.8323276667913,141.94995108628228L187.7532213765886,142.31548888573738L187.7788908876631,143.04197401217442L188.18960306485494,142.00096980094938L188.81208870841132,141.6405707560529L189.25488777444627,141.24804805300488L190.18540755089654,141.47967682768422L190.35867675064935,141.8428255612352L190.43889397275714,141.6672087030396L190.84318877218033,140.88945104764505L191.10309257180955,141.4316330080714L191.29882259375253,141.05177077545872L191.35978768255447,141.71166232540662L191.54910032672882,141.54646288170593L192.540585191981,142.58292456285403L192.70101963619658,141.30844252126565L192.99942770243752,141.6958451839614L193.05076672458648,142.10021188572324L193.1470273911158,142.35563917756062L193.38126167967056,143.4602001024644L193.74705221248203,142.46717746846815L194.0294168343014,143.09681431194525L194.2476076784346,143.57167617049552L194.53959836690692,143.69012129965026L194.54601574467554,143.06805882531745L194.5652678779814,143.0548365792242L195.14924925492605,143.14236961383733L195.66263947641582,143.04473937957061L195.77815227625106,143.07018225774317L196.1599862534841,138.25954660249033L196.45839431972504,138.71313945805244L196.63487220836217,139.96103183027688L196.8273935414208,141.43471807811594L197.1322189854304,137.2961876763763L198.13653860621983,136.8514665569896L198.2777209171295,137.57799946968507L198.29055567266676,137.61737121858368L198.31622518374124,137.67793729934635L198.7911111386193,138.28710552854966L198.94191951618194,135.81288639189034L199.1536929825465,134.08757880649347L199.16011036031512,134.9073055183697L199.6991700928794,135.88436561204713L199.87564798151652,136.2149864954452L199.96549127027723,136.60244109123406L200.07137800345953,137.05302518670874L200.14838653668298,137.34702971404093L200.1804734255261,137.68998889079845L200.5751421582964,138.30603150374785L200.63289855821398,138.8409746014225L200.99548040214114,139.65120671770532L201.12703664639793,140.42807153716987L201.51207931251525,141.84472533075564L201.84578295648362,141.5403202154664L201.9516696896659,141.98952077130667L202.1570257782618,140.58591445018126L202.18911266710495,141.5705133026537L202.44259908896552,142.3460377603751L202.49072942223017,142.58011895043762L202.6094509109497,140.76054889801804L203.43408395421767,138.5268433934101L203.45975346529218,139.45957456301193L203.64906610946656,137.1368679538469L203.6939877538469,138.2000303479865L204.22663010864258,138.7296660267094L204.41273406393265,135.62942046001137L204.43519488612282,135.99240521612654L204.44802964166004,134.68880159349555L204.4608643971973,132.04816270401852L204.9132895298852,130.27627567534617L205.01917626306746,130.17208613613437L205.05447184079486,131.410151519481L205.4298884402593,129.7017764131399L205.58711419559057,129.68766313130817L205.63524452885522,127.02241302835878L205.70262699542576,126.42178083970906L205.7507573286904,126.52128229497502L206.12938261703917,127.79735538531317L206.53688610534667,128.58295365259337L206.85133761600918,129.32875208420666L207.24600634877947,130.0350941450667L207.36151914861466,130.32233044135918L207.43211030406954,130.56960868825985L207.57329261497924,130.42021322128465L207.6631359037399,131.68577430845153L207.94550052555934,132.28743168723778L208.36263008051978,133.3721774176813L208.5070210803138,134.5017472016577L209.1840544349035,135.0700926576043L209.52417545664045,133.7085317909673L209.5338015232934,134.99590898298828L209.61722743428547,134.56805275643214L209.71669678969914,133.14534904692871L210.29105209999082,133.66482978289997L210.3070955444124,134.74510066960872L210.3327650554869,135.9784250243202L210.85257265474533,136.30439840579336L211.02263316561383,136.946936757798L211.11568514325884,138.40082593399558L211.3563368095822,138.91885214136096L211.65474487582313,137.73648337727263L211.66437094247607,136.64486394309608L212.06545705301497,136.22244181454917L212.74890778537326,135.17923199653842L212.85479451855556,136.2924772993901L212.9895594516966,137.1734411033573L213.1596199625651,137.77704531277456L213.40027162888845,138.57380851713043L213.4451932732688,139.03083918035287L213.46765409545898,139.60676938916157L213.7243492062039,140.05347822589283L214.29870451649558,140.6046709228223L214.40459124967788,141.35989177883565L214.52010404951307,141.5757685901034L214.97894655996956,142.5185603797308L215.0976680486891,142.57828139339836L215.74261451443564,143.81475658532005L215.81962304765915,145.00930366274423L215.94155322526296,145.46427297900377L215.96080535856882,146.7662363287442L216.48703033559588,146.95750082268285L216.53516066886053,147.64312756644406L216.64425609092712,148.91220088849633L217.42075880093046,144.80145957548797L217.77371457820468,144.9217248044938L218.47962613275317,146.03438309429103L219.13740735403698,143.35300612564006L219.30105048713682,144.24403034720788L219.6026672422621,144.88295854889154L219.9748751528422,142.92761533335454L220.15135304147933,143.56473581313878L220.24761370800866,143.55487738799138L220.26044846354588,144.52851910209594L220.49789144098494,144.54123628433814L220.58452604086133,145.424114921169L220.63907375189464,145.72735593037714L220.6872040851593,146.83589235963075L220.71929097400243,147.11382603888353L220.98882084028455,148.09472615004432L221.44445466185675,148.6064518021571L221.49579368400575,148.9313222418575L221.5150458173116,149.45434673317277L222.24662688293455,150.86797093039755L222.39743526049722,150.0894959335161L222.78568661549886,150.56280382137558L223.2477378148397,147.78278033370924L223.40175488128662,147.99720838816373L223.45309390343562,149.02580904014144L223.54935456996492,150.02052496317023L223.7065803252962,150.83341318946447L223.76433672521378,152.45184146942395L223.80925836959415,153.07129869372034L224.16542283575268,153.8847919261912L224.25205743562913,154.23308883874367L224.63389141286214,154.01253483811936L224.88416914583843,154.65396936749377L225.1825772120794,155.0732233241266L225.20182934538525,155.06248493844797L225.27242050084007,155.85006230914465L225.5612025004281,155.79183429700126L225.88528007774354,156.72107191527778L226.1323491218355,153.87810202957527L226.22219241059622,153.3653978204901L226.52060047683716,154.06804984430815L226.65536540997823,154.74824980794486L226.7612521431605,155.44049247962064L226.9698169206407,155.55298453036542L227.40298992002275,155.7935775050083L227.88750194155375,155.31032648500997L228.20837082998486,156.29069863420216L228.4746920073827,156.93194539160433L228.7025089181688,155.53098689962462L229.013751739947,154.49021605112358L229.05225600655874,153.44064363126853L229.14209929531944,152.60327945875773L229.22231651742723,152.69870686598352L229.5303506503211,153.4762918174846L229.99881922743054,153.30470154544275L230.2138013826794,154.05747678038145L230.35819238247342,152.82449265519963L231.4716074253294,152.75858628029374L231.5550333363215,153.32898969322133L231.72830253607432,152.67365299064468L232.2577362019857,151.9949550167951L232.68128313471476,152.41652459365937L232.7807524901284,150.08450404353638L232.80642200120292,149.06834312327118L233.8299937552982,144.58664339820982L234.01930639947255,144.24514957366665L234.1091496882333,144.41417506023674L234.31129708794487,143.9840119444108L234.94020010926988,143.5003726504082L235.38299917530483,143.7451718451631L235.6076073972066,143.68632131489656L235.61081608609095,144.14815105638132L235.8803459523731,144.5807001261313L236.2044235296885,145.46030233647895L236.37769272944132,145.88261877709792L236.38731879609426,146.18237050621815L236.7402745733685,144.9950906552062L236.9071263953527,146.06807851176893L237.00980443965065,146.2811431665704L237.06756083956824,144.1324946855528L237.40447317242092,144.32560285059327L237.70288123866186,145.10239879943916L237.75742894969517,143.4294568736858L237.8568983051088,144.88863242767786L237.9980806160185,142.87912048590732L238.08150652701062,143.79911472031918L238.1649324380027,144.50697219313943L239.0826174589157,145.63627550547093L239.11470434775885,146.2273254748526L239.12112172552744,147.7173293826414L239.6473467025545,147.07704079956903L240.28908447941674,145.7454114972918L240.29550185718534,146.85984274318304L240.6163707456165,147.06807532259583L240.65166632334393,146.9909824936109L240.7415096121046,144.88507847219967L240.8249355230967,144.5254151413816L241.43779510000016,145.30525629165004L241.5308470776452,146.19534908790632L241.5886034775628,146.86892134166723L241.77470743285284,147.3256430840247L241.85492465496063,147.8761622153667L242.0666981213252,147.9956395686807L242.095576321284,149.21128758394275L242.19504567669762,148.67316037602103L242.26242814326818,150.23246003787364L242.34264536537594,150.9683903661094L242.58008834281497,148.57182599705277L242.71485327595605,145.61873477409347L242.9266267423206,145.62111123470774L243.20578267525568,146.02473664720753L243.5619471414142,146.23401155716397L243.69350338567097,145.5420681000542L243.98870276302762,146.62745538411224L244.01758096298641,146.06446081784978L244.81654449517993,145.80904926014748L245.57379507187738,146.02222520686038L245.93637691580454,146.7655680761444L246.38559335960812,147.3930823705751L246.9021922699822,147.59272670867568L246.99203555874294,147.46060852215678L247.01770506981745,148.32825990313842L247.13642655853695,148.15819476237132L247.86479893527562,148.68872721556775L247.93218140184615,148.35846280463994L248.48086720106338,148.33182880425588L248.58996262312996,148.3129268456881L248.7151014896181,149.65559218673388L249.3504218887117,149.25981884316838L250.51838464260103,147.06220824650381L251.1216181528515,147.374246408262L251.12482684173585,148.271428911632L251.1793745527691,149.2901832052927L251.2563830859926,150.13845385541424L251.27563521929847,148.80268332250392L251.3686871969435,147.08085331727668L251.49061737454733,146.4586838618161L251.6542605076472,146.81961856554906L251.92058168504502,147.18423610956802L252.1708594180213,148.34154279826453L252.49493699533676,149.4407206923712L252.88960572810703,148.88816939513424L253.25860494980284,149.44749717225787L253.4479175939772,149.81802850100803L254.03510765980616,150.33473646714933L254.03831634869044,151.4688550171403L254.0800293041865,150.2008336492249L254.5324544368744,150.95772401176387L254.69288888108997,151.03596798028553L254.94637530295054,152.04727645453156L255.01375776952108,152.33136531284316L255.4790176577462,153.4190141290441L255.61057390200295,154.10493998693377L255.69720850187937,154.79356831723197L255.79346916840873,151.78149601040164L256.0469555902693,153.0931759124988L256.34215496762596,152.71075050600516L256.4223721897337,153.03880753485564L256.5603458117591,152.10860285554185L256.96784930006663,152.56265486816287L257.10582292209205,152.633614135858L258.06842958738537,151.80239409378268L258.1646902539147,151.9042982769003L258.177525009452,149.89448738282562L258.25453354267546,151.1648713563834L258.27699436486563,151.49303786040443L258.3925071647008,152.23405793975442L258.46630700904,153.20599261841997L258.5561502978007,152.96014797349625L258.7069586753633,152.982263276964L258.80001065300837,152.92678558843906L259.0374536304474,147.31754005595118L259.63106107404496,147.27537704590944L259.8909648736742,148.42245541934957L260.7765630057441,149.38393609224858L260.91132793888517,149.41773038805454L261.2771184716966,149.35426688041701L261.36696176045734,149.45091890803877L261.40225733818477,149.4865240282745L261.6814132711199,150.0479363219516L261.764839182112,150.24838565123144L262.13704709269206,150.58346215301805L262.3712813812468,151.09785160048727L262.631185180876,151.728573212073L262.8108717583974,152.55840752457544L262.87504553608363,152.1817196081719L262.9745148914973,153.29714201039891L263.0451060469521,152.66956605644708L263.1509927801344,153.0157922431426L263.2312100022422,153.50247158363072L263.24083606889513,153.67901721486155L263.55849626844196,153.8218041495888L263.744600223732,152.20011141460992L263.99487795670825,152.99149668045823L264.0622604232788,150.89674523383817L264.0654691121631,151.13596975591284L264.0718864899317,148.9655167537493L264.177773223114,149.50005536752684L264.39917275613146,149.80104989600702L264.40879882278443,150.59229883323636L264.5371463781569,150.98059128247417L264.9029369109683,151.98816128680016L264.92539773315855,152.28706116028724L265.4323705768797,152.9994340214811L265.9136739095264,152.94950233220388L266.1543255758498,152.43885135100302L266.35005559779273,152.47543102017647L266.8153154860179,152.79751254188133L266.89553270812564,153.35733246002326L267.3415404630449,153.19082696908836L268.0185738176346,153.12047798314183L268.23997335065206,152.0721342959856" fill="none" class="style-scope vz-line-chart2"></path></g></g></g></g><g opacity="0.2"><g><g><g class="style-scope vz-line-chart2"><path style="fill: none;" stroke="rgb(255, 112, 67)" stroke-width="2px" d="M33.1072519083235,-76.78442158554921L33.60780737427606,8.379720355481254L33.806746085103356,5.6670989527124505L33.94471970712873,44.788417415862L33.96718052931892,10.015754117796831L34.12119759576586,8.936186442899611L34.1629105512619,21.340745413971263L34.37789270651076,-8.592674233392586L34.40356221758525,29.398155970174486L34.66025732833015,-8.619854009750611L34.67950946163601,33.37594419912108L34.76935275039673,11.140584904524388L35.340499371804135,-0.548910841574866L35.50735119378832,59.58224474521839L35.629281371392146,8.333666980833073L35.8731417265998,34.56107614485498L36.13304552622901,31.26083743088077L36.30952341486613,50.066591073571644L36.31914948151906,50.50229001021505L36.36407112589942,24.218316111730502L36.37690588143667,45.53563229174401L36.5309229478836,41.974589786142246L36.553383770073786,56.70952918377152L36.69456608098348,51.01664609661189L37.066773991563586,31.072964599102846L37.512781746482844,29.484941631965455L37.650755368508236,58.05949098491003L37.66038143516117,41.27290844800419L38.00371114578247,42.139246332205715L38.10959787896474,37.35649168363281L38.23794543433719,66.56047857548741L38.619779411570235,48.08768554329038L38.81230074462891,53.157827492023486L39.14279569971296,81.75154044017357L39.344943099424576,51.485659533372825L39.48933409921858,-14.137356302946529L39.7524465877321,39.38356208440706L39.903254965294735,67.35980665416409L39.95780267632802,40.08690977012253L39.96422005409665,40.47258481691952L40.06048072062598,47.72755205329929L40.06368940951029,50.71058198577472L40.10219367612203,43.762265843062266L40.11823712054359,59.57431630294231L40.211289098188615,30.102300042295468L40.70221849748824,38.76649774285076L40.87869638612535,63.91444281807979L41.60706876286401,56.5560270632501L41.834885673650106,30.01557408686162L42.22955440642039,89.50795007304436L42.450953939437866,63.116806257585665L42.502292961586846,67.7911519752739L42.50550165047116,83.77408771622419L42.69160560576121,83.57382248664781L43.253126160515684,39.75032704704029L43.695925226550635,-7.833957538339149L43.70234260431925,65.04103041336565L43.86277704853482,30.71894473496573L44.09059395932091,41.402178640804635L44.32482824787564,28.01659182435003L44.34728907006581,104.51178753243136L44.690618780687124,42.66773795035684L44.780462069447836,56.74717080232335L45.03715718019273,0.8675257490230592L45.236095891020035,71.39817711480005L45.550547401682536,33.794904485302766L45.66606020151774,87.22292348484221L45.9387987566842,80.82233261171865L46.205119934082035,74.73635390436826L46.500319311438666,64.75308663902398L46.55486702247196,52.59289821715886L47.052213799540205,56.76196826883357L47.065048555077446,111.91772651996779L47.090718066151936,100.82655564864558L47.450091221194796,110.56812471438167L47.495012865575156,100.05175382282073L47.79021224293179,96.91539478303318L48.03728128702375,53.757117413248594L48.470454286405776,107.55945863402266L48.560297575166494,82.15818222982716L49.23733092975617,86.97263616521278L49.28225257413652,99.07471252036112L49.47798259607951,63.22121960627271L49.89190346215566,116.9846128602276L50.30903301711613,96.83700146917491L50.45021532802581,56.88717781528419L50.722953883192275,83.96978037265278L50.9026404607137,31.063753008914773L50.92510128290388,119.1052767511389L51.04061408273909,71.31077686632374L51.306935260136925,39.962188834448625L51.980759925842285,69.75299755618599L52.04172501464419,120.38391605702864L52.26633323654599,49.35430853920934L52.545489169481066,93.08581238706525L53.18080956857469,95.56992886010796L53.27386154621972,83.03262436013003L53.5818956791136,80.19009746234681L53.62039994572533,83.91577997596625L54.079242456181845,101.34158968544158L54.438615611224705,80.04602484859291L54.91350156610277,70.21221318443438L55.04505781035953,106.42544426656394L55.773430187098185,77.64671491524587L56.023707920074465,98.9578022038016L56.0333339867274,85.66419630737651L56.081464319992065,65.72658246787228L56.18735105317434,82.41683056751498L57.076157874128555,94.74797297404281L57.108244762971665,92.07698363994629L57.22054887392256,119.11584964305533L57.72752171764374,75.98408865604905L57.968173383967084,65.46606723297208L58.333963916778565,113.07155942400438L58.46552016103533,46.74768217416121L58.92115398260753,127.43070149934806L58.937197427029076,133.30473885164133L58.96607562698788,112.46322526904318L59.354326981989544,117.51093525350265L59.386413870832655,104.50298932347351L59.6848219370736,97.02195971937233L60.573628758027816,130.63168924971953L60.66668073567285,98.51629240000895L60.734063202243384,88.44574098182636L60.75652402443355,81.45561687066105L60.94262797972361,68.6164135565074L61.799347911834715,111.12368626630507L62.46675519977146,121.29995786618454L62.742702443822225,93.54644133245401L62.78441539931827,120.97951340868269L63.146997243245444,112.81108225278165L63.204753643163045,143.30272907350707L63.67001353138818,127.2925556581174L63.87536961998409,81.80822805158971L64.44330755250719,84.38102028065138L65.05937581829495,123.73128501303067L65.08183664048512,115.69932460734947L65.45404455106524,109.96893358153193L65.71073966181014,113.54931411449789L65.84871328383551,41.222558699612705L66.12145183900198,107.86290526240167L66.2722602165646,80.0479586278531L66.45515548297034,114.94387792389365L66.60275517164867,60.77830758298781L66.60596386053298,85.93547672720314L66.67655501598782,129.65759739549227L66.9011632378896,122.83060034248058L67.06801505987379,99.20415484313563L67.07764112652673,93.48072117805147L67.19957130413056,109.28595425085369L67.2733711484697,115.59428358781625L67.2990406595442,89.24867573923925L67.44664034822252,76.86713529946573L67.70975283673604,106.87066267324653L67.77071792553797,101.50647732583042L68.01778696962992,81.67098247024005L68.72690721306272,120.13312204289225L68.89696772393121,69.10472783009766L68.96114150161743,129.8188234290817L69.06061085703108,114.44495639295187L69.08948905698989,103.89686803147053L69.19858447905646,111.94313608615558L69.46169696756998,87.9937671080168L69.5804184562895,112.47332806683976L69.81786143372854,67.0064848385272L70.4916860994339,76.86161402466493L70.50772954385545,114.15520306716084L70.62324234369066,92.67234258244225L71.0339545208825,112.59427273052832L71.1173804318746,89.09456603416713L71.5216752312978,123.54562453994612L72.7441856962204,99.82627079291156L73.40517560638853,110.58738317004202L73.6041143172158,102.55197398303136L73.85439205019209,103.45835332229785L73.90893976122538,108.7392345769238L73.99557436110177,118.15850463193641L74.06295682767232,96.45712135933664L74.10146109428406,121.76569531041983L74.14959142754871,107.59358309155525L75.08973727065192,97.59819086520228L75.41702353685166,117.41037931486181L75.55178846999274,41.93647204133171L75.71543160309263,92.41555293572397L75.78923144743177,77.15166820596444L75.97854409160614,117.97579174968243L76.3988823354509,109.38745932078716L76.63632531288994,127.416483349407L77.26522833421495,92.51764556810073L77.71765346690283,149.40806948139553L77.95188775545756,96.50143410655176L78.03531366644964,120.79548703123024L78.09307006636726,71.21031527690914L78.28238271054161,68.3887524551623L78.44281715475718,134.12425713940036L79.03642459835476,102.38239020354288L79.05567673166063,145.036585316659L79.15193739818997,119.19409102471846L79.18081559814877,108.33085487879862L79.21290248699188,130.69556233245373L79.50810186434852,78.2083575402059L79.53698006430733,100.54195093467763L79.60436253087785,102.72870274529333L79.80971861947377,110.77084122375824L79.87068370827568,124.54248105313295L80.50600410736932,91.46896694285088L80.79478610695733,101.6858544474697L81.0707333510081,96.05965672595677L81.25683730629815,115.81404052181945L81.73493195006053,99.1007864689646L81.74134932782916,157.1718764158109L81.84402737212712,147.27442391623154L81.94349672754075,98.2623455276966L82.59165188217162,112.96864006329824L82.6686604153951,129.5347018737044L83.40345016990238,107.36644878231675L83.73073643610212,110.43197766277432L83.79811890267266,131.5698787920495L84.22487452428607,121.12535572868171L84.45590012395648,105.15846852075559L84.52649127941132,100.30264717087891L84.72863867912292,83.66267197203284L85.04629887866973,78.4821338861333L85.6623671444575,141.6893404398973L86.02174029950037,140.15474865605196L86.1757573659473,133.51661164411433L86.31052229908838,100.05934239602885L86.84637334276836,108.72423301550344L86.945842698182,111.90167226562697L87.4014765197542,73.87278786335423L87.5715370306227,125.40762563977844L87.65175425273048,123.35760790755921L87.72234540818533,139.02004740926265L88.05925774103801,135.14591595565003L88.37691794058482,72.35783652977064L88.42183958496518,129.76655936112903L88.5148915626102,87.04490126179638L88.54056107368469,144.24960229003898L88.63361305132972,113.79092295816035L88.95127325087653,112.94879464032275L89.69248038315244,136.06145687810545L89.90104516063266,124.5393314448583L90.0518535381953,165.7185629498134L90.69038262617323,76.09614204527283L90.86365182592604,134.20827848803282L91.29040744753944,117.38565499492306L91.29361613642374,128.22209785372291L91.74283258022733,118.70886808154825L92.55463086795807,115.65702858123714L92.91721271188524,143.6924699988257L93.42418555560643,74.70160166288854L93.59424606647491,128.7011879358538L93.92153233267466,100.48331359215413L94.75579144259558,112.39872831579825L95.10553853098551,29.180755296841596L95.15046017536586,72.10528958312287L95.39752921945784,107.53321886103075L95.76652844115362,124.43674909210723L96.06172781851028,138.7630281145752L96.24462308491601,115.56941991829041L96.37297064028846,120.5999515865011L96.43072704020607,157.96507228609048L96.45960524016486,141.3620592143345L96.7034655953725,119.58944587842356L97.04358661710951,98.2286000019147L97.05321268376244,133.83310802011795L97.06925612818401,118.1244170794833L97.2970730389701,138.57182395915044L97.48959437202878,94.8398966568983L97.67248963843451,119.00514328416402L97.81688063822851,106.30037921523662L97.99014983798133,133.4513707931509L97.99335852686563,126.28432051741717L98.06394968232048,95.84172689099893L98.11528870446946,111.8022506767953L98.53883563719855,128.06529339247246L98.76023517021603,98.76840394535765L98.76986123686896,122.94467463343722L98.92708699220022,145.46872440242464L99.00409552542368,125.40707990944333L99.72605052439371,127.41826525421195L99.93140661298963,60.65492292623665L100.13997139046987,81.63002525849535L100.21377123480903,83.7915450123806L100.48330110109117,103.35592349517188L100.49292716774411,133.27731313344827L100.50897061216565,125.08553275685404L100.72395276741452,116.17688262068775L100.78170916733212,68.49985962601306L101.1474997001436,91.1008289917749L101.65447254386478,132.0872867866537L102.02026307667627,140.82383624592813L102.10368898766835,106.98715028566261L102.1710714542389,158.27441534672477L102.19032358754475,110.59609003447669L102.69729643126594,147.67574498254552L103.46417307461631,130.93251201848835L103.61498145217895,45.26613159561856L103.73691162978278,145.0868501922313L103.82675491854349,110.07651648035474L104.19254545135499,126.53415716604074L104.42357105102539,156.06372689194296L105.13269129445818,144.11783518547466L105.37334296078151,97.52755964163076L105.66212496036952,118.69367501471405L106.32953224830628,112.49499897491962L106.36161913714938,116.46994389520405L106.47071455921598,135.41593292172928L106.50280144805909,120.01315179070112L106.58622735905118,147.10811344155283L106.73061835884519,143.44288912680219L106.80441820318433,146.10600994295936L107.04506986950769,139.00748029935312L107.25684333587223,72.1681818456319L107.61942517979939,136.47899588861367L108.03655473475986,133.22368338725587L108.07185031248727,112.11535342801307L108.1360240901735,142.676673573313L108.89648335575527,43.99319489229919L109.34890848844317,114.47590026332324L109.4740473549313,132.5102920191194L109.56709933257632,126.73983617054279L109.8462552655114,104.09591833255558L110.00027233195834,105.29264364314425L110.00668970972697,112.61387651902652L110.1286198873308,115.3303124846961L110.20241973166996,-8.908155133191144L110.88266177514394,126.12419107164993L111.08801786373986,158.69856818150043L111.40246937440236,110.46186037702701L111.42813888547686,125.93982937441129L111.98645075134702,106.97252758114644L112.09233748452928,76.82458939112924L112.32978046196831,125.32579710804066L112.45491932845646,126.63097563471196L112.73086657250721,143.0955634348597L113.04531808316973,150.06107879077223L113.11590923862457,141.78953335280403L113.36939566048517,142.6239357008898L113.55870830465952,140.98783793984333L113.92449883747102,128.87026828328425L113.97262917073567,146.76421522717894L114.22611559259626,122.81632537045033L114.50527152553134,111.11200554687099L114.90956632495455,103.58200756064167L115.02187043590546,112.76180743992852L115.25931341334449,139.47680558378204L115.72457330156962,100.09239567085967L115.8047905236774,84.85046300795766L116.01014661227332,126.17530904643598L116.05506825665368,144.62681745156394L116.44973698942397,129.01654932905288L116.48503256715138,99.25208608824028L116.80590145558251,161.06870145912825L117.02088361083136,125.5095770820518L118.07012487600116,155.81274770561458L118.07333356488546,146.75066926888996L118.16638554253048,133.9008571388575L118.17280292029912,145.54858049292056L118.49046311984593,88.2060614917224L119.17712254108852,143.4540203247148L119.19637467439439,114.31105883820877L119.21562680770026,156.82366591044035L119.2284615632375,113.40438564560995L119.23167025212182,145.38289083446307L119.60066947381762,110.67926216565051L120.3418766060935,134.65652054842042L120.65632811675601,138.85361217937265L120.68841500559913,128.97731722614242L120.7108758277893,152.80530486189474L120.76863222770692,157.4543347571631L121.09270980502234,90.43050643770945L121.36865704907311,94.6639029148239L121.66064773754543,144.76784335055154L121.76974315961202,142.07573615028903L121.82749955952963,116.40893410585308L122.73555851378971,56.15363696708722L122.96016673569149,117.87955114853233L123.33558333515592,125.5148907440318L123.37729629065197,132.75241899580044L123.6724956680086,142.92992288339428L123.76554764565363,136.45541400270713L123.89068651214176,143.5207803877642L125.0426058216095,125.22134571745946L125.12603173260159,103.32722957405012L125.19662288805644,126.03684860273654L125.25758797685835,115.38643009044301L125.33780519896612,126.44927312624961L125.3891442211151,162.05381999918905L125.78381295388539,148.07523321597978L125.9827516647127,153.2177488174583L126.65015895264943,136.47689187119693L126.70149797479841,100.85916556210097L126.86193241901398,102.9908158831167L126.93894095223745,152.88970371515612L127.09937539645301,137.29606769541408L127.53575708471934,134.7297301348614L127.79566088434855,145.9523680662851L127.79886957323286,145.92359737509685L128.34755537245007,148.81092192854481L128.36359881687164,151.68294707566926L128.44702472786375,160.90269435227765L128.64275474980673,81.58282757775436L128.90586723832024,153.6701660409864L129.12726677133773,147.25999222244198L129.2588230155945,141.553355294854L129.39679663761987,134.11534475252682L129.82034357034897,144.70417796903968L129.85563914807636,112.47690110127733L130.31127296964857,138.46498072412572L130.61288972477382,109.02192773690784L130.6578113691542,162.84962920824205L130.71556776907178,141.70771970184018L131.89315658961402,116.45012445632602L132.85897194379172,125.95998668648426L132.97769343251122,150.38642688901686L133.78949172024195,146.1210695336926L134.14886487528483,129.93278147983577L134.35742965276506,143.47926608320455L134.37989047495523,127.30843647017704L134.40555998602974,112.36668657903617L134.55957705247667,133.34767695446777L134.58845525243547,128.12300598771233L134.77776789660984,158.74974835976792L134.8194808521059,141.33733570258983L135.32324500694276,161.19920047739305L135.429131740125,151.4931235100529L135.5638966732661,122.66949672743448L136.16071280574798,92.09954655260417L136.50404251636928,152.13301178650357L136.72544204938677,77.50673091647504L136.87304173806507,154.7981613101661L137.03026749339634,129.42916854433074L137.20995407091777,157.33893514151455L137.63350100364687,84.13011331092247L137.65917051472135,99.10609519130351L137.98003940315246,121.20419503623879L138.0185436697642,111.4898197471383L138.08271744745042,160.0514409161568L138.46134273579915,165.2936320305512L138.54797733567557,89.96575851443164L138.55439471344417,167.36608200838913L138.8431767130322,141.87689034376461L139.06778493493397,53.643307347918565L139.17688035700056,168.97010807088176L139.2667236457613,159.91802671266862L139.7031053340276,146.89210829511617L139.99830471138424,170.73137737930944L140.30954753316243,142.92400092580274L140.33842573312123,168.52338952267087L140.37692999973297,94.73940925217524L140.4378950885349,156.72953705624602L140.49244279956818,170.36305450054473L140.665711999321,148.8457788852942L140.70421626593273,119.61880820051914L140.7844334880405,143.2074090897118L140.90315497676002,88.21949401562169L141.23685862072838,150.44068892368594L141.2978237095303,61.427554049345346L141.46788422039882,162.7399165622786L141.63473604238297,83.37985616905466L142.34385628581578,101.89826030747216L142.4112387523863,152.8400431624071L142.58771664102343,157.28673733065665L142.86687257395852,108.25955650073473L142.87008126284283,156.8428690690265L142.99201144044665,170.62032600022098L143.10431555139755,172.9356171077114L143.69471430611082,146.37451857847412L143.99953975012036,150.06453616300433L144.75999901570216,155.84119282937226L144.95893772652943,194.40570932198642L145.2060067706214,185.6679050042163L145.459493192482,23.678183547824744L145.52687565905254,114.14161302695247L145.55254517012702,172.44391035570777L145.6006755033917,142.3046034834039L145.93437914736006,148.4232836904605L145.94079652512866,159.45757619147767L146.2295785247167,166.0235539417193L146.8648989238103,161.78605552340412L146.8873597460005,147.0581445764951L147.09913321236505,177.26962441737035L147.1151766567866,78.95929116506586L147.44888030075498,71.72104730470062L147.50342801178826,103.69537039598376L147.71841016703712,135.45288694540452L148.38902614385816,116.21328225506747L148.44036516600715,131.62054534545564L148.48207812150318,119.53723863787258L148.59438223245408,169.94333517856958L148.67780814344619,165.26690989887288L149.4254326534907,148.03581623874152L149.61795398654937,140.38231530666744L149.7142146530787,146.5449810865689L149.77517974188063,148.15408766035827L150.06075305258432,174.92115135864688L150.1987266746097,126.26171421574358L150.2276048745685,158.8224443570183L150.32707422998217,123.45558192548495L150.50996949638792,143.73104316569095L150.97843807349736,173.96358326704683L151.35064598407746,148.1606122838884L151.4565327172597,162.74163819438962L152.26833100499047,162.78800968394293L152.37742642705706,156.19989067420346L153.25981587024265,148.28365004709397L153.6191890252855,171.33796647270796L154.63313471272787,171.4957792867904L154.809612601365,155.78174995984583L154.85774293462964,160.20798432749666L155.18823788971372,96.61983959414457L155.42568086715275,125.63603417815241L155.47701988930174,141.37615762147487L155.51231546702917,129.16322285540852L155.62141088909573,133.4429352414751L155.87810599984064,149.6752566011387L156.07383602178362,160.9236265878046L156.07704471066793,108.5547115966511L156.26314866595797,127.75349889308984L156.3273224436442,152.0401828438663L156.4652960656696,108.47801065824227L156.71236510976155,138.09779174577574L157.16479024244944,116.45697013511328L157.24179877567292,155.17142033042578L157.67818046393924,106.3593263646396L157.98621459683312,138.5348449680686L158.17552724100747,161.47314052999738L158.2108228187349,128.33755744491327L159.1220904618793,83.04982767003547L159.47825492803784,196.8971225799063L159.56809821679857,153.10843076579857L159.73174134989844,168.82260329561387L160.04298417167664,168.1868805744386L160.14245352709028,128.73990971110624L160.15849697151182,161.31484478112247L160.21304468254513,128.48206015226518L160.49861799324884,147.35683886970835L161.38421612531874,146.88913811961132L162.0002843911065,109.21849751691038L162.03878865771824,120.07568101531426L162.510465923712,140.4839776470107L162.5425528125551,145.38443738341437L162.56180494586096,159.9675924904393L162.5746397013982,152.85945923071358L162.67410905681186,157.81534887605093L162.68052643458049,134.85994157845766L162.72544807896085,159.61688891410517L162.7447002122667,158.5454527814691L162.97893450082142,143.05085781382735L163.7714806552463,155.01597280990993L164.0538452770657,136.47112322473035L164.13727118805778,135.62784740435282L164.4260531876458,159.15082039955985L164.5126877875222,136.42753494060486L164.737296009424,168.30982511497706L164.95548685355718,123.06888166237779L165.2185993420707,96.81052209874767L165.37261640851764,138.0557144452777L165.4239554306666,78.740098736456L166.14591042963664,143.42606611400484L166.43790111810895,169.77174008328743L166.871074117491,143.2965300398987L166.89353493968116,143.16712096907068L167.28178629468283,115.48898351908238L167.35879482790628,131.30927072117066L167.43580336112976,155.16297350897426L167.63474207195708,133.80246184795527L167.93956751596662,140.46035485282692L168.29573198212518,170.0257619754443L168.3534883820428,163.87504743904918L169.02731304774815,149.8890923605309L169.34176455841066,154.3434152778039L169.8391113354789,90.26821026410937L169.94499806866114,138.42560886635587L169.99954577969444,140.032492314289L170.1246846461826,134.75072980197353L170.9525263783349,90.45328064109411L171.5814293996599,148.17430685050581L171.7226117105696,148.18460576456988L171.83491582152047,142.3453967432148L171.93117648804983,138.57551905382314L172.0081850212733,162.31815121850363L172.11086306557127,170.7260780483168L172.34188866524167,152.76487910109378L172.42852326511806,179.25880939537777L172.44135802065531,143.17478362290205L172.57291426491207,67.4883668853099L172.64350542036692,188.33546597482948L173.19219121958415,134.47451126886864L173.20502597512137,147.9596276705553L173.24673893061745,162.0773351366812L173.50343404136234,161.96853143512365L173.5162687968996,114.33911144229229L173.63178159673478,133.29905823528904L173.91093752966987,156.07004109446515L173.93339835186003,132.99259119308547L174.07458066276976,129.55387044266058L174.24464117363823,193.74790358940155L175.1462827501297,143.19229195061254L175.149491439014,121.44756373561844L175.33880408318836,92.45110236359393L175.6083339494705,128.0811873282639L175.84256823802522,121.45412632341456L175.8874898824056,143.46653237787746L176.36237583728365,138.1049958845979L176.45863650381298,171.26579477159623L176.81159228108723,153.579287840686L177.47258219125536,150.15164720760484L177.50146039121415,128.40948471500676L177.67152090208268,134.18480698618413L178.10469390146466,136.4896403740955L178.2202067012999,164.19017245704302L178.58920592299566,144.18577827547244L179.169978611056,124.64319424098646L179.28228272200693,106.68415780138274L179.7635860546536,162.4579509519653L179.79246425461238,166.77684557692197L179.8790988544888,169.72395523922916L179.97535952101813,141.46109673346288L180.08445494308472,164.25333367536413L180.2288459428787,139.77110943000528L180.34435874271395,158.32816680392582L180.70694058664108,156.28349812785876L180.75827960879008,130.69188144926045L181.01176603065068,171.90702968373304L181.28771327470145,150.73595418631757L181.91982498491078,145.28448803042966L183.530586804835,118.27613828743497L183.66856042686038,129.43161519005463L183.86108175991907,148.9980076693514L183.9252555376053,132.2971226682654L184.00868144859737,147.96248223462783L184.2974634481854,128.02288718518213L184.46431527016958,127.56853196279019L184.65683660322824,121.099581304002L184.77234940306346,155.18351877813723L184.94240991393195,112.53436084870225L184.95524466946918,166.26622658418364L184.99695762496526,145.712458123716L185.0418792693456,96.5719422735836L185.11888780256908,195.95958180706432L185.26007011347878,179.2616272307703L185.28253093566894,144.31687441216474L185.32745258004928,124.61503376734858L185.69003442397647,142.70578847176188L185.7253300017039,168.77547171812714L185.74458213500975,154.98841574419205L185.87613837926654,103.24914264763754L185.8889731348038,147.2972235627131L185.93389477918413,153.2895232573469L186.0076946235233,172.1992404179869L186.34781564526028,86.02985353132277L186.68472797811296,150.85097675845137L186.73606700026193,161.88313636920861L186.8323276667913,169.51298517831103L187.7532213765886,153.62061077001715L187.7788908876631,166.8625142239601L188.18960306485494,115.27030851540249L188.81208870841132,131.5841197717348L189.25488777444627,130.34092175509312L190.18540755089654,148.49924100917306L190.35867675064935,153.0699212561118L190.43889397275714,136.64477914315302L190.84318877218033,120.29219562329806L191.10309257180955,158.6741923634124L191.29882259375253,130.4790742326444L191.35978768255447,163.10727609414297L191.54910032672882,136.81526099782076L192.540585191981,178.4964472172362L192.70101963619658,109.42845372632642L192.99942770243752,153.71779812235232L193.05076672458648,154.68174559812496L193.1470273911158,150.12404696848358L193.38126167967056,182.22866122183657L193.74705221248203,116.82751621373862L194.0294168343014,163.40908313452158L194.2476076784346,158.51134984536571L194.53959836690692,147.22031127541658L194.54601574467554,126.27819333879671L194.5652678779814,142.66810673000825L195.14924925492605,145.73959802836637L195.66263947641582,140.2226397192014L195.77815227625106,143.81842841255977L196.1599862534841,49.61876651245669L196.45839431972504,152.93569969000762L196.63487220836217,185.0052064470431L196.8273935414208,197.1958125517737L197.1322189854304,57.25666289391101L198.13653860621983,124.57682516824471L198.2777209171295,161.40030014870428L198.29055567266676,138.77754761476552L198.31622518374124,139.46806635428234L198.7911111386193,157.87277382628412L198.94191951618194,80.92455955066421L199.1536929825465,92.94253982285552L199.16011036031512,162.22063224588464L199.6991700928794,169.36960039888382L199.87564798151652,146.38551333880838L199.96549127027723,148.62610252806618L200.07137800345953,151.17453845358347L200.14838653668298,146.34088523057486L200.1804734255261,148.26002579036754L200.5751421582964,158.13516448568998L200.63289855821398,155.8334507918875L200.99548040214114,166.60348232628513L201.12703664639793,166.1212950119875L201.51207931251525,194.79394307939728L201.84578295648362,132.98360596978057L201.9516696896659,156.06460177886316L202.1570257782618,105.96540748435076L202.18911266710495,175.36082328743274L202.44259908896552,167.9890008554558L202.49072942223017,149.67660190930678L202.6094509109497,97.78012513883351L203.43408395421767,87.85300077637241L203.45975346529218,171.16869745971022L203.64906610946656,84.88299572380966L203.6939877538469,175.2236767567813L204.22663010864258,155.53916574486465L204.41273406393265,70.52943046864806L204.43519488612282,147.21414760293192L204.44802964166004,102.18430482330912L204.4608643971973,74.34298613681193L204.9132895298852,88.22016042484219L205.01917626306746,127.16311000740826L205.05447184079486,176.01185448359806L205.4298884402593,88.88995678663402L205.58711419559057,129.27492369218297L205.63524452885522,68.90723695802231L205.70262699542576,110.16716241186256L205.7507573286904,129.47873688581348L206.12938261703917,174.12084678604253L206.53688610534667,154.60425412478824L206.85133761600918,153.86323103169698L207.24600634877947,153.11618732445325L207.36151914861466,139.10013836217715L207.43211030406954,138.08099094974514L207.57329261497924,126.1323947830451L207.6631359037399,177.5302277213232L207.94550052555934,151.60774217167852L208.36263008051978,171.30186503705312L208.5070210803138,174.33850491102808L209.1840544349035,153.22156668004732L209.52417545664045,99.97236548621612L209.5338015232934,181.83698653917676L209.61722743428547,122.73326796391018L209.71669678969914,98.12567676774691L210.29105209999082,150.12512460347054L210.3070955444124,172.4862949323891L210.3327650554869,180.3673231623271L210.85257265474533,146.32483752518874L211.02263316561383,157.71980110785455L211.11568514325884,193.17731680115398L211.3563368095822,155.32922477259132L211.65474487582313,107.85728177553072L211.66437094247607,108.77574395835968L212.06545705301497,124.52978475991084L212.74890778537326,108.39869736327516L212.85479451855556,175.4306735588223L212.9895594516966,166.84588428153722L213.1596199625651,157.16607238862193L213.40027162888845,165.01603244138633L213.4451932732688,153.36897576173993L213.46765409545898,158.02322473233883L213.7243492062039,154.04498811732148L214.29870451649558,158.1593675780979L214.40459124967788,166.24446119827297L214.52010404951307,148.10263294953583L214.97894655996956,174.6281419582244L215.0976680486891,144.34321942855843L215.74261451443564,188.34503442376132L215.81962304765915,187.6736720922312L215.94155322526296,159.73309332599L215.96080535856882,194.27897107941217L216.48703033559588,152.71917232214176L216.53516066886053,169.96919069421347L216.64425609092712,194.91646571298787L217.42075880093046,65.1340704055971L217.77371457820468,148.50710969159715L218.47962613275317,185.1475462705495L219.13740735403698,84.97007013035946L219.30105048713682,174.30918693757891L219.6026672422621,165.526732223513L219.9748751528422,97.36030821574633L220.15135304147933,164.14392947847156L220.24761370800866,143.26639728980703L220.26044846354588,177.87571291356957L220.49789144098494,144.91455940044955L220.58452604086133,175.17119099205104L220.63907375189464,155.01677380324713L220.6872040851593,185.77344764374075L220.71929097400243,155.5954172567529L220.98882084028455,181.7352459619589L221.44445466185675,164.8008531469199L221.49579368400575,158.91617442450632L221.5150458173116,166.0363701898337L222.24662688293455,203.66990388250622L222.39743526049722,129.47502023670432L222.78568661549886,165.44991573838507L223.2477378148397,87.77723766530622L223.40175488128662,154.47887470859442L223.45309390343562,184.61472712993765L223.54935456996492,184.22165064800618L223.7065803252962,177.88656711322005L223.76433672521378,215.7061437860483L223.80925836959415,173.02157588610612L224.16542283575268,180.96093743967316L224.25205743562913,164.97643651435885L224.63389141286214,147.7431548620042L224.88416914583843,175.38734660188385L225.1825772120794,168.14832300662218L225.20182934538525,154.74829415183942L225.27242050084007,181.94585236193754L225.5612025004281,154.09946434463424L225.88528007774354,188.29149331396522L226.1323491218355,92.85062528965832L226.22219241059622,139.33643481494727L226.52060047683716,177.01424847577124L226.65536540997823,176.87741766835478L226.7612521431605,178.00709926897292L226.9698169206407,158.9028508307207L227.40298992002275,163.0945760054305L227.88750194155375,142.03775369729073L228.20837082998486,189.90985472393535L228.4746920073827,177.65860693475707L228.7025089181688,120.96594679634977L229.013751739947,127.76483299349604L229.05225600655874,126.51637293819351L229.14209929531944,130.58486534570437L229.22231651742723,155.5334001328551L229.5303506503211,179.19652852343262L229.99881922743054,148.39474152284754L230.2138013826794,178.85106623546653L230.35819238247342,121.84104777415843L231.4716074253294,150.84509612721462L231.5550333363215,171.55229405688095L231.72830253607432,135.05819177796388L232.2577362019857,133.80378302776447L232.68128313471476,165.56860613567414L232.7807524901284,97.66669486363543L232.80642200120292,122.9011192132003L233.8299937552982,60.062567548757144L234.01930639947255,134.6926254414745L234.1091496882333,149.48925340122148L234.31129708794487,132.08895001165646L234.94020010926988,130.21779242364164L235.38299917530483,151.17848930145018L235.6076073972066,141.97600660662275L235.61081608609095,158.647843616673L235.8803459523731,158.09856726358345L236.2044235296885,175.0797081709363L236.37769272944132,159.05954164837993L236.38731879609426,155.36003457685516L236.7402745733685,115.00822458372703L236.9071263953527,183.50321389065294L237.00980443965065,152.72029235348353L237.06756083956824,94.99198605156278L237.40447317242092,150.14439891884777L237.70288123866186,170.79303920133353L237.75742894969517,103.31847753789906L237.8568983051088,199.92713915073577L237.9980806160185,96.29779796200904L238.08150652701062,175.003438500095L238.1649324380027,167.64351394441022L239.0826174589157,185.4615928253874L239.11470434775885,165.17402338240603L239.12112172552744,204.2969697764123L239.6473467025545,129.8341327729722L240.28908447941674,112.64348161891472L240.29550185718534,186.04863161856179L240.6163707456165,153.35667789370558L240.65166632334393,144.75618871263063L240.7415096121046,96.52395264177483L240.8249355230967,134.48852905726008L241.43779510000016,171.11017164626625L241.5308470776452,176.2240850089333L241.5886034775628,168.75812440865036L241.77470743285284,161.65338874607983L241.85492465496063,165.4074938043313L242.0666981213252,151.5571283576072L242.095576321284,192.81055298391166L242.19504567669762,133.99573486813242L242.26242814326818,210.3609674754512L242.34264536537594,175.13747356300757L242.58008834281497,95.02518598454283L242.71485327595605,82.8279422360564L242.9266267423206,145.69077212363845L243.20578267525568,158.5817550169662L243.5619471414142,152.55507020379508L243.69350338567097,127.02590002289004L243.98870276302762,184.5841949175681L244.01758096298641,130.75666390048121L244.81654449517993,138.58265718736146L245.57379507187738,152.46484434046272L245.93637691580454,171.20900299036467L246.38559335960812,167.6297687079666L246.9021922699822,153.614293937078L246.99203555874294,143.65968930079353L247.01770506981745,177.48330300413738L247.13642655853695,143.29086622435076L247.86479893527562,165.52912122957886L247.93218140184615,139.10643068771554L248.48086720106338,147.55429430373707L248.58996262312996,147.76051619730646L248.7151014896181,199.0656055895799L249.3504218887117,138.26700034665222L250.51838464260103,97.03622905830882L251.1216181528515,156.94595151893353L251.12482684173585,178.5777068666944L251.2563830859926,178.54479458242153L251.27563521929847,115.61276814821011L251.3686871969435,106.00416195647712L251.49061737454733,129.66615334970788L251.6542605076472,157.97445689816166L251.92058168504502,158.45929579594542L252.1708594180213,189.37600755455227L252.49493699533676,187.98065396895268L252.88960572810703,133.84463362245066L253.25860494980284,167.28480298441764L253.4479175939772,161.28642677726572L254.03510765980616,166.6998852023292L254.03831634869044,191.5010971265494L254.0800293041865,118.45991041187847L254.5324544368744,175.9044465787423L254.69288888108997,153.3544727968449L254.94637530295054,186.9256727862599L255.01375776952108,161.0088570884007L255.4790176577462,191.4711697586248L255.61057390200295,176.4418664282896L255.69720850187937,177.22869522589914L255.79346916840873,88.05879114765702L256.0469555902693,201.05573130530868L256.34215496762596,142.0702595891144L256.4223721897337,163.12650976503932L256.5603458117591,127.91502779743988L256.96784930006663,166.8006441753861L257.10582292209205,154.73405996680793L258.06842958738537,129.92956654708297L258.1646902539147,154.9342212290233L258.177525009452,103.30759653283775L258.25453354267546,197.22883500001498L258.27699436486563,161.58427530825082L258.3925071647008,176.5914445717267L258.46630700904,186.4843210467449L258.5561502978007,145.9955348236114L258.7069586753633,153.63234186577606L258.80001065300837,151.31373388479915L259.0374536304474,49.34117596958757L259.63106107404496,146.0471759519408L259.8909648736742,189.01365690484312L260.7765630057441,182.2415137942473L260.91132793888517,150.4127636453805L261.2771184716966,147.5110748521629L261.36696176045734,152.32249781065536L261.40225733818477,150.5351452775025L261.6814132711199,167.95778081757064L261.764839182112,156.29495344879916L262.13704709269206,160.89808359209252L262.3712813812468,167.38350826988466L262.631185180876,172.07949102759667L262.8108717583974,180.25747195908707L262.87504553608363,141.69304347063158L262.9745148914973,192.52823260033784L263.0451060469521,135.74244301662227L263.1509927801344,163.69187130576034L263.2312100022422,168.84273184419604L263.24083606889513,158.9857603081577L263.55849626844196,158.0926035205447L263.744600223732,113.11138789289168L263.99487795670825,179.2307580391724L264.0622604232788,102.7399568843811L264.0654691121631,158.3939558701667L264.0718864899317,99.42972430784585L264.177773223114,166.47857541808776L264.39917275613146,159.0185042700299L264.40879882278443,176.82642029193175L264.5371463781569,163.0318203418886L264.9029369109683,186.71357880107723L264.92539773315855,161.4374604374149L265.4323705768797,176.30136762207476L265.9136739095264,151.4965799036188L266.1543255758498,138.46243813451937L266.35005559779273,153.55290370055818L266.8153154860179,162.69243324887813L266.89553270812564,171.2117596399617L267.3415404630449,148.42306848145373L268.0185738176346,151.0792653800962L268.23997335065206,125.17560594803453" fill="none" class="style-scope vz-line-chart2"></path></g></g></g></g></g></g><g transform="translate(41, 177)" clip-path="url(#clip_1)"><clipPath id="clip_1"><rect width="288" height="22"></rect></clipPath><g><g><line x1="0" y1="0" x2="0" y2="5" style="visibility: inherit;" fill="rgb(0, 0, 0)" stroke="rgb(204, 204, 204)" stroke-width="1px" class="style-scope vz-line-chart2"></line><line x1="32.08688884311252" y1="0" x2="32.08688884311252" y2="5" style="visibility: inherit;" fill="rgb(0, 0, 0)" stroke="rgb(204, 204, 204)" stroke-width="1px" class="style-scope vz-line-chart2"></line><line x1="64.17377768622504" y1="0" x2="64.17377768622504" y2="5" style="visibility: inherit;" fill="rgb(0, 0, 0)" stroke="rgb(204, 204, 204)" stroke-width="1px" class="style-scope vz-line-chart2"></line><line x1="96.26066652933756" y1="0" x2="96.26066652933756" y2="5" style="visibility: inherit;" fill="rgb(0, 0, 0)" stroke="rgb(204, 204, 204)" stroke-width="1px" class="style-scope vz-line-chart2"></line><line x1="128.34755537245007" y1="0" x2="128.34755537245007" y2="5" style="visibility: inherit;" fill="rgb(0, 0, 0)" stroke="rgb(204, 204, 204)" stroke-width="1px" class="style-scope vz-line-chart2"></line><line x1="160.43444421556262" y1="0" x2="160.43444421556262" y2="5" style="visibility: inherit;" fill="rgb(0, 0, 0)" stroke="rgb(204, 204, 204)" stroke-width="1px" class="style-scope vz-line-chart2"></line><line x1="192.5213330586751" y1="0" x2="192.5213330586751" y2="5" style="visibility: inherit;" fill="rgb(0, 0, 0)" stroke="rgb(204, 204, 204)" stroke-width="1px" class="style-scope vz-line-chart2"></line><line x1="224.60822190178766" y1="0" x2="224.60822190178766" y2="5" style="visibility: inherit;" fill="rgb(0, 0, 0)" stroke="rgb(204, 204, 204)" stroke-width="1px" class="style-scope vz-line-chart2"></line><line x1="256.69511074490015" y1="0" x2="256.69511074490015" y2="5" style="visibility: inherit;" fill="rgb(0, 0, 0)" stroke="rgb(204, 204, 204)" stroke-width="1px" class="style-scope vz-line-chart2"></line><line x1="288.7819995880127" y1="0" x2="288.7819995880127" y2="5" style="visibility: inherit;" fill="rgb(0, 0, 0)" stroke="rgb(204, 204, 204)" stroke-width="1px" class="style-scope vz-line-chart2"></line></g><g transform="translate(0, 8)"><text style="text-anchor: middle; visibility: hidden; font-family: &quot;Helvetica Neue&quot;, sans-serif; font-size: 12px; font-weight: 200;" x="0" y="0" dx="0em" dy="0.95em" fill="rgb(50, 49, 63)" stroke="none" stroke-width="1px" class="style-scope vz-line-chart2">-10k</text><text style="text-anchor: middle; visibility: inherit; font-family: &quot;Helvetica Neue&quot;, sans-serif; font-size: 12px; font-weight: 200;" x="32.08688884311252" y="0" dx="0em" dy="0.95em" fill="rgb(50, 49, 63)" stroke="none" stroke-width="1px" class="style-scope vz-line-chart2">0</text><text style="text-anchor: middle; visibility: inherit; font-family: &quot;Helvetica Neue&quot;, sans-serif; font-size: 12px; font-weight: 200;" x="64.17377768622504" y="0" dx="0em" dy="0.95em" fill="rgb(50, 49, 63)" stroke="none" stroke-width="1px" class="style-scope vz-line-chart2">10k</text><text style="text-anchor: middle; visibility: inherit; font-family: &quot;Helvetica Neue&quot;, sans-serif; font-size: 12px; font-weight: 200;" x="96.26066652933756" y="0" dx="0em" dy="0.95em" fill="rgb(50, 49, 63)" stroke="none" stroke-width="1px" class="style-scope vz-line-chart2">20k</text><text style="text-anchor: middle; visibility: inherit; font-family: &quot;Helvetica Neue&quot;, sans-serif; font-size: 12px; font-weight: 200;" x="128.34755537245007" y="0" dx="0em" dy="0.95em" fill="rgb(50, 49, 63)" stroke="none" stroke-width="1px" class="style-scope vz-line-chart2">30k</text><text style="text-anchor: middle; visibility: inherit; font-family: &quot;Helvetica Neue&quot;, sans-serif; font-size: 12px; font-weight: 200;" x="160.43444421556262" y="0" dx="0em" dy="0.95em" fill="rgb(50, 49, 63)" stroke="none" stroke-width="1px" class="style-scope vz-line-chart2">40k</text><text style="text-anchor: middle; visibility: inherit; font-family: &quot;Helvetica Neue&quot;, sans-serif; font-size: 12px; font-weight: 200;" x="192.5213330586751" y="0" dx="0em" dy="0.95em" fill="rgb(50, 49, 63)" stroke="none" stroke-width="1px" class="style-scope vz-line-chart2">50k</text><text style="text-anchor: middle; visibility: inherit; font-family: &quot;Helvetica Neue&quot;, sans-serif; font-size: 12px; font-weight: 200;" x="224.60822190178766" y="0" dx="0em" dy="0.95em" fill="rgb(50, 49, 63)" stroke="none" stroke-width="1px" class="style-scope vz-line-chart2">60k</text><text style="text-anchor: middle; visibility: inherit; font-family: &quot;Helvetica Neue&quot;, sans-serif; font-size: 12px; font-weight: 200;" x="256.69511074490015" y="0" dx="0em" dy="0.95em" fill="rgb(50, 49, 63)" stroke="none" stroke-width="1px" class="style-scope vz-line-chart2">70k</text><text style="text-anchor: middle; visibility: hidden; font-family: &quot;Helvetica Neue&quot;, sans-serif; font-size: 12px; font-weight: 200;" x="288.7819995880127" y="0" dx="0em" dy="0.95em" fill="rgb(50, 49, 63)" stroke="none" stroke-width="1px" class="style-scope vz-line-chart2">80k</text></g><line x1="0" y1="0" x2="288.7819995880127" y2="0" fill="rgb(0, 0, 0)" stroke="rgb(204, 204, 204)" stroke-width="1px"></line></g></g></g></g></svg>