<svg viewBox="0 0 330 200" xmlns="http://www.w3.org/2000/svg"><g><g><g><g><g><line x1="62.03000068664551" y1="177.98199939727783" x2="57.03000068664551" y2="177.98199939727783" style="visibility: inherit;" fill="rgb(0, 0, 0)" stroke="rgb(204, 204, 204)" stroke-width="1px" class="style-scope vz-line-chart2"></line><line x1="62.03000068664551" y1="163.15016611417136" x2="57.03000068664551" y2="163.15016611417136" style="visibility: inherit;" fill="rgb(0, 0, 0)" stroke="rgb(204, 204, 204)" stroke-width="1px" class="style-scope vz-line-chart2"></line><line x1="62.03000068664551" y1="148.31833283106485" x2="57.03000068664551" y2="148.31833283106485" style="visibility: inherit;" fill="rgb(0, 0, 0)" stroke="rgb(204, 204, 204)" stroke-width="1px" class="style-scope vz-line-chart2"></line><line x1="62.03000068664551" y1="133.48649954795837" x2="57.03000068664551" y2="133.48649954795837" style="visibility: inherit;" fill="rgb(0, 0, 0)" stroke="rgb(204, 204, 204)" stroke-width="1px" class="style-scope vz-line-chart2"></line><line x1="62.03000068664551" y1="118.6546662648519" x2="57.03000068664551" y2="118.6546662648519" style="visibility: inherit;" fill="rgb(0, 0, 0)" stroke="rgb(204, 204, 204)" stroke-width="1px" class="style-scope vz-line-chart2"></line><line x1="62.03000068664551" y1="103.82283298174539" x2="57.03000068664551" y2="103.82283298174539" style="visibility: inherit;" fill="rgb(0, 0, 0)" stroke="rgb(204, 204, 204)" stroke-width="1px" class="style-scope vz-line-chart2"></line><line x1="62.03000068664551" y1="88.99099969863892" x2="57.03000068664551" y2="88.99099969863892" style="visibility: inherit;" fill="rgb(0, 0, 0)" stroke="rgb(204, 204, 204)" stroke-width="1px" class="style-scope vz-line-chart2"></line><line x1="62.03000068664551" y1="74.15916641553243" x2="57.03000068664551" y2="74.15916641553243" style="visibility: inherit;" fill="rgb(0, 0, 0)" stroke="rgb(204, 204, 204)" stroke-width="1px" class="style-scope vz-line-chart2"></line><line x1="62.03000068664551" y1="59.32733313242595" x2="57.03000068664551" y2="59.32733313242595" style="visibility: inherit;" fill="rgb(0, 0, 0)" stroke="rgb(204, 204, 204)" stroke-width="1px" class="style-scope vz-line-chart2"></line><line x1="62.03000068664551" y1="44.49549984931943" x2="57.03000068664551" y2="44.49549984931943" style="visibility: inherit;" fill="rgb(0, 0, 0)" stroke="rgb(204, 204, 204)" stroke-width="1px" class="style-scope vz-line-chart2"></line><line x1="62.03000068664551" y1="29.66366656621301" x2="57.03000068664551" y2="29.66366656621301" style="visibility: inherit;" fill="rgb(0, 0, 0)" stroke="rgb(204, 204, 204)" stroke-width="1px" class="style-scope vz-line-chart2"></line><line x1="62.03000068664551" y1="14.831833283106505" x2="57.03000068664551" y2="14.831833283106505" style="visibility: inherit;" fill="rgb(0, 0, 0)" stroke="rgb(204, 204, 204)" stroke-width="1px" class="style-scope vz-line-chart2"></line><line x1="62.03000068664551" y1="0" x2="57.03000068664551" y2="0" style="visibility: inherit;" fill="rgb(0, 0, 0)" stroke="rgb(204, 204, 204)" stroke-width="1px" class="style-scope vz-line-chart2"></line></g><g transform="translate(52.03000068664551, 0)"><text style="text-anchor: end; visibility: hidden; font-family: &quot;Helvetica Neue&quot;, sans-serif; font-size: 12px; font-weight: 200;" x="0" y="177.98199939727783" dx="0em" dy="0.3em" fill="rgb(50, 49, 63)" stroke="none" stroke-width="1px" class="style-scope vz-line-chart2">-1e-3</text><text style="text-anchor: end; visibility: inherit; font-family: &quot;Helvetica Neue&quot;, sans-serif; font-size: 12px; font-weight: 200;" x="0" y="163.15016611417136" dx="0em" dy="0.3em" fill="rgb(50, 49, 63)" stroke="none" stroke-width="1px" class="style-scope vz-line-chart2">0</text><text style="text-anchor: end; visibility: hidden; font-family: &quot;Helvetica Neue&quot;, sans-serif; font-size: 12px; font-weight: 200;" x="0" y="148.31833283106485" dx="0em" dy="0.3em" fill="rgb(50, 49, 63)" stroke="none" stroke-width="1px" class="style-scope vz-line-chart2">1e-3</text><text style="text-anchor: end; visibility: inherit; font-family: &quot;Helvetica Neue&quot;, sans-serif; font-size: 12px; font-weight: 200;" x="0" y="133.48649954795837" dx="0em" dy="0.3em" fill="rgb(50, 49, 63)" stroke="none" stroke-width="1px" class="style-scope vz-line-chart2">2e-3</text><text style="text-anchor: end; visibility: hidden; font-family: &quot;Helvetica Neue&quot;, sans-serif; font-size: 12px; font-weight: 200;" x="0" y="118.6546662648519" dx="0em" dy="0.3em" fill="rgb(50, 49, 63)" stroke="none" stroke-width="1px" class="style-scope vz-line-chart2">3e-3</text><text style="text-anchor: end; visibility: inherit; font-family: &quot;Helvetica Neue&quot;, sans-serif; font-size: 12px; font-weight: 200;" x="0" y="103.82283298174539" dx="0em" dy="0.3em" fill="rgb(50, 49, 63)" stroke="none" stroke-width="1px" class="style-scope vz-line-chart2">4e-3</text><text style="text-anchor: end; visibility: hidden; font-family: &quot;Helvetica Neue&quot;, sans-serif; font-size: 12px; font-weight: 200;" x="0" y="88.99099969863892" dx="0em" dy="0.3em" fill="rgb(50, 49, 63)" stroke="none" stroke-width="1px" class="style-scope vz-line-chart2">5e-3</text><text style="text-anchor: end; visibility: inherit; font-family: &quot;Helvetica Neue&quot;, sans-serif; font-size: 12px; font-weight: 200;" x="0" y="74.15916641553243" dx="0em" dy="0.3em" fill="rgb(50, 49, 63)" stroke="none" stroke-width="1px" class="style-scope vz-line-chart2">6e-3</text><text style="text-anchor: end; visibility: hidden; font-family: &quot;Helvetica Neue&quot;, sans-serif; font-size: 12px; font-weight: 200;" x="0" y="59.32733313242595" dx="0em" dy="0.3em" fill="rgb(50, 49, 63)" stroke="none" stroke-width="1px" class="style-scope vz-line-chart2">7e-3</text><text style="text-anchor: end; visibility: inherit; font-family: &quot;Helvetica Neue&quot;, sans-serif; font-size: 12px; font-weight: 200;" x="0" y="44.49549984931943" dx="0em" dy="0.3em" fill="rgb(50, 49, 63)" stroke="none" stroke-width="1px" class="style-scope vz-line-chart2">8e-3</text><text style="text-anchor: end; visibility: hidden; font-family: &quot;Helvetica Neue&quot;, sans-serif; font-size: 12px; font-weight: 200;" x="0" y="29.66366656621301" dx="0em" dy="0.3em" fill="rgb(50, 49, 63)" stroke="none" stroke-width="1px" class="style-scope vz-line-chart2">9e-3</text><text style="text-anchor: end; visibility: inherit; font-family: &quot;Helvetica Neue&quot;, sans-serif; font-size: 12px; font-weight: 200;" x="0" y="14.831833283106505" dx="0em" dy="0.3em" fill="rgb(50, 49, 63)" stroke="none" stroke-width="1px" class="style-scope vz-line-chart2">0.01</text><text style="text-anchor: end; visibility: hidden; font-family: &quot;Helvetica Neue&quot;, sans-serif; font-size: 12px; font-weight: 200;" x="0" y="0" dx="0em" dy="0.3em" fill="rgb(50, 49, 63)" stroke="none" stroke-width="1px" class="style-scope vz-line-chart2">0.011</text></g><line x1="62.03000068664551" y1="0" x2="62.03000068664551" y2="177.98199939727783" fill="rgb(0, 0, 0)" stroke="rgb(204, 204, 204)" stroke-width="1px"></line></g></g><g transform="translate(62, 0)" clip-path="url(#clip_0)"><clipPath id="clip_0"><rect width="267" height="177"></rect></clipPath><g><g><g><line x1="0" y1="0" x2="0" y2="177.98199939727783" fill="rgb(0, 0, 0)" stroke="rgb(60, 60, 60)" stroke-width="1px" opacity="0.25" class="style-scope vz-line-chart2"></line><line x1="29.774444368150498" y1="0" x2="29.774444368150498" y2="177.98199939727783" fill="rgb(0, 0, 0)" stroke="rgb(60, 60, 60)" stroke-width="1px" opacity="0.25" class="style-scope vz-line-chart2"></line><line x1="59.548888736300995" y1="0" x2="59.548888736300995" y2="177.98199939727783" fill="rgb(0, 0, 0)" stroke="rgb(60, 60, 60)" stroke-width="1px" opacity="0.25" class="style-scope vz-line-chart2"></line><line x1="89.32333310445149" y1="0" x2="89.32333310445149" y2="177.98199939727783" fill="rgb(0, 0, 0)" stroke="rgb(60, 60, 60)" stroke-width="1px" opacity="0.25" class="style-scope vz-line-chart2"></line><line x1="119.09777747260199" y1="0" x2="119.09777747260199" y2="177.98199939727783" fill="rgb(0, 0, 0)" stroke="rgb(60, 60, 60)" stroke-width="1px" opacity="0.25" class="style-scope vz-line-chart2"></line><line x1="148.8722218407525" y1="0" x2="148.8722218407525" y2="177.98199939727783" fill="rgb(0, 0, 0)" stroke="rgb(60, 60, 60)" stroke-width="1px" opacity="0.25" class="style-scope vz-line-chart2"></line><line x1="178.64666620890299" y1="0" x2="178.64666620890299" y2="177.98199939727783" fill="rgb(0, 0, 0)" stroke="rgb(60, 60, 60)" stroke-width="1px" opacity="0.25" class="style-scope vz-line-chart2"></line><line x1="208.4211105770535" y1="0" x2="208.4211105770535" y2="177.98199939727783" fill="rgb(0, 0, 0)" stroke="rgb(60, 60, 60)" stroke-width="1px" opacity="0.25" class="style-scope vz-line-chart2"></line><line x1="238.19555494520398" y1="0" x2="238.19555494520398" y2="177.98199939727783" fill="rgb(0, 0, 0)" stroke="rgb(60, 60, 60)" stroke-width="1px" opacity="0.25" class="style-scope vz-line-chart2"></line><line x1="267.9699993133545" y1="0" x2="267.9699993133545" y2="177.98199939727783" fill="rgb(0, 0, 0)" stroke="rgb(60, 60, 60)" stroke-width="1px" opacity="0.25" class="style-scope vz-line-chart2"></line></g><g><line x1="0" y1="177.98199939727783" x2="267.9699993133545" y2="177.98199939727783" fill="rgb(0, 0, 0)" stroke="rgb(60, 60, 60)" stroke-width="1px" opacity="0.25" class="style-scope vz-line-chart2"></line><line x1="0" y1="163.15016611417136" x2="267.9699993133545" y2="163.15016611417136" fill="rgb(0, 0, 0)" stroke="rgb(60, 60, 60)" stroke-width="1px" opacity="0.25" class="style-scope vz-line-chart2"></line><line x1="0" y1="148.31833283106485" x2="267.9699993133545" y2="148.31833283106485" fill="rgb(0, 0, 0)" stroke="rgb(60, 60, 60)" stroke-width="1px" opacity="0.25" class="style-scope vz-line-chart2"></line><line x1="0" y1="133.48649954795837" x2="267.9699993133545" y2="133.48649954795837" fill="rgb(0, 0, 0)" stroke="rgb(60, 60, 60)" stroke-width="1px" opacity="0.25" class="style-scope vz-line-chart2"></line><line x1="0" y1="118.6546662648519" x2="267.9699993133545" y2="118.6546662648519" fill="rgb(0, 0, 0)" stroke="rgb(60, 60, 60)" stroke-width="1px" opacity="0.25" class="style-scope vz-line-chart2"></line><line x1="0" y1="103.82283298174539" x2="267.9699993133545" y2="103.82283298174539" fill="rgb(0, 0, 0)" stroke="rgb(60, 60, 60)" stroke-width="1px" opacity="0.25" class="style-scope vz-line-chart2"></line><line x1="0" y1="88.99099969863892" x2="267.9699993133545" y2="88.99099969863892" fill="rgb(0, 0, 0)" stroke="rgb(60, 60, 60)" stroke-width="1px" opacity="0.25" class="style-scope vz-line-chart2"></line><line x1="0" y1="74.15916641553243" x2="267.9699993133545" y2="74.15916641553243" fill="rgb(0, 0, 0)" stroke="rgb(60, 60, 60)" stroke-width="1px" opacity="0.25" class="style-scope vz-line-chart2"></line><line x1="0" y1="59.32733313242595" x2="267.9699993133545" y2="59.32733313242595" fill="rgb(0, 0, 0)" stroke="rgb(60, 60, 60)" stroke-width="1px" opacity="0.25" class="style-scope vz-line-chart2"></line><line x1="0" y1="44.49549984931943" x2="267.9699993133545" y2="44.49549984931943" fill="rgb(0, 0, 0)" stroke="rgb(60, 60, 60)" stroke-width="1px" opacity="0.25" class="style-scope vz-line-chart2"></line><line x1="0" y1="29.66366656621301" x2="267.9699993133545" y2="29.66366656621301" fill="rgb(0, 0, 0)" stroke="rgb(60, 60, 60)" stroke-width="1px" opacity="0.25" class="style-scope vz-line-chart2"></line><line x1="0" y1="14.831833283106505" x2="267.9699993133545" y2="14.831833283106505" fill="rgb(0, 0, 0)" stroke="rgb(60, 60, 60)" stroke-width="1px" opacity="0.25" class="style-scope vz-line-chart2"></line><line x1="0" y1="0" x2="267.9699993133545" y2="0" fill="rgb(0, 0, 0)" stroke="rgb(60, 60, 60)" stroke-width="1px" opacity="0.25" class="style-scope vz-line-chart2"></line></g></g></g><g><g><line x1="0" y1="163.15016611417136" x2="267.9699993133545" y2="163.15016611417136" fill="rgb(0, 0, 0)" stroke="rgb(153, 153, 153)" stroke-width="1.5px"></line></g></g><g><g><line x1="29.774444368150498" y1="0" x2="29.774444368150498" y2="177.98199939727783" fill="rgb(0, 0, 0)" stroke="rgb(153, 153, 153)" stroke-width="1.5px"></line></g></g><g><g><g><g><g class="style-scope vz-line-chart2"><path style="fill: none;" stroke="rgb(255, 112, 67)" stroke-width="2px" d="M34.809302910804746,-0.6587820905301953L34.9373330215878,4.588708544153292L34.946265354898244,9.381720678025602L35.26485190963745,12.402706166531601L35.36310757605235,11.110643032352016L35.482205353524954,15.402487835254675L35.83652124150594,16.616359482568413L36.01516790771484,20.18371381298121L36.32184468470679,23.86534834176436L36.50942368422614,26.1995140109469L36.64340868388282,19.11810462030681L36.88755912770166,22.36123242000494L37.027499016231964,25.91690125336774L37.07811557165782,28.647810738002818L37.08407046053145,31.46572628423249L37.173393793635896,33.12264904451618L37.17637123807271,36.323756464024285L37.212100571314494,37.590353770228575L37.22698779349857,39.22164887119621L37.31333368216621,39.0844708622366L37.768882680998914,38.96091738733611L37.93264212502373,41.91803267250029L38.60852201218075,44.093539784099136L38.81992056719462,40.08443783048506L39.18614623292287,40.92245010026659L39.391589899063106,42.19455578602634L39.43922901005215,45.04934886080417L39.44220645448897,47.91745082933613L39.61489823182424,50.46461767802565L40.13595100826687,49.956969379195044L40.54683834054735,44.279154307446845L40.55279322942098,46.92550230112866L40.70166545126173,48.937339043615L40.9130640062756,44.933204226028494L41.1304174501631,46.6246419579889L41.151259561220805,49.87283714685515L41.46984611596002,51.63182207614365L41.55321456019083,51.904191097104416L41.79141011513604,47.750971736526964L41.976011670218575,48.51759808713638L42.267801225026446,46.53542155541075L42.374989224751786,49.624936339076015L42.62807200188107,51.77423218570904L42.87519989013672,53.60608458270313L43.1491247783237,54.79306226815656L43.19974133374956,56.21340982368574L43.66124522145589,55.04673548563416L43.67315499920315,57.603333866134875L43.696974554697675,59.84844674977474L44.03044833162095,62.44634602462803L44.072132553736374,65.07592658067776L44.34605744192335,67.49558249599235L44.57532066355811,69.34622597975141L44.97727566252814,71.67281222192291L45.060644106758964,73.7146963874897L45.68888488292694,75.55922881363344L45.730569105042356,77.53457514656397L45.91219321568807,79.11833250397376L46.296283548037216,80.68569471233727L46.68335132482317,82.31883374564075L46.81435888004303,81.35456457544316L47.06744165717231,83.15345311809614L47.234178545633945,82.0060283876992L47.255020656691656,83.67895043950065L47.362208656417,84.5428193206486L47.60933654467265,83.07953635660502L48.234599876403806,83.99984185199713L48.29117132070329,85.49731417903106L48.49959243128035,86.39201068316855L48.75863009728326,87.2310785058942L49.34816409577263,88.7515925799341L49.43450998444027,90.47544907605263L49.72034465037452,91.62821115741242L49.7560739836163,92.7781431895003L50.18184853808085,93.52081741673501L50.515322315004134,94.81390507069452L50.955984091652766,95.34247515322582L51.078059313562186,96.52827699009956L51.753939200719195,97.29179802888535L51.98617986679077,98.62411727773632L51.99511220010122,99.13293429114088L52.03977386665345,97.71575966167755L52.13802953306834,96.21208982241518L52.96278164206611,97.47619911744047L52.992556086434256,97.95586116703423L53.09676664172279,99.57681619021304L53.56720286273956,99.02181521949426L53.7905111955007,98.65858821834014L54.12993986129761,100.17781826827341L54.25201508320703,99.76289906175101L54.674812193234764,101.24553467750997L54.689699415418836,101.99593987565281L54.71649641535017,102.99546526437511L55.0767671922048,103.66409962668219L55.10654163657294,104.74505547463355L55.38344396919674,104.68706847955896L56.20819607819451,105.86007650409961L56.29454196686215,106.7825073365804L56.357068300035266,108.06821577477578L56.37791041109297,108.17462442787837L56.55060218842824,108.30348064597526L57.34557985305786,109.15801475015908L57.964888295915394,110.08949134621625L58.22094851748149,110.72431009624671L58.25965529516008,111.55171343178594L58.59610651652019,112.06351754447287L58.64970051638285,112.90684358303315L59.081429959721035,113.68124407742535L59.2719864036772,113.45716442509438L59.79899406899346,113.09150871939877L60.37066340086196,113.65356529972512L60.391505511919654,114.4426309233096L60.7368890665902,115.15212077289125L60.97508462153541,115.79535537115262L61.10311473231845,107.93405599174784L61.35619750944774,108.20893103258783L61.49613739797804,108.51787497823184L61.6658517308765,109.3536071840442L61.80281417496999,106.33502227324851L61.80579161940681,107.19970627991908L61.87129539701674,108.23418114250104L62.07971650759379,109.49130704954696L62.23454361830817,110.06581242024404L62.24347595161862,110.67982089658085L62.356618840217585,109.97386632798994L62.425100062264335,110.61395105148097L62.448919617758854,111.20260517104595L62.585882061852345,109.69086178350337L62.83003250567118,108.34486966524796L62.88660394997067,109.04649823839745L63.11586717160543,108.72096787538078L63.77388239214155,109.91696559373234L63.931686947292754,109.2082867113459L63.991235836029055,110.02295385649221L64.08353661357032,110.41523545184488L64.11033361350165,111.27177533660125L64.21156672435336,112.24970072839879L64.4557171681722,112.948119766098L64.56588261233435,113.85494144547798L64.78621350065868,113.12378560472384L65.41147683238984,112.32245317825591L65.42636405457391,113.36827255944115L65.53355205429925,112.83628183137336L65.91466494221157,113.78437983398554L65.99207849756877,112.08271335104277L66.36723649660746,113.22100344310596L67.501642827034,113.80747688731668L68.1149963810179,114.36869791321999L68.29959793610043,114.7241185320787L68.531838602172,115.0813596247315L68.58245515759786,115.96735558723171L68.66284615739185,116.96694486292392L68.72537249056498,117.23798875318205L68.76110182380675,118.14897190322495L68.80576349035898,118.4251235139519L69.6781547103458,118.0310450279082L69.98185404290092,118.8479313446107L70.10690670924716,116.36367828834119L70.25875637552474,117.31863612513396L70.32723759757147,116.18816859502166L70.50290681934356,117.11032075636265L70.89295204056633,116.65673126425794L71.11328292889065,117.46764363260337L71.6968620385064,117.66423891742902L72.11668170409732,118.45712461928242L72.33403514798484,119.4776097477741L72.411448703342,119.97627859979403L72.46504270320469,118.80079620900119L72.64071192497677,118.01851613475121L72.78958414681753,118.80181807085717L73.3404113676283,118.96675153312313L73.35827603424919,119.81373322833215L73.44759936735365,119.70773350956998L73.47439636728498,120.07166724874381L73.50417081165314,120.71205454937532L73.77809569984012,121.17613230961155L73.80489269977146,121.69632247106819L73.86741903294457,121.54122062870718L74.05797547690074,121.38703181177408L74.11454692120022,121.84591536729054L74.7040809196896,121.21646583385868L74.97205091900297,121.85336817008256L75.22811114056906,121.94487819008145L75.40080291790433,122.25728716386104L75.84444213898978,122.17203827904032L75.8503970278634,122.89510090959814L75.94567524984149,123.67421429283675L76.03797602738274,123.41743091806345L76.63941980361938,124.03613621752439L76.71087847010294,124.1879734896958L77.3927132461336,124.09462231636257L77.69641257868872,124.57100508009015L77.75893891186183,124.7577287685511L78.15493902195824,125.45140892943824L78.36931502140894,125.4609814701803L78.43481879901887,125.43027113371491L78.6223977985382,125.086051849867L78.91716479778289,125.299967167457L79.4888341296514,125.57346090272162L79.82230790657468,126.46771053529694L79.9652252395418,127.08800604443081L80.09027790588803,127.26583310141905L80.58751112683615,127.13721315216056L80.6798119043774,127.72864959543818L81.10260901440515,127.09277865137179L81.26041356955633,127.28350070930291L81.33484968047672,127.41543401435695L81.40035345808666,127.9973361775437L81.71298512395224,127.8447909854386L82.00775212319692,127.3756197296091L82.04943634531233,127.63905011332659L82.13578223397997,127.4839483242726L82.15960178947448,127.76506853465844L82.24594767814212,128.173140773822L82.5407146773868,128.5851782597038L83.2285043422911,129.25817528973425L83.42203823068407,129.46753885999686L83.56197811921439,129.51846121350945L84.15448956214057,128.67392128442845L84.31527156172858,129.2198709890846L84.71127167182499,128.69570503347327L84.7142491162618,128.99793623436915L85.13109133741591,129.16780306827968L85.88438477993012,128.50315658547242L86.22083600129022,128.811708736294L86.691272222307,128.5949317224154L86.8490767774582,129.23217970195333L87.15277611001332,129.4849113582038L87.92691166358523,129.36332355277216L88.25145310719807,120.86034373836341L88.2931373293135,119.5493672355089L88.52240055094825,120.51502206685844L88.86480666118197,120.87719218728122L89.13873154936897,121.591933230275L89.30844588226742,121.13272772046165L89.42754365974002,121.56544147871314L89.4811376596027,121.96196098348024L89.50793465953403,122.60038404090841L89.73422043673197,122.61301935473966L90.04982954703436,122.9484114328205L90.0587618803448,123.63159947301362L90.07364910252889,123.70598469963377L90.28504765754276,124.27053266600538L90.46369432375165,124.52968067798882L90.63340865665012,124.82007665768111L90.7673936563068,125.52623387542991L90.92817565589482,126.14091217769166L90.93115310033163,126.41379623553809L90.99665687794155,126.0697200070889L91.04429598893059,126.3457785785595L91.43731865459017,126.80323584892558L91.64276232073043,126.46551312378188L91.65169465404087,126.88250215132537L91.7975894314448,127.35496831244241L91.86904809792836,127.41496255433606L92.53897309621175,128.17018743331005L92.72952954016792,126.13828981937945L92.9230634285609,124.65747167360311L92.99154465060764,124.76161006597916L93.2416499833001,124.88540938321783L93.25058231661055,125.11789973364708L93.26546953879462,125.5767842668736L93.46495831606123,125.8261041591497L93.51855231592391,120.3691519551214L93.85798098172081,120.12612654039236L94.3284172027376,119.87434480141567L94.66784586853451,120.24148931864997L94.7452594238917,119.3016129887414L94.80778575706482,120.29880321135093L94.82565042368572,120.87846976732311L95.29608664470248,121.40979870920947L96.00769586510128,121.77400371515742L96.14763575363159,119.0842444532814L96.26077864223056,119.94313044259168L96.34414708646138,120.50734750507871L96.6835757522583,121.31186986657046L96.89795175170897,122.13886524577649L97.55596697224512,123.00025309370673L97.77927530500624,122.77709289066092L98.04724530431959,123.69192071431583L98.66655374717713,123.46010475675428L98.69632819154526,123.2175803052877L98.79756130239699,123.13398532972356L98.82733574676514,122.35255907882706L98.90474930212234,121.78816612598825L99.03873430177902,121.82611320047795L99.10721552382574,122.32469897495079L99.33052385658688,123.04831839473879L99.52703518941668,121.26649392382713L99.86348641077677,120.98384156533797L100.25055418756273,121.37953556424756L100.2833060763677,121.1813239023225L100.342854965104,121.88719018270908L101.04850929662916,118.47699709750742L101.4683289622201,119.12724278525246L101.58444929525587,119.94516787748239L101.6707951839235,120.68855697649022L101.92983284992641,120.80269053869311L102.07275018289353,121.58387039388842L102.07870507176717,119.83430271563125L102.19184796036615,120.19053155239911L102.26032918241289,114.86642569615844L102.89154740301768,115.68941451377958L103.08210384697385,116.72915223505905L103.37389340178171,116.18515297381018L103.39771295727624,116.4094161761542L103.91578828928206,116.95377273222229L104.01404395569695,115.60083048396737L104.23437484402126,116.22687446604125L104.35049517705706,116.72030313981949L104.60655539862314,117.524123996505L104.89834495343102,118.48115273922213L104.96384873104095,119.18922605487683L105.19906684154935,119.73668847638007L105.37473606332144,120.57480342574421L105.71416472911835,120.5969059747254L105.75882639567057,120.94287204704997L105.99404450617895,121.95214196728128L106.25308217218186,121.52307609779115L106.62824017122057,121.42389324172927L106.73245072650909,121.45594589048002L106.9527816148334,122.35939005419078L107.38451105817158,122.47890945270481L107.45894716909196,121.42120562905525L107.64950361304813,120.99010731214884L107.69118783516355,121.55099031973425L108.0574135008918,122.15240570416196L108.09016538969675,120.47467749690801L108.38790983337826,121.35556028360307L108.58739861064487,122.07766723368354L109.5610229414834,122.81472698927917L109.56400038592021,123.53294049908803L109.65034627458785,124.36392541881487L109.65630116346148,124.84396170696607L109.95106816270616,122.82562981118502L110.58824127218458,123.45824410998584L110.60610593880547,124.02326329610696L110.62397060542636,124.32256622751243L110.63588038317363,124.507603712193L110.63885782761044,125.03900884766233L110.98126393784418,125.57932115851514L111.66905360274845,126.0244505576048L111.96084315755633,126.87268085412846L111.99061760192447,127.2418106094444L112.01145971298217,127.8744998270395L112.06505371284486,128.47905255873286L112.36577560096316,129.2127881822837L112.62183582252925,127.5092535594415L112.89278326627942,127.99426731667792L112.99401637713115,128.6121529613388L113.04761037699382,128.48524091659982L113.89022715261248,125.32223039336496L114.09864826318953,124.74143873551523L114.44700926229689,125.02646202932476L114.48571603997549,125.54180735621165L114.75964092816247,126.2066674349893L114.8459868168301,126.55197485799792L114.9621071498659,127.0414304752172L116.0310097026825,127.55259172684619L116.10842325803969,128.00472005990338L116.17392703564961,128.3891904877352L116.2304984799491,126.62114359894146L116.30493459086948,126.79769363664464L116.35257370185852,127.68502657631213L116.71879936758677,128.24117232151778L116.9034009226693,128.90370065916142L117.52270936552684,129.33216353974086L117.57034847651587,128.74658726208395L117.71922069835664,127.15797389291046L117.79067936484019,127.48750733951448L117.93955158668095,127.92544806512134L118.34448403008778,128.39257442869751L118.58565702946981,128.66110715573106L118.58863447390662,128.6838800038474L119.09777747260199,128.72435225235114L119.11266469478608,129.2633688154396L119.19007825014327,130.03994894674221L119.37170236078899,126.7366452729641L119.61585280460781,127.35852418170147L119.82129647074805,128.17701257327883L119.94337169265746,128.5972178697133L120.07140180344052,128.723606712108L120.46442446910011,128.8547926185227L120.49717635790506,128.28244915418168L120.9199734679328,128.6322655228587L121.19985324499342,129.1447736843107L121.24153746710883,129.85452819490337L121.29513146697151,130.29432128007093L122.38785357528262,129.7104944156132L123.28406435076396,129.71571536873577L123.3942297949261,130.15053138262243L124.14752323744031,130.31414798409796L124.48099701436361,130.82654483384147L124.67453090275657,131.2374637743491L124.69537301381429,131.8967896473333L124.71919256930882,131.54290197527627L124.86210990227593,131.48375695584156L124.88890690220727,131.44501837989168L125.06457612397936,132.1167283819005L125.10328290165796,131.75682296942182L125.57074167823792,132.15389813412924L125.66899734465281,132.54237124902295L125.79405001099904,132.29760266880731L126.34785467624664,130.916194132098L126.66644123098585,130.33401750776588L126.8718848971261,129.60261294471974L127.00884734121958,129.55833963544126L127.15474211862352,130.23000784049103L127.32147900708517,130.8125998564665L127.71450167274476,131.2131799460745L127.73832122823927,126.61572215427594L128.03606567192077,127.24273322670616L128.07179500516256,126.76738707095174L128.13134389389884,127.50795365045887L128.48268233744304,127.74014365730784L128.56307333723703,127.0463089704223L128.56902822611067,127.74853993720677L128.83699822542403,128.31827510481264L129.04541933600106,125.29048211537045L129.14665244685278,126.05326650930394L129.2300208910836,126.95629061319448L129.63495333449046,127.30859164959992L129.90887822267743,128.03598370292153L130.1976903330485,127.19117665555925L130.22448733297983,127.50223585876896L130.26021666622162,127.80617486240723L130.31678811052112,128.47645481620776L130.36740466594696,129.3286866056509L130.52818666553497,129.52582190911014L130.56391599877676,128.9618271015094L130.63835210969714,129.5117974555058L130.74851755385927,127.21408259336445L131.05817177528806,127.6936169040888L131.11474321958752,125.35287572096836L131.27254777473874,126.14682346103908L131.4273748854531,122.57589856615127L132.08539010598926,122.44566163794829L132.14791643916237,123.18366672974034L132.31167588318718,123.82087861947898L132.5707135491901,122.92620043547488L132.5736909936269,123.70578328709425L132.6868338822259,124.67196394096507L132.79104443751442,125.44977408707221L133.33889421388838,126.15319522241992L133.62175143538582,126.84012310987879L134.327405766911,127.46183757094538L134.5120073219935,128.31963458841113L134.74127054362825,129.08928236037272L134.97648865413666,118.12762160754542L135.03901498730977,117.04514639759061L135.0628345428043,118.1993020212565L135.10749620935653,119.22313455594998L135.41715043078528,120.1489144118992L135.4231053196589,120.9231209185607L135.69107531897225,121.92443623559991L136.28060931746163,121.38968194187481L136.30145142851936,122.08188564830328L136.49796276134916,122.93195411011003L136.51284998353321,121.12859368396735L136.82250420496197,121.53492126534681L136.87312076038785,120.16623286053088L137.07260953765444,120.63215781212116L137.69489542494878,121.03934746057843L137.74253453593786,121.0931926171688L137.78124131361642,121.73815898317648L137.88545186890497,122.62878094480044L137.96286542426216,123.15205535877524L138.65660997804005,123.8928876761126L138.83525664424897,124.71885782656855L138.9245799773534,125.07684410470914L138.9811514216529,125.46841807493223L139.24614397652942,126.39701499638117L139.37417408731247,126.82247606831795L139.40097108724382,126.92161793627847L139.4932718647851,125.92261271049591L139.66298619768355,126.59562820381004L140.09769308545853,127.27970089054843L140.44307664012908,127.9087067087394L140.54133230654398,128.60368747982596L141.29462574905818,128.89959810017854L141.3958588599099,128.87376969602013L142.21465608003405,129.3697878104991L142.54812985695733,130.03318166710093L143.48900229899087,130.70797994607537L143.6527617430157,131.2701407878441L143.69742340956793,131.92281086746374L144.0041001865599,132.38807186333918L144.2244310748842,132.2258347851998L144.27207018587325,132.21441220196172L144.3048220746782,132.47850998674858L144.4060551855299,132.70341777877928L144.64425074047514,133.04987332301997L144.82587485112086,133.29003441784099L144.82885229555765,131.86798200331987L145.00154407289293,131.91598841366465L145.06109296162924,132.22388287639086L145.1891230724123,132.13614363508657L145.41838629404702,132.41527265789955L145.83820595963797,132.77163664420675L145.90966462612153,133.21604084956488L146.31459706952836,129.71220282356148L146.60043173546262,128.66512865773836L146.7761009572347,129.20758175830235L146.80885284603966,129.21644179296902L147.65444706609514,127.6070611039064L147.9849433985816,128.3372666198699L148.06831184281245,127.94779966184208L148.22016150909,128.71592115457312L148.50897361946107,129.37137266925947L148.6012743970023,129.05489433570222L148.61616161918639,128.07159051528524L148.66677817461226,128.30247111022499L148.93177072948882,128.71021124964895L149.75354539404975,129.54669840276378L150.32521472591824,128.66305048930033L150.36094405916003,128.95535102755127L150.79862839137184,129.7264669237689L150.82840283573998,129.67472038329825L150.84626750236086,130.31847233632934L150.85817728010812,130.13995674809703L150.9504780576494,130.9480105882634L150.95643294652302,131.40095668706266L150.99811716863846,131.48959054305297L151.01598183525934,131.49726247213567L151.23333527914684,131.68008720731677L151.96876405504014,132.29015765479784L152.23077916547987,132.18008987795776L152.30819272083707,132.25467787308042L152.57616272015042,132.72348005110072L152.6565537199444,132.62770371359792L152.8649748305215,133.0346743247645L153.0674410522249,132.9099559259011L153.31159149604372,131.90483878974948L153.45450882901088,132.19417497663295L153.5021479399999,129.05091871702774L154.1720729382833,129.04984062157178L154.44302038203344,129.69968328090914L154.8449753810035,129.79022512378538L154.86581749206118,130.00867869021928L155.22608826891582,129.6639745680054L155.29754693539937,130.01684341473654L155.36900560188292,130.2973924160938L155.55360715696548,129.92978080603433L155.8364643784629,129.94380060021112L156.16696071094935,130.53474529757702L156.22055471081205,131.0361076923548L156.8458180425432,131.3841125292057L157.1376075973511,131.80915222835378L157.5991114850574,130.0884377600898L157.6973671514723,129.76634591722063L157.74798370689814,129.75523626411055L157.86410403993395,129.79453721770437L158.63228470463224,128.51663711285366L159.21586381424797,128.83733061413528L159.34687136946783,128.90579802005476L159.45108192475635,129.52450119169987L159.54040525786084,129.78055882613899L159.6118639243444,129.41827291758256L159.70714214632247,130.20408820948796L159.92151814577315,130.8457162647066L160.00190914556714,131.49339513208528L160.0138189233144,131.80237237926275L160.1358941452238,129.79699011488378L160.20139792283376,130.53799917319523L160.71054092152914,129.5740978062749L160.72245069927638,130.07325709030738L160.761157476955,130.77011267772036L160.99935303190017,131.1757588355026L161.01126280964746,130.92714280486763L161.1184508093728,129.66080689761637L161.3774884753757,130.18322015587438L161.3983305864334,131.01959705251426L161.52933814165328,131.21118144756352L161.68714269680447,131.89046118917105L162.52380458354952,132.19608126421002L162.52678202798631,131.45791772518794L162.70245124975838,130.41072072596302L162.95255658245085,130.63931327012637L163.16991002633836,131.20130747011783L163.21159424845376,131.56532974848113L163.6522560251024,130.57976704541647L163.74157935820685,131.13958522590679L164.0690982462565,131.6727589965842L164.68245180024041,132.22834763942504L164.70924880017174,132.45938664394487L164.86705335532295,132.35784107702608L165.26900835429296,132.687415604073L165.37619635401833,133.26234217681318L165.71860246425206,133.20958386078973L166.25751990731555,133.3527009810355L166.3617304626041,131.7721952431396L166.80834712812634,131.9710063973631L166.8351441280577,132.5940929397147L166.9155351278517,132.95678269094205L167.00485846095614,132.08340532857645L167.10609157180787,132.54799297825022L167.24007657146453,132.43790396639687L167.3472645711899,133.0036437842023L167.68371579254998,133.2421528710759L167.73135490353903,133.3647895219865L167.9665730140474,134.00870072564516L168.2226332356135,133.9479394344188L168.80918978966608,134.34779070712324L170.3038668969472,134.44729041843888L170.43189700773027,134.89396367093133L170.6105436739392,135.01861660258047L170.67009256267548,133.69421064731654L170.74750611803267,133.90834414754627L171.01547611734603,133.19950956710926L171.17030322806042,133.44173043189306L171.3489498942693,132.30991291711183L171.45613789399465,132.56872551654658L171.61394244914584,132.28085559857232L171.6258522268931,132.45127918645335L171.66455900457171,131.90911584202013L171.70624322668712,131.88187377079282L171.77770189317067,131.80813533670738L171.81343122641246,132.53563261513833L171.90870944839054,132.9594399629754L171.92955155944824,133.2818403573872L171.97123578156365,132.4664915906449L172.30768700292376,132.74646927531313L172.34043889172872,133.27818300846417L172.3583035583496,133.5951883683949L172.48037878025903,132.53000386573956L172.4922885580063,132.6233819149855L172.53397278012167,133.13473083071813L172.60245400216843,133.78907964302826L172.91806311247083,132.11896429554946L173.2306947783364,132.4900731871344L173.27833388932544,132.6474883767345L173.36765722242993,132.8043014157816L174.22218377579586,132.98350301986767L174.24600333129035,133.06780369146458L174.62711621920266,132.0698353064008L175.2047404399448,132.38670516637205L175.61562777222528,131.5727182262937L176.47908665890165,131.85698701510506L176.63986865848963,132.3039158718865L176.71430476941003,132.9036861433062L177.08946276844873,133.23197566453695L177.33063576783073,131.84675194739611L177.51225987847647,132.14740724901844L177.56883132277596,132.46789068283786L177.74450054454803,132.99781319369743L178.66453087552387,133.57485408270387L178.81340309736464,132.07353775793365L179.09030542998846,132.6198277878545L179.1379445409775,132.94299354190198L179.22726787408192,132.9126045061564L179.44462131796945,133.34238403522414L179.78404998376635,131.95605083588816L180.04606509420606,132.42684851567935L180.2485313159095,132.93240798878034L180.51947875965968,132.59863509212477L180.5254336485333,133.1251209781672L180.5432983151542,133.36659578382046L181.08519320265452,133.32571673115933L181.5615843125449,133.60134472445876L181.66877231227028,133.7277221469309L182.02308820025127,129.9360869766593L182.29999053287506,130.44796540648935L182.4637499768999,130.78825405680536L182.64239664310878,131.45781141510813L182.92525386460622,126.65894843951327L183.85719397332934,126.70006586925578L183.98820152854918,127.45297236956345L184.00011130629645,128.03113583249765L184.02393086179097,128.18802613354868L184.4645926384396,129.0188882734445L184.6045325269699,127.21985681026652L184.8010438597997,125.91551249188035L184.80699874867335,126.34863408735197L185.30720941405826,127.05784549175661L185.4709688580831,127.24919110487605L185.5543373023139,127.28645762059679L185.6525929687288,127.99275022238116L185.72405163521236,128.27417848891287L185.7538260795805,128.3761430551243L186.12005174530879,128.68991569991155L186.17364574517146,129.08391757963477L186.51009696653153,129.8433130344002L186.63217218844096,130.19125264713006L186.98946552085877,130.82996604285287L187.29911974228753,130.39971928873297L187.3973754087024,130.6438429468411L187.58793185265858,129.4433438546985L187.61770629702676,130.24581286954216L187.8529244075351,130.60338351091514L187.89758607408734,131.067776658002L188.0077515182495,129.62993184184893L188.77295473851098,128.47937850341376L188.7967742940055,128.62571561805692L188.9724435157776,127.76749403673513L189.01412773789298,128.54523921863495L189.5083835144043,129.30871178254154L189.68107529173957,127.99736699293545L189.70191740279728,128.3203012155369L189.7138271805445,128.6640179801611L189.7257369582918,126.37383002837464L190.1455566238827,125.91474585701744L190.24381229029763,126.46995733611132L190.27656417910256,127.39432398607285L190.62492517820996,126.57783734992842L190.7708199556139,127.39975870749447L190.81548162216612,125.49025870440805L190.87800795533923,125.36015301397748L190.92266962189143,125.74948562849215L191.27400806543562,125.90320067462235L191.6521435089111,126.26694378343254L191.943933063719,126.72513692862941L192.31015872944727,127.09612391876468L192.4173467291726,126.9930466244621L192.48285050678254,127.34763967206982L192.6138580620024,127.02624478624776L192.6972265062332,127.75379250112897L192.95924161667295,128.16557380246635L193.34630939345888,128.95027125718002L193.48029439311557,129.61390684308364L194.10853516928356,130.0054425144429L194.42414427958593,130.06024245638793L194.4330766128964,130.88634324520208L194.51049016825357,130.90848967805476L194.60279094579485,129.09012524969737L195.13575349998473,129.39073838148266L195.15064072216882,129.82711126174803L195.17446027766334,130.5221464746307L195.65680627642737,130.88168062702968L195.81461083157856,131.18791349329615L195.9009567202462,131.7261333387012L196.12426505300735,132.4005488440917L196.40116738563114,132.72207014350732L196.41009971894158,131.70683567168214L196.78228027354348,131.7083356533659L197.41647593858505,128.2942967177201L197.51473160499998,128.41019120938446L197.6397842713462,129.03585330758887L197.7975888264974,128.55389738793733L198.0208971592585,129.38029131956435L198.06258138137395,129.4824761066306L198.08342349243162,129.90718656402794L198.32161904737686,129.78582944899568L198.85458160156674,130.22402019993055L198.95283726798164,130.47621142293244L199.06002526770698,130.2628485514624L199.48579982217151,130.83748448908378L199.59596526633368,131.38370020508336L200.1944315981335,132.07195717728496L200.26589026461707,132.56043584848194L200.37903315321606,132.41815725256987L200.39689781983694,132.89423412221788L200.8851987074746,132.63919102583262L200.92986037402682,133.1472403743884L201.03109348487854,133.87368704929077L201.7516350385878,128.1724341771344L202.07915392663742,128.9183132267941L202.73419170273675,129.15871476192024L203.34456781228383,128.11251647518682L203.4964174785614,128.04667034456014L203.776297255622,128.86877375813785L204.12168081029256,128.14240166339874L204.2854402543174,128.37712839447323L204.37476358742185,129.16222935208373L204.3866733651691,129.3381550472219L204.60700425349341,129.56320192991382L204.6873952532874,130.2465292144539L204.73801180871328,130.35013482887146L204.7826734752655,131.05865522578242L204.81244791963366,131.82255450047398L205.0625532523261,132.37863254814283L205.48535036235384,132.811800745979L205.5329894733429,132.70278160123587L205.55085413996377,133.2496353071104L206.2297114715576,133.86194415886706L206.36965136008794,133.11759815325132L206.72992213694255,133.64191065746627L207.1586741358439,129.6284337602624L207.301591468811,130.28224049586854L207.34923057980006,130.73260566111895L207.43855391290452,131.3633100439638L207.58444869030845,131.63951639087813L207.63804269017112,132.37303561148792L207.67972691228655,132.9886713186089L208.01022324477302,133.49477912603322L208.09061424456704,133.9329542761279L208.44493013254802,133.60148348571354L208.6771707986196,133.74027934965034L208.9540731312434,134.04382109800048L208.97193779786429,133.9514380924196L209.0374415754742,134.0910465381737L209.30541157478757,134.03666655559806L209.6061334629059,134.6220797948343L209.83539668454063,132.98898835857406L209.91876512877147,133.40361856072195L210.19566746139526,133.88054641280007L210.3207201277415,134.4735023926637L210.41897579415638,135.09305470613606L210.61250968254936,135.56839970269584L211.0144646815194,135.7918014093844L211.4640587914785,135.82240645409902L211.76180323515996,136.39912235414198L212.00893112341564,136.57762638419473L212.2203296784295,135.38535821292945L212.50914178880058,135.4799904642183L212.54487112204234,134.6335889754825L212.62823956627315,134.96774634268434L212.70267567719353,135.23919180298765L212.98851034312779,135.8197766048316L213.42321723090276,136.0890248870554L213.62270600816936,136.51899728369952L213.75669100782608,136.4305106891586L214.78986422740087,136.45992498386593L214.86727778275807,136.86461947714537L215.02805978234608,137.03971726375397L215.51933811442058,135.87409965432727L215.91236078008015,136.2594687873505L216.00466155762143,133.61724293783942L216.02848111311596,133.9822396919298L216.97828588845996,132.15375783125234L217.15395511023203,131.73781892346238L217.23732355446288,131.0255703088746L217.4249025539822,130.29862487946951L218.00848166359796,130.09085512990475L218.41936899587841,129.71466942058024L218.62779010645548,129.8117772828126L218.6307675508923,129.87274436177842L218.88087288358477,130.4166337936241L219.18159477170306,130.89024623468714L219.3423767712911,130.84286062725357L219.35130910460154,131.35026748816807L219.6788279926512,130.5205804268124L219.83365510336557,131.13558199187702L219.92893332534368,131.7240901002903L219.98252732520632,129.82531368213273L220.2951589910719,130.26009144412694L220.57206132369572,130.61708377099822L220.62267787912157,127.7811649352362L220.71497865666285,128.40126354511338L220.8459862118827,125.97365847743461L220.92339976723989,126.87048777772068L221.00081332259708,127.41869009099622L221.8523624315262,127.75680615714346L221.88213687589433,128.68258790573634L221.88809176476795,129.64137463022453L222.37639265240563,129.30922413212426L222.97188153976865,128.41791672345119L222.97783642864226,129.05917695446885L223.2755808723238,129.36245757580576L223.30833276112875,129.7479447081046L223.39170120535957,129.37280972322174L223.46911476071674,129.70807130217128L224.03780664814843,130.3761575085017L224.12415253681607,130.93881398381558L224.17774653667874,130.63958974636623L224.350438314014,130.99034358618493L224.4248744249344,131.4685393440277L224.6213857577642,131.32696282879368L224.64818275769554,132.15313662007566L224.74048353523676,131.36111930638327L224.8030098684099,132.17159488446777L224.87744597933028,132.35706573787795L225.0977768676546,129.69833960238083L225.22282953400082,127.16205173964228L225.41934086683062,127.56089012698804L225.67837853283353,127.7252141656032L226.00887486532,128.0558173636947L226.1309500872294,127.68356226649536L226.4048749754164,128.2896170216237L226.43167197534774,127.83302113772913L227.17305564011468,127.10356745293643L227.87573252720304,127.87643994923548L228.21218374856315,128.29117558730155L228.62902596971725,128.2727299720091L229.10839452404446,128.72533993927553L229.19176296827527,129.21583694255798L229.2155825237698,129.79641221654228L229.32574796793196,130.160145523181L230.00162785508897,130.76770343980462L230.06415418826208,131.1922536024251L230.57329718695746,131.67771879524975L230.67453029780918,131.00062400856334L230.79065063084497,131.7186428234273L231.38018462933434,131.36595525641113L232.46397440433503,129.39837602912775L233.02373395845623,129.65982535474248L233.02671140289308,130.33391979090584L233.0773279583189,130.8428258845133L233.14878662480248,130.93220835992278L233.1666512914234,130.47173474885946L233.25299718009103,130.33737734993002L233.36614006869,130.35923481094778L233.51798973496753,130.6749476052261L233.7651176232232,131.0873489345826L233.99735828929477,131.81449697108073L234.2980801774131,132.4362019734971L234.66430584314134,132.50478531219392L235.0067119533751,133.0112050333906L235.18238117514716,133.117100734934L235.72725350708433,133.61007996837586L235.73023095152112,134.1138444295388L235.76893772919973,133.81209089013976L236.18875739479063,134.105329539698L236.3376296166314,133.99301811537177L236.5728477271398,133.89760601011076L236.6353740603129,133.4626265418372L237.06710350365108,133.95831241177552L237.1891787255605,134.5204237960939L237.2695697253545,134.8295052786972L237.35889305845896,132.65512444524484L237.59411116896734,133.3290348494507L237.86803605715434,133.5374905376855L237.94247216807472,133.93357151104578L238.07050227885776,134.1606107562286L238.44863772233327,134.4754321649794L238.57666783311635,134.92089588747925L239.46990116416083,135.47222507358106L239.5592244972653,135.70500481692682L239.57113427501255,135.46695993045412L239.6425929414961,136.03271446219597L239.6634350525538,136.3668410082417L239.77062305227918,136.92042847832766L239.8391042743259,137.32269968708053L239.92247271855672,137.60904001614867L240.06241260708703,137.56142415958038L240.14875849575466,137.92687895001194L240.369089384079,136.49104931071992L240.91991660488978,136.57617197125805L241.16108960427178,136.33793614298324L241.9828642688327,136.56117454094408L242.10791693517896,136.34738999056577L242.44734560097586,136.79624267002364L242.5307140452067,136.98036839645744L242.56346593401167,136.21800261960556L242.82250360001458,136.55199750787148L242.89991715537178,136.97867862177642L243.2453007100423,137.36127172634647L243.46265415392983,137.1279472680747L243.70382715331186,137.54494588647626L243.8705640417735,137.99809360807296L243.93011293050978,138.47863006011292L244.02241370805103,138.87314560302406L244.08791748566097,138.0565157104253L244.18617315207587,138.1564700798668L244.26060926299624,137.92647964663277L244.2695415963067,138.0951522538829L244.56430859555138,137.36727978295875L244.73700037288665,137.5239701379523L244.96924103895824,137.98388743971736L245.03176737213136,137.48570595673277L245.03474481656815,137.65053024642162L245.0406997054418,136.2320846543538L245.13895537185667,136.80126194544954L245.3443990379969,135.6997184329395L245.35333137130738,136.02848636172467L245.47242914877998,136.41729159576653L245.81185781457688,136.78788972492657L245.8326999256346,137.21625565403113L246.30313614665138,137.63332864393684L246.74975281217363,137.73282375972977L246.97306114493477,138.2366536137833L247.1546852555805,136.08942535570876L247.58641469891867,136.01682778155953L247.66085080983902,136.35002390047939L248.07471558655632,136.46959511355976L248.7029563627243,136.44968798057525L248.90840002886452,136.7122012529659" fill="none" class="style-scope vz-line-chart2"></path></g></g></g></g><g opacity="0.2"><g><g><g class="style-scope vz-line-chart2"><path style="fill: none;" stroke="rgb(255, 112, 67)" stroke-width="2px" d="M30.53369269953834,-127.72162794602593L30.58728669940101,22.27467642343609L30.691497254689533,4.59466501188507L30.69745214356316,-125.16966296325239L31.370354586283366,-42.860891106303484L31.49838469706641,47.74526859622327L31.51922680812412,24.673259398454633L31.66214414109124,4.528858826281265L31.700850918769838,19.39229919052761L31.900339696036443,-504.7502395741194L31.924159251530963,18.18775867897773L32.162354806476166,30.304564334649825L32.18021947309706,26.633838943726886L32.26358791732788,-2.525235515783777L32.79357302708096,-143.10220768404122L32.94840013779534,87.10667769836417L33.06154302639432,66.34705006896826L33.287828803592255,84.02407091813825L33.52900180297428,63.589979471808064L33.692761246999105,87.54448083640364L33.70169358030955,89.71274216180882L33.74337780242496,76.5606079537906L33.75528758017222,98.9302286688203L33.898204913139345,70.16159871860383L33.91904702419705,101.30566068517552L34.05005457941691,108.84964782227244L34.395438134087456,99.32657142354957L34.809302910804746,91.72436155926539L34.9373330215878,110.84545453480669L34.946265354898244,107.86776607589769L35.26485190963745,75.35025898274316L35.36310757605235,-16.17275327424477L35.482205353524954,107.1892330261012L35.83652124150594,42.89372690109187L36.01516790771484,98.30947632313398L36.32184468470679,105.39326909069189L36.50942368422614,78.43982762643344L36.64340868388282,-140.98660235769603L36.88755912770166,96.40202242644112L37.027499016231964,107.85254045287465L37.07811557165782,92.1420664605178L37.08407046053145,97.54575023183634L37.173393793635896,72.29746804039L37.17637123807271,112.60580798606685L37.212100571314494,68.00199828286563L37.22698779349857,78.6747836117458L37.31333368216621,35.74363067196842L37.768882680998914,35.93171149127602L37.93264212502373,114.8857215781042L38.60852201218075,98.10705047365222L38.81992056719462,-60.04562947318098L39.18614623292287,61.972050690618104L39.391589899063106,74.32359132006404L39.43922901005215,117.5328596546666L39.44220645448897,121.10922347854378L39.61489823182424,115.7844235599618L40.13595100826687,36.877488930845175L40.54683834054735,-102.67182102280975L40.55279322942098,115.71603084869587L40.70166545126173,101.45371078956295L40.9130640062756,-60.01225673085966L41.1304174501631,91.12868020998353L41.151259561220805,135.65796931168194L41.46984611596002,98.25469999462602L41.55321456019083,59.1486282856183L41.79141011513604,-63.08659629822159L41.976011670218575,69.04284521706495L42.267801225026446,-6.699784335277968L42.374989224751786,132.84925280725906L42.62807200188107,109.83901288121037L42.87519989013672,103.23317137899197L43.1491247783237,87.0363545894412L43.19974133374956,94.89625700106625L43.66124522145589,23.192993179340164L43.67315499920315,127.57494711862559L43.696974554697675,121.43829239292101L44.03044833162095,133.87445972180055L44.072132553736374,137.53203492617968L44.34605744192335,134.3070138357994L44.57532066355811,120.54938743817078L44.97727566252814,136.16979577526246L45.060644106758964,130.42579912754286L45.68888488292694,126.88217954442425L45.730569105042356,132.59372893564023L45.91219321568807,123.33739274411766L46.296283548037216,124.51851293919162L46.68335132482317,128.06322376678185L46.81435888004303,54.30414514649941L47.06744165717231,133.69147598110078L47.234178545633945,49.72446836361851L47.255020656691656,130.80935429278372L47.362208656417,108.91239783269472L47.60933654467265,41.74780970014288L48.234599876403806,110.02679326295775L48.29117132070329,127.89750655253144L48.49959243128035,111.75408822267796L48.75863009728326,111.04271078626951L49.34816409577263,131.94814732491972L49.43450998444027,139.49964367436945L49.72034465037452,124.4441183833319L49.7560739836163,125.54520477500776L50.18184853808085,114.70296575555355L50.515322315004134,131.72799565938504L50.955984091652766,110.44487802779206L51.078059313562186,130.4378269898675L51.753939200719195,119.14348469516844L51.98617986679077,136.7846429689031L51.99511220010122,113.71765833033125L52.03977386665345,57.063999107723234L52.13802953306834,53.04854406293349L52.96278164206611,133.787975144121L52.992556086434256,111.74338988288993L53.09676664172279,146.19985192359155L53.56720286273956,83.04859505307621L53.7905111955007,88.19846088558913L54.12993986129761,143.95358561164608L54.25201508320703,87.80054342364768L54.674812193234764,144.0138751420493L54.689699415418836,123.65356010993196L54.71649641535017,131.85757403377693L55.0767671922048,122.98088731921239L55.10654163657294,135.98851106076532L55.38344396919674,103.01027433575186L56.20819607819451,139.7945835725669L56.29454196686215,133.47931871731217L56.357068300035266,145.29426232433332L56.37791041109297,111.25677772788342L56.55060218842824,112.03726961636337L57.34557985305786,133.92854538925053L57.964888295915394,137.10007650734332L58.22094851748149,129.13892836457714L58.25965529516008,135.56082783387782L58.59610651652019,126.91957884071357L58.64970051638285,137.39362817681422L59.081429959721035,136.17353397823877L59.2719864036772,106.94691114060556L59.79899406899346,102.4649905238704L60.37066340086196,129.99227463475756L60.391505511919654,137.38646256833772L60.7368890665902,135.78739746729372L60.97508462153541,134.50825520156673L61.10311473231845,-120.82065316051387L61.35619750944774,116.20932860274358L61.49613739797804,117.51188082503062L61.6658517308765,133.68878930958527L61.80281417496999,18.42027663075541L61.80579161940681,132.38828144402984L61.87129539701674,138.37472256958287L62.07971650759379,146.12595291704093L62.23454361830817,126.81087224349366L62.24347595161862,128.57943765473314L62.356618840217585,89.390313953504L62.425100062264335,129.28001660550018L62.448919617758854,128.37160047586215L62.585882061852345,65.5917500425779L62.83003250567118,69.07503002236658L62.88660394997067,129.51973815211255L63.11586717160543,99.22079668252077L63.77388239214155,144.82528101948424L63.931686947292754,88.52094434677859L63.991235836029055,133.80724458763848L64.08353661357032,121.86933395920292L64.11033361350165,136.28454565673965L64.21156672435336,140.81044066303605L64.4557171681722,133.3480033303595L64.56588261233435,140.3448107909708L64.78621350065868,91.76322505699761L65.41147683238984,88.90936521917287L65.42636405457391,143.92765128891912L65.53355205429925,97.28979124375098L65.91466494221157,141.4933680438139L65.99207849756877,62.34569832298233L66.36723649660746,146.49422202641617L67.501642827034,130.95200688100306L68.1149963810179,130.77630961446494L68.29959793610043,125.11583115518089L68.531838602172,125.52706801562536L68.58245515759786,141.87566965923452L68.66284615739185,146.19896960409L68.72537249056498,125.16493370309757L68.76110182380675,144.7932844193209L68.80576349035898,126.50247136127632L69.6781547103458,106.50367940665042L69.98185404290092,142.74442803092364L70.10690670924716,43.68736552281041L70.25875637552474,145.25725152488909L70.32723759757147,83.11303372978524L70.50290681934356,144.0919526480007L70.89295204056633,103.3843156449191L71.11328292889065,141.19676019916145L71.6968620385064,123.41732294835705L72.11668170409732,141.66083953715156L72.33403514798484,149.343281769888L72.411448703342,134.57100348533635L72.46504270320469,84.39613693667971L72.64071192497677,95.1214263191871L72.78958414681753,141.7296794514525L73.3404113676283,123.79465871077086L73.35827603424919,144.60732392946127L73.44759936735365,116.60471133860226L73.47439636728498,130.72576703824234L73.50417081165314,139.45988231726187L73.77809569984012,134.76278106795678L73.80489269977146,136.92620776595615L73.86741903294457,117.00009062115564L74.05797547690074,116.87250825722128L74.11454692120022,135.2820148713841L74.7040809196896,102.7857197059726L74.97205091900297,140.50280641459304L75.22811114056906,124.62449142523252L75.40080291790433,131.40551910480616L75.84444213898978,119.67564940025369L75.8503970278634,144.0693973844999L75.94567524984149,146.49039576415498L76.03797602738274,115.89742606896229L76.63941980361938,142.15553069988374L76.71087847010294,128.6347630587822L77.3927132461336,121.36063791686766L77.69641257868872,138.52312145780456L77.75893891186183,130.22651578587488L78.15493902195824,145.76834243444287L78.36931502140894,125.74135251547253L78.43481879901887,124.53077907958125L78.6223977985382,115.00386951198661L78.91716479778289,131.56563851118167L79.4888341296514,133.58432337126132L79.82230790657468,152.66139706427262L79.9652252395418,145.25747598973294L80.09027790588803,132.47474530187765L80.58751112683615,123.36962934899861L80.6798119043774,145.05343572002818L81.10260901440515,108.46616862974797L81.26041356955633,132.87039739554893L81.33484968047672,131.28025045541602L81.40035345808666,145.04359034664674L81.71298512395224,123.37608357658539L82.00775212319692,113.63143275054841L82.04943634531233,135.3562125888423L82.13578223397997,122.94021774281356L82.15960178947448,136.00060108258515L82.24594767814212,140.12788796588217L82.5407146773868,140.65619014900068L83.2285043422911,148.9743919288869L83.42203823068407,135.60113135991594L83.56197811921439,131.01031248751727L84.15448956214057,103.9316023738687L84.31527156172858,145.21456349154835L84.71127167182499,113.33910700445541L84.7142491162618,137.85252410356424L85.13109133741591,134.14449092894213L85.88438477993012,109.03050087360836L86.22083600129022,137.85165041732589L86.691272222307,122.2437758517838L86.8490767774582,147.902441937268L87.15277611001332,136.88955093030415L87.92691166358523,125.80097383130217L88.25145310719807,-128.2661174976907L88.2931373293135,81.13924183847394L88.52240055094825,148.80774663883983L88.86480666118197,131.4884640445636L89.13873154936897,142.53332057194314L89.30844588226742,107.67828666794767L89.42754365974002,134.24374237627836L89.4811376596027,133.5798340743845L89.50793465953403,141.30601241861714L89.73422043673197,122.98323211350422L90.04982954703436,132.77538315380338L90.0587618803448,143.6490455247428L90.07364910252889,125.88548311835594L90.28504765754276,140.81192731096334L90.46369432375165,132.12280514656558L90.63340865665012,133.3288029529478L90.7673936563068,146.2170027643137L90.92817565589482,144.1513529522918L90.93115310033163,134.4094837636658L90.99665687794155,115.9880269865474L91.04429598893059,134.43452368032266L91.43731865459017,140.20714650224267L91.64276232073043,116.5699089278909L91.65169465404087,139.10071439397808L91.7975894314448,141.1987493030084L91.86904809792836,129.17286399566072L92.53897309621175,150.29920588372508L92.72952954016792,66.6010682994807L92.9230634285609,81.26750450355037L92.99154465060764,127.81301107869882L93.2416499833001,128.51290972832373L93.25058231661055,131.93021776385467L93.26546953879462,139.02281645990178L93.46495831606123,133.13157778123258L93.51855231592391,-39.528575820566914L93.85798098172081,113.00506878376603L94.3284172027376,112.49670080543332L94.66784586853451,130.99947946882293L94.7452594238917,91.76151912418442L94.80778575706482,149.51833844829486L94.82565042368572,137.8638043252936L95.29608664470248,136.97876879912067L96.00769586510128,132.44593092253896L96.14763575363159,40.26888336348091L96.26077864223056,145.1102477720045L96.34414708646138,137.0400805078897L96.6835757522583,144.88607300580713L96.89795175170897,146.37160033553073L97.55596697224512,148.24078642965384L97.77927530500624,116.23800830317597L98.04724530431959,150.49841238935036L98.66655374717713,116.66737501639227L98.69632819154526,116.11106134741496L98.79756130239699,120.68446002127887L98.82733574676514,99.45495150100587L98.90474930212234,105.25012613312138L99.03873430177902,122.93805252039681L99.10721552382574,136.93445598564102L99.33052385658688,144.25211522069233L99.52703518941668,69.0546969608198L99.86348641077677,112.7014334628487L100.25055418756273,132.97434879138467L100.2833060763677,115.3732281391808L100.342854965104,142.57084418722292L101.04850929662916,18.549720326240987L101.4683289622201,138.18109574197973L101.58444929525587,143.91246710555956L101.6707951839235,142.47177231176175L101.92983284992641,124.14709959534996L102.07275018289353,144.47447527495987L102.07870507176717,68.56738723814472L102.19184796036615,130.6289743442725L102.26032918241289,-41.143962969063466L102.89154740301768,139.80517485989094L103.08210384697385,147.19624445879435L103.37389340178171,100.24451522248232L103.39771295727624,122.98093221218116L103.91578828928206,132.9048924620895L104.01404395569695,75.95594801075507L104.23437484402126,134.57166997325731L104.35049517705706,131.17911350339153L104.60655539862314,141.07828247462385L104.89834495343102,146.52473197865217L104.96384873104095,139.93773171009533L105.19906684154935,135.77885571665922L105.37473606332144,145.13390291324015L105.71416472911835,121.24457232607503L105.75882639567057,131.0806459563561L105.99404450617895,151.52658223983056L106.25308217218186,108.95023915206114L106.62824017122057,118.51755584485261L106.73245072650909,122.39517911560768L106.9527816148334,148.83286425486574L107.38451105817158,125.98116730132773L107.45894716909196,90.42747275765375L107.64950361304813,108.35769685728778L107.69118783516355,137.98646572918986L108.0574135008918,139.77559902673582L108.09016538969675,71.31242651967501L108.38790983337826,147.16795843516502L108.58739861064487,143.23748060029578L109.5610229414834,144.41270427658728L109.56400038592021,144.5786718554712L109.65034627458785,148.7141888286003L109.65630116346148,138.91041655267435L109.95106816270616,63.6826454659565L110.58824127218458,141.99568237797348L110.60610593880547,140.57997052129525L110.62397060542636,133.09301472106057L110.63588038317363,129.92974218256853L110.63885782761044,140.61073256481743L110.98126393784418,141.41205306415327L111.66905360274845,139.0680461259359L111.96084315755633,151.72831656492804L111.99061760192447,138.05839635172526L112.01145971298217,146.4141536899652L112.06505371284486,146.19422648927434L112.36577560096316,150.7134030901293L112.62183582252925,77.59066676226435L112.89278326627942,142.20660163181566L112.99401637713115,146.7180272889475L113.04761037699382,124.76634284662461L113.89022715261248,32.63666427622772L114.09864826318953,107.72252350871095L114.44700926229689,133.37848910945849L114.48571603997549,140.6429536298246L114.75964092816247,145.68904073176623L114.8459868168301,136.67050777576753L114.9621071498659,141.38393452583048L116.0310097026825,142.5311363563473L116.10842325803969,141.25342548566297L116.17392703564961,139.6553186768369L116.2304984799491,74.81210279298L116.30493459086948,131.97113597823437L116.35257370185852,153.68652800609775L116.71879936758677,144.53790213321895L116.9034009226693,148.31775887791247L117.52270936552684,141.88740571726217L117.57034847651587,111.58745242922045L117.71922069835664,80.60685266854485L117.79067936484019,137.1438229787554L117.93955158668095,140.75842179880206L118.34448403008778,142.0807752736212L118.58565702946981,136.52992026411152L118.58863447390662,129.35119268082974L119.09777747260199,129.91031043370242L119.11266469478608,145.0581702015806L119.19007825014327,152.79607597057765L119.37170236078899,29.93993673570276L119.61585280460781,145.5814426455444L119.82129647074805,152.16117974975032L119.94337169265746,140.9104950038522L120.07140180344052,132.42717947481495L120.46442446910011,132.6989338812962L120.49717635790506,111.51106531620847L120.9199734679328,138.8829368758302L121.19985324499342,144.162804112633L121.24153746710883,150.65247038161584L121.29513146697151,143.18158194756862L122.38785357528262,112.60261022536842L123.28406435076396,129.86870501157003L123.3942297949261,142.8919497796017L124.14752323744031,135.10860714625315L124.48099701436361,145.84131595517582L124.67453090275657,143.27862673282462L124.69537301381429,151.2170245003411L124.71919256930882,121.17292660122605L124.86210990227593,129.7506295970987L124.88890690220727,130.30986130904597L125.06457612397936,151.79985696396568L125.10328290165796,121.21050892269574L125.57074167823792,143.78939821163908L125.66899734465281,143.9258054972417L125.79405001099904,125.12514471954768L126.34785467624664,90.43675524227292L126.66644123098585,113.27448530256603L126.8718848971261,108.1702514461535L127.00884734121958,128.26099801403814L127.15474211862352,149.9119142421606L127.32147900708517,147.8843051778856L127.71450167274476,142.95138634359836L127.73832122823927,-8.103677254601592L128.03606567192077,145.61605167115948L128.07179500516256,112.83830867131809L128.13134389389884,149.20879193204757L128.48268233744304,134.54401245119072L128.56307333723703,106.71485593173671L128.56902822611067,148.3260295440817L128.83699822542403,145.0132375198014L129.04541933600106,36.56699534562216L129.14665244685278,148.40515512818857L129.2300208910836,153.41762689311227L129.63495333449046,137.63207718042727L129.90887822267743,149.35077026240907L130.1976903330485,102.43577556111808L130.22448733297983,136.6172111885763L130.26021666622162,136.71250687470297L130.31678811052112,148.11768472933312L130.36740466594696,154.3016557807932L130.52818666553497,135.30248261183718L130.56391599877676,112.43507311923025L130.63835210969714,145.62759261743827L130.74851755385927,59.884085619813035L131.05817177528806,141.74542307026906L131.11474321958752,56.762076626229685L131.27254777473874,149.41189462936615L131.4273748854531,17.93699346204832L132.08539010598926,118.62932552386461L132.14791643916237,144.8094493413828L132.31167588318718,142.4931154651058L132.5707135491901,96.70942185012441L132.5736909936269,146.54992038743652L132.6868338822259,152.9839815346418L132.79104443751442,148.24196573341032L133.33889421388838,146.76556376291524L133.62175143538582,146.96918963598523L134.327405766911,145.67995335889594L134.5120073219935,153.4556840440593L134.74127054362825,151.6422921401783L134.97648865413666,-203.0822252407608L135.03901498730977,85.32534541746804L135.0628345428043,152.01955624650736L135.10749620935653,149.2245277809272L135.41715043078528,147.27706734245118L135.4231053196589,143.60971583079643L135.69107531897225,151.266007045899L136.28060931746163,105.7197618393229L136.30145142851936,142.36555036769792L136.49796276134916,147.8415342652179L136.51284998353321,68.28467204067344L136.82250420496197,133.44154991735684L136.87312076038785,80.0595175933212L137.07260953765444,134.2851699531883L137.69489542494878,132.9712373633185L137.74253453593786,122.67101878224682L137.78124131361642,140.63762690641497L137.88545186890497,148.72670188031813L137.96286542426216,138.48558057599837L138.65660997804005,145.60151843584708L138.83525664424897,148.922285005368L138.9245799773534,135.56692637101975L138.9811514216529,136.94272147185234L139.24614397652942,153.6077175360986L139.37417408731247,139.28977422533538L139.40097108724382,129.8267749787404L139.4932718647851,96.6487334629602L139.66298619768355,146.31702084542428L140.09769308545853,147.3251028190333L140.44307664012908,146.34048260156368L140.54133230654398,148.96872937153782L141.29462574905818,137.5706756857207L141.3958588599099,128.11691921073407L142.21465608003405,143.90462119594096L142.54812985695733,149.4726313628044L143.48900229899087,150.48161378576776L143.6527617430157,147.74315650411998L143.69742340956793,151.04802146610737L144.0041001865599,146.02162856423388L144.2244310748842,127.4717968896171L144.27207018587325,131.87969590746386L144.3048220746782,140.21737519251127L144.4060551855299,139.2938974718515L144.64425074047514,143.20207040785343L144.82587485112086,140.3274821050262L144.82885229555765,90.19753787823288L145.00154407289293,133.32272168233231L145.06109296162924,141.24612347162753L145.1891230724123,129.56511803692675L145.41838629404702,140.59459872250315L145.83820595963797,143.214181149505L145.90966462612153,146.23843052363736L146.31459706952836,27.039132665767482L146.60043173546262,97.98268313694275L146.7761009572347,145.1031011567071L146.80885284603966,129.4760676534168L147.65444706609514,80.44733068398448L147.9849433985816,149.73450068289338L148.06831184281245,116.5352377427806L148.22016150909,151.22420823867037L148.50897361946107,148.57808802384216L148.6012743970023,119.78112025041696L148.61616161918639,99.25780920861763L148.66677817461226,135.06797210290722L148.93177072948882,140.65823277907964L149.75354539404975,154.05830653697382L150.32521472591824,102.7694891711102L150.36094405916003,137.52064247202838L150.79862839137184,152.32249917971407L150.82840283573998,128.15838995396012L150.84626750236086,149.18235515340095L150.85817728010812,124.90890910221172L150.9504780576494,154.62643655332676L150.95643294652302,144.67364983751122L150.99811716863846,134.08683109051714L151.01598183525934,131.7220732408129L151.23333527914684,137.0374059229427L151.96876405504014,150.16707033676605L152.23077916547987,128.9547705000788L152.30819272083707,134.4403321398202L152.57616272015042,146.46080439112606L152.6565537199444,129.82116681094965L152.8649748305215,144.9601464042749L153.0674410522249,129.25532892598287L153.31159149604372,102.4518610571583L153.45450882901088,140.6726019823908L153.5021479399999,36.94398577750695L154.1720729382833,129.01824915791724L154.44302038203344,148.7420423257421L154.8449753810035,132.44337547662445L154.86581749206118,136.41003013771038L155.22608826891582,119.56309927424616L155.29754693539937,140.35696987889645L155.36900560188292,138.51832827006223L155.55360715696548,119.15764670016222L155.8364643784629,130.3546230522133L156.16696071094935,147.85121560659803L156.22055471081205,145.72754508574832L156.8458180425432,141.58170877308677L157.1376075973511,144.26410337000613L157.5991114850574,79.66628971996343L157.6973671514723,120.32807891536402L157.74798370689814,129.42968976337383L157.86410403993395,130.94617424836846L158.63228470463224,91.07029172414236L159.21586381424797,138.23462197397276L159.34687136946783,130.9121004850733L159.45108192475635,147.65437893172793L159.54040525786084,137.28382342851214L159.6118639243444,118.80219798667562L159.70714214632247,153.2308574664885L159.92151814577315,149.6473625671877L160.00190914556714,150.47234856767506L160.0138189233144,140.85634199694903L160.1358941452238,71.03321297376765L160.20139792283376,152.25181002043038L160.71054092152914,101.32886689672347L160.72245069927638,144.70013668908453L160.761157476955,151.1900930357117L160.99935303190017,143.06242046858364L161.01126280964746,123.64193973763153L161.1184508093728,92.5533274940993L161.3774884753757,145.49151166918554L161.3983305864334,155.52797456215364L161.52933814165328,136.8251847730062L161.68714269680447,151.79541601336288L162.52380458354952,141.1516755719495L162.52678202798631,109.82748920145805L162.70245124975838,99.72467536397664L162.95255658245085,137.33776751044525L163.16991002633836,147.6694405227497L163.21159424845376,142.2322855899091L163.6522560251024,101.69979332451926L163.74157935820685,147.54395431512634L164.0690982462565,147.29636613906362L164.68245180024041,148.50877846002177L164.70924880017174,139.2295295879009L164.86705335532295,129.38224825530156L165.26900835429296,142.34494794833853L165.37619635401833,150.10943294482544L165.71860246425206,131.66360532895007L166.25751990731555,137.54646628898604L166.3617304626041,85.45858774877247L166.80834712812634,137.79677566961715L166.8351441280577,150.85241675789945L166.9155351278517,143.58469145401338L167.00485846095614,106.49080203122449L167.10609157180787,146.16181894578153L167.24007657146453,129.21196231815264L167.3472645711899,149.58153479842585L167.68371579254998,140.23119186697605L167.73135490353903,136.95841501774214L167.9665730140474,152.87725022804773L168.2226332356135,132.16744947735307L168.80918978966608,146.06464466157718L170.3038668969472,137.36293347274517L170.43189700773027,147.98284351767947L170.6105436739392,138.6713252342774L170.67009256267548,94.88510282497995L170.74750611803267,140.1831045908146L171.01547611734603,112.42850838587421L171.17030322806042,140.53953576965614L171.3489498942693,99.1442299976337L171.45613789399465,140.152718957569L171.61394244914584,123.84539467208967L171.6258522268931,137.44520674462376L171.66455900457171,116.0220869366214L171.70624322668712,131.08359853237894L171.77770189317067,129.6473757689315L171.81343122641246,153.8535074034316L171.90870944839054,145.37827951538327L171.92955155944824,142.7291488816686L171.97123578156365,108.57430197828975L172.30768700292376,140.95066385098397L172.34043889172872,148.85900663923638L172.3583035583496,142.884406034196L172.48037878025903,101.31687011414645L172.4922885580063,135.35964172099514L172.53397278012167,148.11880360024702L172.60245400216843,152.9634827144411L172.91806311247083,83.17952366983644L173.2306947783364,143.36468828060617L173.27833388932544,137.26023044677174L173.36765722242993,137.39939864995358L174.22218377579586,138.23465305372036L174.24600333129035,135.53806882536492L174.62711621920266,102.82633748279207L175.2047404399448,141.67195227357436L175.61562777222528,107.72043425901057L176.47908665890165,140.18692394646519L176.63986865848963,145.40028570334297L176.71430476941003,150.47877257884053L177.08946276844873,142.851853451881L177.33063576783073,91.25549939344882L177.51225987847647,140.95751866198438L177.56883132277596,141.85902645439L177.74450054454803,148.5261485856298L178.66453087552387,150.483900737196L178.81340309736464,88.0804200041707L179.09030542998846,148.6277810869634L179.1379445409775,142.41272942456817L179.22726787408192,132.0221136709235L179.44462131796945,145.93622659776267L179.78404998376635,91.33228708987443L180.04606509420606,146.22264719180998L180.2485313159095,147.74683254760106L180.51947875965968,122.81807778801604L180.5254336485333,148.552752849583L180.5432983151542,140.4425393306742L181.08519320265452,132.12783661237293L181.5615843125449,141.67808016381125L181.66877231227028,137.43096358695567L182.02308820025127,18.829686692701557L182.29999053287506,145.44755454615074L182.4637499768999,140.75974268807545L182.64239664310878,151.07787097370672L182.92525386460622,-13.962278744976174L183.85719397332934,127.90493115890465L183.98820152854918,149.51541436204064L184.00011130629645,144.97307730593283L184.02393086179097,132.78538737922815L184.4645926384396,153.3656667350682L184.6045325269699,74.50278333155552L184.8010438597997,87.69427140665715L184.80699874867335,139.04040932370103L185.30720941405826,147.83988876524725L185.4709688580831,132.856197404197L185.5543373023139,128.3784794599996L185.6525929687288,148.6892637343443L185.72405163521236,136.52087951086264L185.7538260795805,131.36401382852716L186.12005174530879,137.88440501800034L186.17364574517146,140.62936660016157L186.51009696653153,152.09590105652956L186.63217218844096,140.38693766220194L186.98946552085877,149.54620403200516L187.29911974228753,117.79218561540958L187.3973754087024,137.79740589783256L187.58793185265858,94.26508258001508L187.61770629702676,153.76058672801804L187.8529244075351,141.08128685022604L187.89758607408734,144.67590311921285L188.0077515182495,87.4967216242447L188.77295473851098,94.76467916291152L188.7967742940055,132.91383652279023L188.9724435157776,102.61900103318813L189.01412773789298,151.335529851321L189.5083835144043,151.68077145769706L189.68107529173957,89.57099088627014L189.70191740279728,137.78325252610202L189.7138271805445,138.73596074938794L189.7257369582918,59.26438307893481L190.1455566238827,112.46218847236634L190.24381229029763,142.73933613227373L190.27656417910256,154.48106794049693L190.62492517820996,102.65230470940365L190.7708199556139,151.48454515453696L190.81548162216612,69.53612225128093L190.87800795533923,121.54766202475656L190.92266962189143,137.15811102939227L191.27400806543562,130.40751732933828L191.6521435089111,136.92571912325764L191.943933063719,140.15158454678127L192.31015872944727,137.9671669325774L192.4173467291726,123.9725695459998L192.48285050678254,137.73829049122787L192.6138580620024,117.60840070788257L192.6972265062332,149.07314523693506L192.95924161667295,140.23201375363504L193.34630939345888,151.944284551104L193.48029439311557,149.06044052677362L194.10853516928356,141.4786241568788L194.42414427958593,131.66604681579003L194.4330766128964,155.0935996929407L194.51049016825357,131.5574472710341L194.60279094579485,75.80653730408343L195.13575349998473,138.19961409159666L195.15064072216882,142.6141589954738L195.17446027766334,150.8887843792334L195.65680627642737,141.41712078966617L195.81461083157856,140.1614644532156L195.9009567202462,147.4976057781783L196.12426505300735,152.16296683523782L196.40116738563114,142.1436185232863L196.41009971894158,101.95738917931202L196.78228027354348,131.7522896620993L197.41647593858505,28.25261033140754L197.51473160499998,131.80625101055884L197.6397842713462,147.36964873062L197.7975888264974,114.43112846974537L198.0208971592585,153.59613774013533L198.06258138137395,132.47680001852513L198.08342349243162,142.35248996709163L198.32161904737686,126.22969822973457L198.85458160156674,143.0643370530195L198.95283726798164,137.86617847268036L199.06002526770698,124.01066986326296L199.48579982217151,147.67605878233775L199.59596526633368,147.3894758829418L200.1944315981335,152.2399720898967L200.26589026461707,146.87434115289358L200.37903315321606,128.2489632451029L200.39689781983694,146.84472906003293L200.8851987074746,125.16565544390316L200.92986037402682,148.0346258305011L201.03109348487854,155.16077597741827L201.7516350385878,-38.891551500354666L202.07915392663742,150.77482962129923L202.73419170273675,136.20320823059464L203.34456781228383,97.45573637615051L203.4964174785614,126.11717918347466L203.776297255622,152.95889499836352L204.12168081029256,106.85749816004018L204.2854402543174,135.2553329080619L204.37476358742185,152.16806650382466L204.3866733651691,134.49331102292481L204.60700425349341,136.15775755302198L204.6873952532874,150.27008934017354L204.73801180871328,133.38609328770676L204.7826734752655,151.8204498867355L204.81244791963366,154.20711809517763L205.0625532523261,148.67340442980057L205.48535036235384,145.50494157345784L205.5329894733429,129.5081902992232L205.55085413996377,149.27410602164758L206.2297114715576,151.80444899667486L206.36965136008794,111.30600459479055L206.72992213694255,149.00585585670925L207.1586741358439,12.021398621169652L207.301591468811,149.44075908163154L207.34923057980006,143.92966974586108L207.43855391290452,149.8448596866945L207.58444869030845,139.73319934438675L207.63804269017112,153.8673715608441L207.67972691228655,151.02866309997867L208.01022324477302,148.32527154357058L208.09061424456704,146.77281397737133L208.44493013254802,123.88838486964329L208.6771707986196,137.80741875652055L208.9540731312434,142.93851414813037L208.97193779786429,131.24433608040135L209.0374415754742,138.18199705466037L209.30541157478757,132.44316827830707L209.6061334629059,151.7764616839531L209.83539668454063,85.13446051426504L209.91876512877147,145.55353993880223L210.19566746139526,147.85597771459277L210.3207201277415,151.84890943895567L210.41897579415638,153.2478149221144L210.61250968254936,149.4974485412701L211.0144646815194,142.33814839022278L211.4640587914785,136.71922700679707L211.76180323515996,153.2986458493287L212.00893112341564,141.80833538603994L212.2203296784295,100.44828786102714L212.50914178880058,138.2530021913781L212.54487112204234,109.83146050254142L212.62823956627315,144.75956979977587L212.70267567719353,143.1933663518703L212.98851034312779,152.83267064673444L213.42321723090276,143.97881546009387L213.62270600816936,149.11849145202268L213.75669100782608,133.8375853279153L214.78986422740087,137.32185295301684L214.86727778275807,148.72339447717675L215.02805978234608,142.17061301073727L215.51933811442058,101.71797152356515L215.91236078008015,147.55195217017769L216.00466155762143,56.192018802198675L216.02848111311596,144.67775063754294L216.97828588845996,78.57369845930064L217.15395511023203,119.5495485042887L217.23732355446288,110.15452757232487L217.4249025539822,108.99692093296964L218.00848166359796,124.00257186235822L218.41936899587841,118.6912881806808L218.62779010645548,132.6573319124691L218.6307675508923,131.6592645242007L218.88087288358477,146.35424229649118L219.18159477170306,144.76852594704516L219.3423767712911,129.4543187367012L219.35130910460154,146.21882610950675L219.6788279926512,106.20823532588066L219.83365510336557,149.15699148937315L219.92893332534368,148.96916103469906L219.98252732520632,74.18541076219509L220.2951589910719,143.00039737892487L220.57206132369572,141.07804074325358L220.62267787912157,44.68014935398526L220.71497865666285,146.57203190120757L220.8459862118827,54.83747361546733L220.92339976723989,153.15030394064428L221.00081332259708,143.4826790890979L221.8523624315262,137.6646314893949L221.88213687589433,155.81079853874158L221.88809176476795,157.73673107204053L222.37639265240563,119.57620802112652L222.97188153976865,102.29990871779333L222.97783642864226,147.85004493610478L223.2755808723238,138.24949881316152L223.30833276112875,141.0438858272841L223.39170120535957,118.38021789347437L223.46911476071674,139.53225150956908L224.03780664814843,149.95310785763715L224.12415253681607,147.42635373013238L224.17774653667874,121.87141284898742L224.350438314014,141.26849398329534L224.4248744249344,145.4811241268736L224.6213857577642,127.17834191269431L224.64818275769554,156.3625322615782L224.74048353523676,108.15261196273283L224.8030098684099,155.92098530894134L224.87744597933028,137.7919237756849L225.0977768676546,51.789607086457536L225.22282953400082,52.84113164061314L225.41934086683062,139.24806347739167L225.67837853283353,132.5404064486593L226.00887486532,137.74349289564708L226.1309500872294,116.7753598728066L226.4048749754164,146.04885787644452L226.43167197534774,114.45337811572801L227.17305564011468,105.72836402279998L227.87573252720304,150.52394612866368L228.21218374856315,140.44418655729746L228.62902596971725,127.73221754813696L229.10839452404446,141.9881835255365L229.19176296827527,143.58888549328793L229.2155825237698,146.8090270632936L229.32574796793196,140.81863362983628L230.00162785508897,148.57099148147145L230.06415418826208,143.63285988284917L230.57329718695746,145.90332005165547L230.67453029780918,111.15969495626923L230.79065063084497,152.75876991353115L231.38018462933434,121.03114079263446L232.46397440433503,71.74234230843241L233.02373395845623,137.32108286593723L233.02671140289308,150.086929480904L233.0773279583189,145.75531656688946L233.14878662480248,133.55138574540652L233.1666512914234,116.97846257012515L233.25299718009103,126.40029841766486L233.36614006869,130.9997246534985L233.51798973496753,139.92628918301733L233.7651176232232,143.17195758572575L233.99735828929477,153.12213791937376L234.2980801774131,150.65404249884904L234.66430584314134,134.51448496430967L235.0067119533751,147.8508374696688L235.18238117514716,136.22016568622055L235.72725350708433,148.05586538468646L235.73023095152112,148.87566970058634L235.76893772919973,124.96979778108275L236.18875739479063,142.69811057372323L236.3376296166314,130.70195304496337L236.5728477271398,131.10174219837194L236.6353740603129,120.71641000182076L237.06710350365108,148.48341047936236L237.1891787255605,150.99199072445288L237.2695697253545,143.88652932952732L237.35889305845896,68.93917699226299L237.59411116896734,153.07665184542185L237.86803605715434,139.6458738868691L237.94247216807472,145.539944275876L238.07050227885776,140.81354863779694L238.44863772233327,143.7006534456473L238.57666783311635,147.97433284679258L239.46990116416083,151.62784092086653L239.5592244972653,142.5261566901193L239.57113427501255,128.49152340866357L239.6425929414961,152.6110366499041L239.6634350525538,146.15776131206593L239.77062305227918,153.14221888963436L239.8391042743259,149.1104651072027L239.92247271855672,145.99967935581145L240.06241260708703,136.1661352716552L240.14875849575466,148.63581174841502L240.369089384079,94.41688988055787L240.91991660488978,139.07052387248137L241.16108960427178,129.3569044477792L241.9828642688327,143.10273608119024L242.10791693517896,130.0828548325109L242.44734560097586,149.9489863377737L242.5307140452067,142.37581013771413L242.56346593401167,113.87837515852192L242.82250360001458,146.33905983978426L242.89991715537178,149.48172823226426L243.2453007100423,148.57240906329295L243.46265415392983,130.29083359689878L243.70382715331186,149.76426903781842L243.8705640417735,151.27669502577112L243.93011293050978,152.55980427594986L244.02241370805103,150.43364651196512L244.08791748566097,114.12678522124361L244.18617315207587,141.08543599653183L244.26060926299624,131.18706301216884L244.2695415963067,143.03777077542452L244.56430859555138,116.03841071072662L244.73700037288665,142.11547235852123L244.96924103895824,151.4608580702274L245.03176737213136,122.88747886442661L245.03474481656815,142.4803814018494L245.0406997054418,94.66733048679002L245.13895537185667,153.47988135422545L245.3443990379969,103.42115550575146L245.35333137130738,145.6623829415811L245.47242914877998,147.81046315087224L245.81185781457688,147.6475379339487L245.8326999256346,149.76867545536828L246.30313614665138,149.854831105719L246.74975281217363,140.64833215281357L246.97306114493477,153.00039509468456L247.1546852555805,73.1691306418279L247.58641469891867,133.88949886633793L247.66085080983902,146.11367987004073L248.07471558655632,139.97339399382383L248.7029563627243,135.86634865948344L248.90840002886452,144.4046356287775" fill="none" class="style-scope vz-line-chart2"></path></g></g></g></g></g></g><g transform="translate(62, 177)" clip-path="url(#clip_1)"><clipPath id="clip_1"><rect width="267" height="22"></rect></clipPath><g><g><line x1="0" y1="0" x2="0" y2="5" style="visibility: inherit;" fill="rgb(0, 0, 0)" stroke="rgb(204, 204, 204)" stroke-width="1px" class="style-scope vz-line-chart2"></line><line x1="29.774444368150498" y1="0" x2="29.774444368150498" y2="5" style="visibility: inherit;" fill="rgb(0, 0, 0)" stroke="rgb(204, 204, 204)" stroke-width="1px" class="style-scope vz-line-chart2"></line><line x1="59.548888736300995" y1="0" x2="59.548888736300995" y2="5" style="visibility: inherit;" fill="rgb(0, 0, 0)" stroke="rgb(204, 204, 204)" stroke-width="1px" class="style-scope vz-line-chart2"></line><line x1="89.32333310445149" y1="0" x2="89.32333310445149" y2="5" style="visibility: inherit;" fill="rgb(0, 0, 0)" stroke="rgb(204, 204, 204)" stroke-width="1px" class="style-scope vz-line-chart2"></line><line x1="119.09777747260199" y1="0" x2="119.09777747260199" y2="5" style="visibility: inherit;" fill="rgb(0, 0, 0)" stroke="rgb(204, 204, 204)" stroke-width="1px" class="style-scope vz-line-chart2"></line><line x1="148.8722218407525" y1="0" x2="148.8722218407525" y2="5" style="visibility: inherit;" fill="rgb(0, 0, 0)" stroke="rgb(204, 204, 204)" stroke-width="1px" class="style-scope vz-line-chart2"></line><line x1="178.64666620890299" y1="0" x2="178.64666620890299" y2="5" style="visibility: inherit;" fill="rgb(0, 0, 0)" stroke="rgb(204, 204, 204)" stroke-width="1px" class="style-scope vz-line-chart2"></line><line x1="208.4211105770535" y1="0" x2="208.4211105770535" y2="5" style="visibility: inherit;" fill="rgb(0, 0, 0)" stroke="rgb(204, 204, 204)" stroke-width="1px" class="style-scope vz-line-chart2"></line><line x1="238.19555494520398" y1="0" x2="238.19555494520398" y2="5" style="visibility: inherit;" fill="rgb(0, 0, 0)" stroke="rgb(204, 204, 204)" stroke-width="1px" class="style-scope vz-line-chart2"></line><line x1="267.9699993133545" y1="0" x2="267.9699993133545" y2="5" style="visibility: inherit;" fill="rgb(0, 0, 0)" stroke="rgb(204, 204, 204)" stroke-width="1px" class="style-scope vz-line-chart2"></line></g><g transform="translate(0, 8)"><text style="text-anchor: middle; visibility: hidden; font-family: &quot;Helvetica Neue&quot;, sans-serif; font-size: 12px; font-weight: 200;" x="0" y="0" dx="0em" dy="0.95em" fill="rgb(50, 49, 63)" stroke="none" stroke-width="1px" class="style-scope vz-line-chart2">-10k</text><text style="text-anchor: middle; visibility: hidden; font-family: &quot;Helvetica Neue&quot;, sans-serif; font-size: 12px; font-weight: 200;" x="29.774444368150498" y="0" dx="0em" dy="0.95em" fill="rgb(50, 49, 63)" stroke="none" stroke-width="1px" class="style-scope vz-line-chart2">0</text><text style="text-anchor: middle; visibility: hidden; font-family: &quot;Helvetica Neue&quot;, sans-serif; font-size: 12px; font-weight: 200;" x="59.548888736300995" y="0" dx="0em" dy="0.95em" fill="rgb(50, 49, 63)" stroke="none" stroke-width="1px" class="style-scope vz-line-chart2">10k</text><text style="text-anchor: middle; visibility: hidden; font-family: &quot;Helvetica Neue&quot;, sans-serif; font-size: 12px; font-weight: 200;" x="89.32333310445149" y="0" dx="0em" dy="0.95em" fill="rgb(50, 49, 63)" stroke="none" stroke-width="1px" class="style-scope vz-line-chart2">20k</text><text style="text-anchor: middle; visibility: hidden; font-family: &quot;Helvetica Neue&quot;, sans-serif; font-size: 12px; font-weight: 200;" x="119.09777747260199" y="0" dx="0em" dy="0.95em" fill="rgb(50, 49, 63)" stroke="none" stroke-width="1px" class="style-scope vz-line-chart2">30k</text><text style="text-anchor: middle; visibility: hidden; font-family: &quot;Helvetica Neue&quot;, sans-serif; font-size: 12px; font-weight: 200;" x="148.8722218407525" y="0" dx="0em" dy="0.95em" fill="rgb(50, 49, 63)" stroke="none" stroke-width="1px" class="style-scope vz-line-chart2">40k</text><text style="text-anchor: middle; visibility: hidden; font-family: &quot;Helvetica Neue&quot;, sans-serif; font-size: 12px; font-weight: 200;" x="178.64666620890299" y="0" dx="0em" dy="0.95em" fill="rgb(50, 49, 63)" stroke="none" stroke-width="1px" class="style-scope vz-line-chart2">50k</text><text style="text-anchor: middle; visibility: hidden; font-family: &quot;Helvetica Neue&quot;, sans-serif; font-size: 12px; font-weight: 200;" x="208.4211105770535" y="0" dx="0em" dy="0.95em" fill="rgb(50, 49, 63)" stroke="none" stroke-width="1px" class="style-scope vz-line-chart2">60k</text><text style="text-anchor: middle; visibility: hidden; font-family: &quot;Helvetica Neue&quot;, sans-serif; font-size: 12px; font-weight: 200;" x="238.19555494520398" y="0" dx="0em" dy="0.95em" fill="rgb(50, 49, 63)" stroke="none" stroke-width="1px" class="style-scope vz-line-chart2">70k</text><text style="text-anchor: middle; visibility: hidden; font-family: &quot;Helvetica Neue&quot;, sans-serif; font-size: 12px; font-weight: 200;" x="267.9699993133545" y="0" dx="0em" dy="0.95em" fill="rgb(50, 49, 63)" stroke="none" stroke-width="1px" class="style-scope vz-line-chart2">80k</text></g><line x1="0" y1="0" x2="267.9699993133545" y2="0" fill="rgb(0, 0, 0)" stroke="rgb(204, 204, 204)" stroke-width="1px"></line></g></g></g></g></svg>