<svg viewBox="0 0 330 200" xmlns="http://www.w3.org/2000/svg"><g><g><g><g><g><line x1="51.624000549316406" y1="177.98199939727783" x2="46.624000549316406" y2="177.98199939727783" style="visibility: inherit;" fill="rgb(0, 0, 0)" stroke="rgb(204, 204, 204)" stroke-width="1px" class="style-scope vz-line-chart2"></line><line x1="51.624000549316406" y1="158.20622168646918" x2="46.624000549316406" y2="158.20622168646918" style="visibility: inherit;" fill="rgb(0, 0, 0)" stroke="rgb(204, 204, 204)" stroke-width="1px" class="style-scope vz-line-chart2"></line><line x1="51.624000549316406" y1="138.43044397566052" x2="46.624000549316406" y2="138.43044397566052" style="visibility: inherit;" fill="rgb(0, 0, 0)" stroke="rgb(204, 204, 204)" stroke-width="1px" class="style-scope vz-line-chart2"></line><line x1="51.624000549316406" y1="118.65466626485188" x2="46.624000549316406" y2="118.65466626485188" style="visibility: inherit;" fill="rgb(0, 0, 0)" stroke="rgb(204, 204, 204)" stroke-width="1px" class="style-scope vz-line-chart2"></line><line x1="51.624000549316406" y1="98.87888855404323" x2="46.624000549316406" y2="98.87888855404323" style="visibility: inherit;" fill="rgb(0, 0, 0)" stroke="rgb(204, 204, 204)" stroke-width="1px" class="style-scope vz-line-chart2"></line><line x1="51.624000549316406" y1="79.10311084323459" x2="46.624000549316406" y2="79.10311084323459" style="visibility: inherit;" fill="rgb(0, 0, 0)" stroke="rgb(204, 204, 204)" stroke-width="1px" class="style-scope vz-line-chart2"></line><line x1="51.624000549316406" y1="59.32733313242595" x2="46.624000549316406" y2="59.32733313242595" style="visibility: inherit;" fill="rgb(0, 0, 0)" stroke="rgb(204, 204, 204)" stroke-width="1px" class="style-scope vz-line-chart2"></line><line x1="51.624000549316406" y1="39.55155542161731" x2="46.624000549316406" y2="39.55155542161731" style="visibility: inherit;" fill="rgb(0, 0, 0)" stroke="rgb(204, 204, 204)" stroke-width="1px" class="style-scope vz-line-chart2"></line><line x1="51.624000549316406" y1="19.775777710808654" x2="46.624000549316406" y2="19.775777710808654" style="visibility: inherit;" fill="rgb(0, 0, 0)" stroke="rgb(204, 204, 204)" stroke-width="1px" class="style-scope vz-line-chart2"></line><line x1="51.624000549316406" y1="0" x2="46.624000549316406" y2="0" style="visibility: inherit;" fill="rgb(0, 0, 0)" stroke="rgb(204, 204, 204)" stroke-width="1px" class="style-scope vz-line-chart2"></line></g><g transform="translate(41.624000549316406, 0)"><text style="text-anchor: end; visibility: hidden; font-family: &quot;Helvetica Neue&quot;, sans-serif; font-size: 12px; font-weight: 200;" x="0" y="177.98199939727783" dx="0em" dy="0.3em" fill="rgb(50, 49, 63)" stroke="none" stroke-width="1px" class="style-scope vz-line-chart2">-0.1</text><text style="text-anchor: end; visibility: inherit; font-family: &quot;Helvetica Neue&quot;, sans-serif; font-size: 12px; font-weight: 200;" x="0" y="158.20622168646918" dx="0em" dy="0.3em" fill="rgb(50, 49, 63)" stroke="none" stroke-width="1px" class="style-scope vz-line-chart2">0</text><text style="text-anchor: end; visibility: hidden; font-family: &quot;Helvetica Neue&quot;, sans-serif; font-size: 12px; font-weight: 200;" x="0" y="138.43044397566052" dx="0em" dy="0.3em" fill="rgb(50, 49, 63)" stroke="none" stroke-width="1px" class="style-scope vz-line-chart2">0.1</text><text style="text-anchor: end; visibility: inherit; font-family: &quot;Helvetica Neue&quot;, sans-serif; font-size: 12px; font-weight: 200;" x="0" y="118.65466626485188" dx="0em" dy="0.3em" fill="rgb(50, 49, 63)" stroke="none" stroke-width="1px" class="style-scope vz-line-chart2">0.2</text><text style="text-anchor: end; visibility: hidden; font-family: &quot;Helvetica Neue&quot;, sans-serif; font-size: 12px; font-weight: 200;" x="0" y="98.87888855404323" dx="0em" dy="0.3em" fill="rgb(50, 49, 63)" stroke="none" stroke-width="1px" class="style-scope vz-line-chart2">0.3</text><text style="text-anchor: end; visibility: inherit; font-family: &quot;Helvetica Neue&quot;, sans-serif; font-size: 12px; font-weight: 200;" x="0" y="79.10311084323459" dx="0em" dy="0.3em" fill="rgb(50, 49, 63)" stroke="none" stroke-width="1px" class="style-scope vz-line-chart2">0.4</text><text style="text-anchor: end; visibility: hidden; font-family: &quot;Helvetica Neue&quot;, sans-serif; font-size: 12px; font-weight: 200;" x="0" y="59.32733313242595" dx="0em" dy="0.3em" fill="rgb(50, 49, 63)" stroke="none" stroke-width="1px" class="style-scope vz-line-chart2">0.5</text><text style="text-anchor: end; visibility: inherit; font-family: &quot;Helvetica Neue&quot;, sans-serif; font-size: 12px; font-weight: 200;" x="0" y="39.55155542161731" dx="0em" dy="0.3em" fill="rgb(50, 49, 63)" stroke="none" stroke-width="1px" class="style-scope vz-line-chart2">0.6</text><text style="text-anchor: end; visibility: hidden; font-family: &quot;Helvetica Neue&quot;, sans-serif; font-size: 12px; font-weight: 200;" x="0" y="19.775777710808654" dx="0em" dy="0.3em" fill="rgb(50, 49, 63)" stroke="none" stroke-width="1px" class="style-scope vz-line-chart2">0.7</text><text style="text-anchor: end; visibility: hidden; font-family: &quot;Helvetica Neue&quot;, sans-serif; font-size: 12px; font-weight: 200;" x="0" y="0" dx="0em" dy="0.3em" fill="rgb(50, 49, 63)" stroke="none" stroke-width="1px" class="style-scope vz-line-chart2">0.8</text></g><line x1="51.624000549316406" y1="0" x2="51.624000549316406" y2="177.98199939727783" fill="rgb(0, 0, 0)" stroke="rgb(204, 204, 204)" stroke-width="1px"></line></g></g><g transform="translate(51, 0)" clip-path="url(#clip_0)"><clipPath id="clip_0"><rect width="278" height="177"></rect></clipPath><g><g><g><line x1="0" y1="0" x2="0" y2="177.98199939727783" fill="rgb(0, 0, 0)" stroke="rgb(60, 60, 60)" stroke-width="1px" opacity="0.25" class="style-scope vz-line-chart2"></line><line x1="30.930666605631508" y1="0" x2="30.930666605631508" y2="177.98199939727783" fill="rgb(0, 0, 0)" stroke="rgb(60, 60, 60)" stroke-width="1px" opacity="0.25" class="style-scope vz-line-chart2"></line><line x1="61.861333211263016" y1="0" x2="61.861333211263016" y2="177.98199939727783" fill="rgb(0, 0, 0)" stroke="rgb(60, 60, 60)" stroke-width="1px" opacity="0.25" class="style-scope vz-line-chart2"></line><line x1="92.79199981689453" y1="0" x2="92.79199981689453" y2="177.98199939727783" fill="rgb(0, 0, 0)" stroke="rgb(60, 60, 60)" stroke-width="1px" opacity="0.25" class="style-scope vz-line-chart2"></line><line x1="123.72266642252603" y1="0" x2="123.72266642252603" y2="177.98199939727783" fill="rgb(0, 0, 0)" stroke="rgb(60, 60, 60)" stroke-width="1px" opacity="0.25" class="style-scope vz-line-chart2"></line><line x1="154.65333302815756" y1="0" x2="154.65333302815756" y2="177.98199939727783" fill="rgb(0, 0, 0)" stroke="rgb(60, 60, 60)" stroke-width="1px" opacity="0.25" class="style-scope vz-line-chart2"></line><line x1="185.58399963378906" y1="0" x2="185.58399963378906" y2="177.98199939727783" fill="rgb(0, 0, 0)" stroke="rgb(60, 60, 60)" stroke-width="1px" opacity="0.25" class="style-scope vz-line-chart2"></line><line x1="216.51466623942056" y1="0" x2="216.51466623942056" y2="177.98199939727783" fill="rgb(0, 0, 0)" stroke="rgb(60, 60, 60)" stroke-width="1px" opacity="0.25" class="style-scope vz-line-chart2"></line><line x1="247.44533284505206" y1="0" x2="247.44533284505206" y2="177.98199939727783" fill="rgb(0, 0, 0)" stroke="rgb(60, 60, 60)" stroke-width="1px" opacity="0.25" class="style-scope vz-line-chart2"></line><line x1="278.3759994506836" y1="0" x2="278.3759994506836" y2="177.98199939727783" fill="rgb(0, 0, 0)" stroke="rgb(60, 60, 60)" stroke-width="1px" opacity="0.25" class="style-scope vz-line-chart2"></line></g><g><line x1="0" y1="177.98199939727783" x2="278.3759994506836" y2="177.98199939727783" fill="rgb(0, 0, 0)" stroke="rgb(60, 60, 60)" stroke-width="1px" opacity="0.25" class="style-scope vz-line-chart2"></line><line x1="0" y1="158.20622168646918" x2="278.3759994506836" y2="158.20622168646918" fill="rgb(0, 0, 0)" stroke="rgb(60, 60, 60)" stroke-width="1px" opacity="0.25" class="style-scope vz-line-chart2"></line><line x1="0" y1="138.43044397566052" x2="278.3759994506836" y2="138.43044397566052" fill="rgb(0, 0, 0)" stroke="rgb(60, 60, 60)" stroke-width="1px" opacity="0.25" class="style-scope vz-line-chart2"></line><line x1="0" y1="118.65466626485188" x2="278.3759994506836" y2="118.65466626485188" fill="rgb(0, 0, 0)" stroke="rgb(60, 60, 60)" stroke-width="1px" opacity="0.25" class="style-scope vz-line-chart2"></line><line x1="0" y1="98.87888855404323" x2="278.3759994506836" y2="98.87888855404323" fill="rgb(0, 0, 0)" stroke="rgb(60, 60, 60)" stroke-width="1px" opacity="0.25" class="style-scope vz-line-chart2"></line><line x1="0" y1="79.10311084323459" x2="278.3759994506836" y2="79.10311084323459" fill="rgb(0, 0, 0)" stroke="rgb(60, 60, 60)" stroke-width="1px" opacity="0.25" class="style-scope vz-line-chart2"></line><line x1="0" y1="59.32733313242595" x2="278.3759994506836" y2="59.32733313242595" fill="rgb(0, 0, 0)" stroke="rgb(60, 60, 60)" stroke-width="1px" opacity="0.25" class="style-scope vz-line-chart2"></line><line x1="0" y1="39.55155542161731" x2="278.3759994506836" y2="39.55155542161731" fill="rgb(0, 0, 0)" stroke="rgb(60, 60, 60)" stroke-width="1px" opacity="0.25" class="style-scope vz-line-chart2"></line><line x1="0" y1="19.775777710808654" x2="278.3759994506836" y2="19.775777710808654" fill="rgb(0, 0, 0)" stroke="rgb(60, 60, 60)" stroke-width="1px" opacity="0.25" class="style-scope vz-line-chart2"></line><line x1="0" y1="0" x2="278.3759994506836" y2="0" fill="rgb(0, 0, 0)" stroke="rgb(60, 60, 60)" stroke-width="1px" opacity="0.25" class="style-scope vz-line-chart2"></line></g></g></g><g><g><line x1="0" y1="158.20622168646918" x2="278.3759994506836" y2="158.20622168646918" fill="rgb(0, 0, 0)" stroke="rgb(153, 153, 153)" stroke-width="1.5px"></line></g></g><g><g><line x1="30.930666605631508" y1="0" x2="30.930666605631508" y2="177.98199939727783" fill="rgb(0, 0, 0)" stroke="rgb(153, 153, 153)" stroke-width="1.5px"></line></g></g><g><g><g><g><g class="style-scope vz-line-chart2"><path style="fill: none;" stroke="rgb(255, 112, 67)" stroke-width="2px" d="M36.161042328643795,-0.879559917203494L36.294044195048016,1.7966938901293759L36.30332339502971,3.5588002598958894L36.63428152770996,5.23582014490438L36.736352727508546,6.531709230957063L36.860075393931076,9.06016300243843L37.22815032653809,10.675528259059234L37.41373432617187,12.445203515174796L37.732320192209876,15.133088215448481L37.92718339182536,16.594399836049774L38.0663713915507,14.224994499234413L38.32000285771688,15.195061337292827L38.465376990763346,17.206642167792126L38.51795912399292,18.063508172523512L38.524145257314046,18.897796932849076L38.61693725713094,19.975642264349887L38.6200303237915,21.139754661616195L38.65714712371826,21.951159985896055L38.67261245702108,23.324183926603695L38.76231139017741,23.436107722555704L39.23555058924357,23.916666433983295L39.405669255574544,25.34616632147541L40.10779538752238,26.450747631994716L40.32740312042237,26.377840141490907L40.70785031967163,28.390506366815828L40.921271919250486,29.564488526932507L40.970760985819496,30.85691746408301L40.973854052480064,32.55142996839501L41.153251918792726,34.16596762317488L41.69453858439128,34.24661695905721L42.12138178354899,31.899797415931317L42.12756791687011,32.98243187678844L42.28222124989827,32.76812682990959L42.50182898279826,32.91182751013315L42.72762284901937,32.579832307190486L42.749274315643305,34.63381549614138L43.08023244832357,34.83077112331762L43.16683831481934,35.491625883899474L43.414283647664384,33.67916703071549L43.606053780619305,34.82506182411316L43.90917431335449,34.61819352760119L44.02052471313476,36.167377149696506L44.283435379282636,37.48571237245886L44.540159912109374,38.589200763781406L44.824722044881185,39.35930335403171L44.877304178110755,39.7222621489762L45.35672951049805,40.17182526561493L45.3691017771403,42.02343434969842L45.393846310424806,43.58136957175367L45.74026977640788,45.28168760314438L45.783572709655765,46.70936052715601L46.06813484242757,48.01509261628297L46.30630097529093,48.11673751695443L46.723864974466956,49.585817659126974L46.81047084096273,50.43937417021108L47.463107906341556,51.37509488764417L47.506410839589435,52.548910146863534L47.69508790588379,52.78134968987426L48.09409350509644,54.24398818736199L48.49619217096965,55.26181429977731L48.632287104034425,55.1754650579489L48.89519777018229,55.868617441887636L49.068409503173825,54.856742441257126L49.09006096979777,56.275625277277996L49.20141136957805,56.59486528818164L49.458135902404784,55.89184666794527L50.10767990112304,56.18006348115401L50.16644816767374,57.56537103283692L50.38296283391317,57.18494836532922L50.652059633382166,57.99764850115815L51.26448683217366,58.843376654001105L51.354185765329994,59.37930311221983L51.651120164744064,59.820208975621895L51.688236964670814,60.336132405757624L52.130545497131344,61.20933307434602L52.476968963114416,61.58543225104016L52.934742828877766,61.685468940521176L53.06155856196086,62.61646840748591L53.76368469390869,62.876920675518775L54.00494389343262,63.6197754100145L54.01422309341431,64.0365401873051L54.06061909332276,63.905302648354336L54.16269029312134,64.2079290155929L55.01946975809734,64.81236351773812L55.05040042470296,65.32858662153065L55.158657757822674,66.3629617830064L55.64736229019165,66.43471192005727L55.87934228973389,66.22621781381449L56.231951889038086,67.12041558529674L56.35876762212118,66.3182735510705L56.797983087921146,67.44750931291681L56.81344842122395,68.61850428540237L56.841286021169026,69.41345641766134L57.21554708709717,70.26534128513043L57.2464777537028,70.85756643651156L57.53413295313517,71.26509789897747L58.390912418111164,72.27058523327972L58.4806113512675,72.67323711526667L58.54556575113932,72.85223391526932L58.567217217763265,72.84834601057742L58.74661508407593,72.5188206729039L59.572463882446286,73.15329977730465L60.21582174784343,73.94264453759229L60.48182548065186,74.18032862673985L60.522035347239175,74.92852179719287L60.871551879882816,75.50721767752846L60.92722707977295,76.54325998621819L61.37572174555461,77.31244850639406L61.573678011830644,77.16267651719386L62.12115081075032,77.07575483126358L62.715019609578455,77.76559729675675L62.73667107620239,78.30174794643185L63.095466808827716,78.71720271591309L63.34291214167277,79.18188855273628L63.475914008076984,77.69681211063957L63.73882467422486,78.08375966413232L63.88419880727132,77.86797300094692L64.06050360692342,78.38359347156792L64.20278467330932,77.60528561718375L64.20587773996989,77.54949007134897L64.27392520650228,78.3161324127823L64.4904398727417,78.9535731169558L64.65127933909099,79.13447665612607L64.66055853907267,79.19183589669022L64.77809507217407,79.54169727415302L64.84923560536703,80.00950986112572L64.87398013865153,79.94580472625097L65.01626120503744,79.5667942751664L65.2698926712036,79.8496255801156L65.32866093775432,80.04679107199841L65.56682707061768,79.79521874834276L66.25039480260213,80.33641687741662L66.41432733561197,79.754240426744L66.47618866882324,80.44452716135987L66.57207373530069,80.8568881025374L66.59991133524576,81.06872681801849L66.7050756017049,81.42442539507101L66.95870706787109,81.28602660102369L67.07315053431192,81.64302370593168L67.3020374671936,80.96172167724727L67.95158146591187,80.55615387810514L67.96704679921467,80.96714247474858L68.07839719899495,80.92838830019554L68.47430973154704,81.2975672411792L68.55472946472167,81.15414124046934L68.94445586395264,81.70195387917511L70.1229142616272,81.7989336244295L70.76008599370321,82.09637923728567L70.95185612665811,82.23039351810449L71.19311532618205,82.37744404597619L71.24569745941163,82.6261835504027L71.32921025924682,83.03403564323969L71.39416465911866,83.0146472751009L71.43128145904541,83.46839520085219L71.47767745895385,83.6527334123768L72.38394599049886,83.62656754482892L72.6994387898763,83.98511357030368L72.82934758961994,82.4345259072183L72.98709398930868,82.35691397095096L73.05823452250162,81.903881754112L73.24072545547486,82.32877936790234L73.64591718800862,82.57057999865332L73.8748041208903,83.12345366681679L74.48104518636067,83.01398235236465L74.91716758550008,83.8575711190105L75.14296145172119,83.81793783890382L75.22338118489583,84.21985336286056L75.27905638478597,83.55318930132691L75.46154731775918,82.838838925144L75.61620065078735,83.48139162197377L76.18841798299154,83.55913341374955L76.2069763829549,84.32816020592941L76.2997683827718,84.67742478074237L76.32760598271688,84.8311964967123L76.3585366493225,85.35522486087125L76.64309878209433,84.84799374917661L76.67093638203939,84.84971375898448L76.73589078191121,84.8852430319489L76.93384704818725,85.06947426782679L76.99261531473795,85.48811807561326L77.60504251352947,85.26514369194693L77.88341851298014,85.27571895040786L78.14942224578857,85.16545221386053L78.32882011210124,85.43401185125023L78.78968704452515,85.37783943550887L78.79587317784627,86.23343011141372L78.8948513109843,86.94072831179112L78.99073637746174,86.8160968865397L79.6155358428955,86.98435189990867L79.68976944274903,87.4115208524885L80.39808170801798,87.44816774323013L80.71357450739542,87.54707355837317L80.77852890726724,87.98509497910926L81.18990677312215,88.25280155659198L81.4126075726827,88.22164089695816L81.4806550392151,88.09679226279431L81.67551823883056,87.6148053172407L81.98173183822631,87.03282188226937L82.57560063705445,87.63070056958188L82.92202410303751,88.19613842310875L83.07049130274456,88.64599114596008L83.2004001024882,88.50420359006604L83.71694223480225,88.52784090645218L83.8128273012797,88.61740283781722L84.25204276707967,87.87506018631186L84.41597530008951,88.20570163374418L84.49330196660361,88.49219887099025L84.56134943313599,89.00804967442004L84.88612143249512,89.44259097306997L85.19233503189086,88.63587004280635L85.23563796513875,89.0088012365881L85.32533689829509,88.5734565833282L85.35008143157958,89.15265491520188L85.43978036473592,89.25100690882763L85.74599396413167,89.33161608760619L86.46049236272177,89.77835500080448L86.66154169565836,90.03129781547374L86.80691582870485,90.8142537010533L87.42243609415691,90.0497661473175L87.58946169382732,90.44300997339505L88.00083955968222,90.5453968662631L88.00393262634277,90.8293937587495L88.43696195882163,90.94932020225328L89.2195078239441,91.00185029785624L89.56902435658773,91.4886751000615L90.05772888895672,90.67151165354979L90.22166142196656,90.96005617392927L90.537154221344,90.74276417861532L91.3413515530904,90.74952246265731L91.6784958190918,88.41714807516254L91.72179875233968,87.61471577539007L91.95996488520304,87.64614145897497L92.3156675511678,87.95824124863456L92.60022968393962,88.4766835530876L92.77653448359172,88.603993332422L92.90025715001424,88.82329017570872L92.95593234990439,89.55253508681066L92.98376994984945,90.05322289681745L93.21884301605225,90.2021398373176L93.54670808207193,89.95871218208131L93.55598728205362,90.34028006138443L93.57145261535645,90.45615680182667L93.79106034825644,90.88677607828302L93.97664434789021,90.55016666735247L94.15294914754232,90.67577326263978L94.29213714726765,90.57821244862147L94.45916274693808,90.9322144861591L94.46225581359863,91.1624057734518L94.53030328013102,90.82926291284436L94.57979234670003,90.82154945535794L94.98807714589437,91.08486147823102L95.20149874547323,90.81328352309099L95.21077794545492,90.99571973963417L95.36233821182252,91.49886806790626L95.43657181167602,91.69313543000284L96.13251181030273,91.92071155476903L96.33046807657877,90.67812119881552L96.53151740951539,90.02914131439417L96.60265794270833,89.47247654609544L96.86247554219564,89.34773301207086L96.87175474217733,89.73151241421724L96.88722007548014,89.98166985172483L97.09445554173787,90.07467198773975L97.15013074162802,89.0624894980315L97.5027403409322,88.69375911062104L97.99144487330119,89.07157214255737L98.3440544726054,89.56849196030947L98.42447420578002,89.49139330341939L98.48942860565185,90.2012581192584L98.50798700561523,90.18958834092686L98.99669153798422,90.74152383205495L99.7359344698588,91.04159328260005L99.88130860290528,89.33779183161576L99.99884513600668,89.88687625824764L100.08545100250244,89.87374618205232L100.43806060180664,90.139851743762L100.66076140136718,90.79825163448294L101.34432913335165,91.28625155338929L101.57630913289388,90.9754062750967L101.85468513234456,91.08035637675972L102.4980429977417,91.05956073428226L102.52897366434732,91.10817462818966L102.63413793080647,91.45304036239462L102.66506859741212,91.54057675826384L102.74548833058675,92.0225978226203L102.8846763303121,92.44866879335747L102.95581686350504,92.90168948734484L103.18779686304728,93.2481381839205L103.39193926264446,92.26852491589807L103.74145579528808,92.58633137376313L104.1435544611613,92.85524062325275L104.17757819442748,92.7673613024972L104.23943952763875,93.16627023646727L104.97249632619221,91.3340917639554L105.40861872533164,91.34503949119153L105.52924832509358,91.64588345663931L105.61894725824992,91.84803613115962L105.8880440577189,91.64444171294929L106.03651125742594,91.47876295509485L106.04269739074708,91.41899930016903L106.16023392384847,91.43572388865915L106.23137445704143,87.33954476561317L106.88710458908082,87.67122472322083L107.08506085535686,88.43225490106359L107.38818138809204,88.44690210073857L107.41292592137656,88.73084913415667L107.95111952031453,88.6858533720742L108.05319072011311,87.96874901294318L108.28207765299479,88.26331469037248L108.40270725275676,88.56694063253816L108.66871098556518,89.1008230895083L108.97183151830038,89.70895730266525L109.03987898483277,90.18695414519587L109.28423125101726,90.65828914978717L109.46672218399047,91.09612972636465L109.81933178329469,91.33442572296698L109.86572778320313,91.81940985586124L110.1100800493876,91.95255499171438L110.3791768488566,91.86376553206944L110.76890324808757,91.64159835232945L110.87716058120728,91.59742223669933L111.10604751408894,91.98343188063353L111.55454217987061,91.69202235725139L111.63186884638468,91.06917568873726L111.82982511266071,91.25951652657704L111.87312804590862,91.72053937332062L112.25357524515788,91.94676848685575L112.28759897842407,91.61523237662502L112.59690564448039,92.26794139180798L112.80414111073812,92.42317799550369L113.81557390874228,92.98620001274547L113.81866697540283,93.41903927077628L113.90836590855916,93.66388037564535L113.9145520418803,94.05622492031829L114.22076564127605,93.41703699293633L114.88268190663655,93.79027580451256L114.90124030659993,93.7067763634973L114.91979870656331,94.23308663277787L114.93217097320556,94.11443441617216L114.93526403986613,94.4893447859619L115.2909667058309,94.31862751227277L116.00546510442098,94.53858379852159L116.30858563715617,94.81596950148645L116.3395163037618,94.93504295645721L116.36116777038573,95.3779147463554L116.41684297027588,95.86129890797565L116.72924270299275,95.24741416644413L116.99524643580118,94.71183425472739L117.27671550191243,95.05806284530125L117.38187976837159,95.35908747593923L117.43755496826172,95.25122486524805L118.31289283320109,93.7268481254239L118.52940749944051,93.68935383164772L118.8912962987264,93.78824583415583L118.93150616531372,93.99669175368525L119.21606829808553,94.34201078926154L119.30576723124186,94.58282170801007L119.42639683100383,94.91385668090868L120.536807762146,94.96956673955198L120.61722749532063,94.64126587615965L120.68527496185303,94.71738433705723L120.74404322840373,94.58794145401849L120.8213698949178,94.66883343943593L120.8708589614868,95.22710823047211L121.25130616073608,95.59644330972928L121.443076293691,96.0188550632883L122.08643415908813,96.20493360251857L122.13592322565714,95.77410800515452L122.29057655868532,95.38560841837625L122.36481015853882,95.8059340443949L122.51946349156698,96.01038318847719L122.94012055740356,96.17197815889209L123.19065895690918,96.47893999339527L123.19375202356974,96.77224323067755L123.72266642252603,97.09265509797872L123.73813175582886,97.44488252481808L123.8185514890035,97.89694466216632L124.00722855529786,96.95669515139267L124.26086002146403,97.33643338049343L124.47428162104289,97.62630017066468L124.60109735412598,97.82669284866202L124.7340992205302,97.91285561557399L125.14238401972453,98.14125661404289L125.17640775299073,97.86033653072256L125.61562321879069,98.00828215638607L125.90637148488364,97.68324845143957L125.94967441813151,98.14495949086437L126.00534961802165,98.3296932883922L127.14050508244831,98.1107526503593L128.07151814727783,98.06161012896051L128.18596161371866,98.36046949709522L128.96850747884113,98.59150314068167L129.31493094482423,98.59379862130157L129.5159802777608,98.78585057558645L129.53763174438475,98.74381457105336L129.56237627766927,98.44294615248192L129.7108434773763,98.49313200283632L129.73868107732136,98.46394030173812L129.9211720102946,98.85249811339752L129.96138187688192,98.99753676028106L130.44699334259033,99.39272032512712L130.54906454238892,99.66052531483615L130.67897334213256,99.50426580038196L131.2542837409973,98.76780287288824L131.58524187367757,99.04908028552379L131.79866347325643,98.00107735242281L131.94094453964232,98.34633167444494L132.0925048060099,98.34846967991245L132.26571653900146,98.72082842619956L132.6740013381958,97.85620160790306L132.6987458714803,97.2757121777305L133.00805253753663,97.18221073209045L133.04516933746336,96.91154947486093L133.10703067067465,97.36309052866514L133.4720125366211,97.85130679973646L133.5555253364563,97.13030124301046L133.56171146977744,97.65450799195435L133.8400874692281,97.85460547250486L134.05660213546753,96.15887889063872L134.16176640192668,96.7318222456609L134.24837226842243,97.1893867515401L134.66902933425902,97.46749058113575L134.95359146703083,98.01574273073929L135.25361893310546,98.19879560876011L135.28145653305054,98.69414578752463L135.31857333297728,98.05977648866475L135.377341599528,98.4339471133593L135.42992373275757,98.94836214628532L135.59694933242798,99.19176033736136L135.63406613235475,98.99362526135232L135.71139279886881,99.16689184587544L135.82583626530965,98.34251520759338L136.14751519800822,98.62866364177451L136.2062834645589,97.14580831750267L136.37021599756878,97.61915822144293L136.53105546391805,96.71774516177766L137.2146231959025,96.28418284871681L137.27957759577433,96.66805253731162L137.4496962621053,97.09101740325822L137.7187930615743,96.7554219878411L137.72188612823487,97.17165489194902L137.83942266133627,97.72800657563883L137.94767999445597,98.28740696118832L138.5168042599996,98.52378037823567L138.8106455927531,98.79904025372173L139.54370239130657,99.13472539458704L139.73547252426147,99.84524489526332L139.9736386571248,100.45648543247988L140.21799092330934,97.50798599452484L140.28294532318117,97.25785853906073L140.30768985646566,97.82867802791766L140.3540858563741,98.02747760218311L140.67576478907267,98.29834683106614L140.68195092239378,98.69131736196285L140.96032692184448,99.14738506549888L141.57275412063598,99.5216929884584L141.59440558725993,99.72343844516212L141.7985479868571,100.25833582547004L141.8140133201599,99.18419828124226L142.13569225285846,97.99299431586896L142.18827438608804,97.5324795623682L142.39550985234578,97.63784319682726L143.04196078440347,97.43776498417562L143.0914498509725,97.48497404390841L143.1316597175598,97.34927499017435L143.2399170506795,97.88783368941125L143.32033678385417,98.35462471533064L144.04102131576536,98.60628618634186L144.22660531539918,98.75014924573962L144.31939731521607,98.9649442523852L144.37816558176678,99.19384792251353L144.65344851455686,99.72303932788932L144.7864503809611,99.62006881147254L144.81428798090616,99.95323080551027L144.91017304738364,99.77975262680158L145.08647784703572,99.92876515933042L145.53806557947794,100.42164930517534L145.89686131210328,100.60702129964706L145.99893251190184,100.96043971990674L146.7814783770243,101.29766516947495L146.88664264348347,101.54433463379303L147.73723597513836,101.69274203024611L148.0836594411214,102.10107075609575L149.06106850585937,102.49686849396187L149.23118717219035,102.70569569516591L149.2775831720988,102.96029525465053L149.59616903813682,102.220110514711L149.82505597101846,102.01729613275414L149.8745450375875,102.05212274248177L149.9085687708537,101.91468549326748L150.01373303731282,101.84495446586924L150.2611783701579,101.99835510618699L150.44985543645222,102.27887448225148L150.4529485031128,101.76782048002947L150.63234636942545,101.61519448656372L150.69420770263673,101.80451111555496L150.82720956904095,101.3248406916841L151.0653757019043,101.34089101930356L151.5014981010437,101.02249853676294L151.57573170089722,101.26976318265761L151.99638876673382,100.72195897472534L152.29332316614787,100.74411874246277L152.4758140991211,101.07271507254049L152.5098378323873,100.94867496931091L153.3882687639872,99.9467328333531L153.73159916330974,100.64103094436057L153.8182050298055,100.86238333221102L153.97595142949422,101.26855935899636L154.27597889556884,101.6533819859164L154.3718639620463,101.51114843562378L154.3873292953491,101.79161267089233L154.43991142857868,101.64763294755342L154.71519436136882,101.77473976379646L155.56888075968425,101.89761218453349L156.1627495585124,101.41460492271443L156.19986635843912,101.15114922842852L156.6545471575419,101.20905189148932L156.68547782414754,101.31957919526727L156.70403622411092,101.61315817243452L156.71640849075317,101.80287515945207L156.81229355723062,102.05823517700276L156.81847969055175,102.00408909286469L156.86178262379966,102.26453038862286L156.88034102376304,102.50308401110838L157.10613488998413,102.54420572855162L157.87012235514322,102.74026738583692L158.1423122212728,102.67934790881023L158.22273195444743,102.6107315764166L158.5011079538981,102.85091396061405L158.5846207537333,102.78616441018409L158.80113541997275,103.12037151147942L159.01146395289103,102.84478840000405L159.26509541905722,102.08915348518433L159.41356261876425,102.07627820324609L159.46305168533326,100.9142754629004L160.15899168395998,101.00829152713182L160.4404607500712,101.41742343440943L160.85802474924725,101.49433149699307L160.87967621587117,101.56873815763751L161.25393728179932,101.21346687877913L161.32817088165282,101.13210395021706L161.40240448150635,101.37000092947372L161.59417461446128,101.31078929742661L161.88801594721477,101.35199715230209L162.23134634653726,101.75144032874294L162.2870215464274,102.07123127186036L162.93656554514567,102.214734620284L163.23968607788086,102.40905516449735L163.71911141026814,101.51881707247331L163.82118261006673,101.5201079648824L163.8737647432963,101.54749495664666L163.99439434305827,101.50051010529062L164.79240554148356,100.64900897496395L165.39864660695395,100.81508168307117L165.5347415400187,100.9722439634182L165.64299887313842,101.05503857362046L165.73579087295533,101.0788318481622L165.81002447280883,101.38894640778727L165.90900260594685,101.7936602002094L166.1317034055074,101.98244994001601L166.2152162053426,102.45046184545642L166.22758847198486,102.49167548541615L166.35440420506794,101.03980028862695L166.42245167160033,101.62230018729335L166.95136607055665,101.55307197693199L166.9637383371989,101.6878169213872L167.00394820378622,101.98908749298043L167.25139353663127,102.27572668632273L167.26376580327351,101.87573612120049L167.37511620305378,101.77749900617489L167.64421300252278,102.00451503510588L167.66586446914673,101.92504962649899L167.8019594022115,101.78887910525557L167.96589193522135,102.39257590240709L168.83504366683962,102.43670859888971L168.83813673350016,102.14536305232873L169.0206276664734,101.3175655982841L169.28044526596068,101.18008100190437L169.5062391321818,100.947053626143L169.54954206542968,101.04281959278256L170.00731593119303,101.04452700264723L170.10010793100992,101.46375484707963L170.44034526367187,101.67240309964637L171.07751699574789,101.83265573178122L171.10535459569294,101.68340144533735L171.2692871287028,101.62021676000022L171.6868511278788,101.59753869922521L171.7982015276591,101.92402314977318L172.15390419362384,101.99131522942174L172.7137492591858,101.77635157800407L172.8220065923055,101.23689799178032L173.28596659138998,101.55036054760895L173.31380419133504,101.90623264020437L173.39731699117027,102.27821904267968L173.49010899098715,102.28616479049373L173.5952732574463,102.58854506128593L173.73446125717163,102.57337947004471L173.84581165695192,102.80130940032686L174.19532818959553,102.99399841992124L174.24481725616457,102.8390972825237L174.48916952234904,103.20726501709713L174.75517325515747,103.31608788381004L175.36450738728843,103.35838608289728L176.9172268508911,102.99296272346962L177.0502287172953,102.82079956018161L177.23581271692913,102.92021538433251L177.2976740501404,102.76965742452037L177.37809378331502,102.85837483368759L177.65646978276573,102.65331699039997L177.817309249115,102.46046030533958L178.00289324874876,102.15335268249467L178.11424364852905,102.35112483189897L178.2781761815389,101.91291673126413L178.29054844818114,102.24240253851934L178.33075831476847,102.3088822655386L178.37406124801637,101.5709565682992L178.44829484786987,102.18616735220958L178.48541164779664,102.64080667209505L178.58438978093466,103.08092999500568L178.60604124755858,103.1132991359311L178.64934418080648,102.84519397807074L178.9988607134501,102.86322245887403L179.0328844467163,103.19299668462989L179.0514428466797,103.35530005918089L179.17825857976277,102.70278465276321L179.19063084640504,102.78323245674736L179.23393377965292,102.94114628559753L179.30507431284585,103.30557200940018L179.63293937886556,102.28680063687071L179.9577113782247,102.42963754439235L180.00720044479368,102.69481745899128L180.0999924446106,103.03359269238757L180.98770257619222,103.18311626995173L181.0124471094767,103.47669436291623L181.40835964202878,103.04026967215152L182.00841457417806,102.89639008822616L182.4352577733358,102.72373620763571L183.3322471048991,102.82187134638097L183.49927270456948,102.97583215693105L183.57659937108357,102.91183850844438L183.96632577031454,102.59718966116388L184.21686416982016,102.80098463133307L184.4055412361145,102.64887141284294L184.4643095026652,102.92291300388429L184.64680043563843,102.862065627578L185.60255803375242,103.29107617582017L185.7572113667806,102.75160664449233L186.044866566213,102.91669542723166L186.09435563278197,103.08517683008702L186.18714763259885,103.1879487657162L186.41294149882,103.63900963016641L186.76555109812418,103.21950290947653L187.03774096425374,103.47958943203206L187.24806949717205,103.67668506224625L187.5295385632833,103.71891341803943L187.53572469660443,103.47509633858368L187.5542830965678,103.47197531734776L188.11722122879027,103.50507041608667L188.61211189448036,103.46742470202935L188.72346229426066,103.47736616082844L189.09153722686767,101.4418403151175L189.37919242630005,101.63739322160406L189.54931109263103,102.16070602689067L189.7348950922648,102.77469028085046L190.0287364250183,100.98196868714457L190.99686628977457,100.78994500718721L191.13296122283936,101.10632510553137L191.1453334894816,101.12793639274588L191.17007802276612,101.15302771520109L191.62785188852945,101.41896857358971L191.7732260215759,100.33778906533162L191.97736842117308,99.56780226046419L191.98355455449422,99.92896893612043L192.50318975346883,100.35937901965686L192.6733084197998,100.5023164989338L192.75991428629555,100.66721447784872L192.86198548609417,100.86749858555314L192.93621908594767,100.99486656748267L192.9671497525533,101.1402042560074L193.3475969518026,101.40315216623648L193.4032721516927,101.63170079185416L193.75278868433634,101.97879800248266L193.87960441741944,102.30422297869738L194.250772416687,102.89316795707788L194.57245134938557,102.76223176976227L194.67452254918416,102.94778814943085L194.8724788154602,102.35569389815507L194.90340948206585,102.7697712626292L195.14776174825033,103.08963198977614L195.19415774815877,103.19003913390212L195.3086012145996,102.42732571303002L196.10351934636432,101.48166414501166L196.12826387964884,101.87326495789117L196.3107548126221,100.88234454415311L196.35405774586994,101.34252135868755L196.86750681152344,101.57471502071228L197.04690467783612,100.23622811473335L197.06855614446005,100.39587882450057L197.0809284111023,99.83450637044962L197.09330067774457,98.63755711782298L197.52942307688394,97.83161060716225L197.63149427668256,97.78983584456869L197.66551800994873,98.3598567217551L198.02740680923463,97.57329692114693L198.17896707560223,97.57557655498228L198.22536307551067,96.31552877596425L198.2903174753825,96.02945420629402L198.33671347529094,96.07911545070861L198.70169534123738,96.67525936138621L199.0945148071289,97.04121827020184L199.39763533986408,97.38735088035278L199.77808253911337,97.71124007118415L199.88943293889363,97.83684699666766L199.95748040542603,97.95012396997218L200.0935753384908,97.87481002533704L200.18018120498655,98.45186785909807L200.45237107111615,98.72295525281282L200.85446973698933,99.21159980130892L200.99365773671468,99.71342213323594L201.6462948020935,99.96349633161144L201.9741598681132,99.366416504369L201.9834390680949,99.93750933813142L202.06385880126953,99.74892230162332L202.159743867747,99.09739626268602L202.7134027999878,99.32844384316195L202.7288681332906,99.80516052197873L202.75361266657512,100.34662246424693L203.25468946558635,100.48900456927417L203.4186219985962,100.76525627031369L203.50832093175254,101.38586925414967L203.74030093129477,101.6087598631698L204.02795613072715,101.1115631576788L204.03723533070882,100.62999150957998L204.42386866327922,100.44538734040252L205.08269186197916,99.94623708512296L205.18476306177777,100.42510721783327L205.3146718615214,100.80711687746684L205.47860439453123,101.05423521476649L205.7105843940735,101.39890530978028L205.75388732732137,101.58957436840332L205.77553879394532,101.83333911108339L206.02298412679036,102.01495848562732L206.57664305903114,102.24671476545983L206.67871425882976,102.55841075642782L206.79006465861002,102.64194211506181L207.23237319107054,103.03142143568063L207.3468166575114,103.06132139476716L207.96852305628457,103.56647579072295L208.04275665613812,104.046755913449L208.1602931892395,104.22297134679613L208.17885158920288,104.7378466022823L208.68611452153522,104.80729678283952L208.73251052144366,105.07818743347919L208.8376747879028,105.57356966519306L209.58619691975912,103.89715042621945L209.92643425242105,103.95405922398436L210.60690891774496,104.39512663355067L211.2409875831604,103.31557756927766L211.3987339828491,103.66998833311078L211.68948224894206,103.93352591935849L212.0482779815674,103.14007164275354L212.21839664789837,103.39745406218161L212.31118864771526,103.40191094264681L212.3235609143575,103.79112629069392L212.5524478472392,103.79718088855437L212.63596064707437,104.15379187013565L212.68854278030395,104.27264704946047L212.7349387802124,104.71386009367154L212.76586944681804,104.83032319205395L213.02568704630534,105.21516776479747L213.46490251210528,105.41615539372599L213.51439157867432,105.5378328639554L213.5329499786377,105.74324679572693L214.23816917724608,106.28425903389844L214.38354331029257,105.98100080861647L214.7578043762207,106.16584832952154L215.2032059753418,105.05378904189963L215.3516731750488,105.14497284686159L215.40116224161784,105.54483945184298L215.49395424143472,105.93062027742542L215.64551450780232,106.24018845778696L215.70118970769246,106.85217748970238L215.74449264094034,107.08856054873117L216.08782304026283,107.39290524484274L216.17133584009807,107.52550589608742L216.53941077270508,107.4411833280641L216.78066997222902,107.67619869115771L217.0683251716614,107.83232085611851L217.08688357162478,107.82792778140613L217.15493103815714,108.11333989359572L217.43330703760782,108.09272891970068L217.74570677032472,108.43282505556111L217.98387290318806,107.38979092380653L218.07047876968383,107.2091977438023L218.3581339691162,107.47322734539048L218.48804276885988,107.72911081167983L218.59011396865844,107.98786945054009L218.79116330159505,108.03543721832777L219.20872730077107,108.12499248669106L219.6757803665161,107.95215131791832L219.9850870325724,108.3110555113313L220.2418115653992,108.54178585957436L220.46141929829915,108.02647978299426L220.7614467643738,107.65175707278513L220.79856356430054,107.25756334075619L220.88516943079628,106.95360693016565L220.96249609731038,106.99125431371229L221.25943049672443,107.28259595767189L221.71101822916665,107.22133653735511L221.9182536954244,107.49983141367126L222.05744169514975,107.04568004206286L223.13073582636514,107.0198459463503L223.21115555953978,107.23284048599318L223.37818115921021,106.99253483608943L223.88853715820312,106.7242476381609L224.29682195739744,106.88361112213346L224.39270702387492,105.97561266015283L224.41745155715944,105.59314917310829L225.40413982187908,103.82220496899949L225.5866307548523,103.67849801424143L225.67323662134808,103.73416688215956L225.86809982096352,103.55097197092591L226.47434088643394,103.35274637174265L226.90118408559164,103.44443184323019L227.11769875183106,103.42080649910257L227.12079181849163,103.60498175138409L227.38060941797895,103.78302631901846L227.6930091506958,104.13618513305688L227.86003475036622,104.30043196341465L227.8693139503479,104.42349900795429L228.20955128300986,103.94403024083238L228.37039074935913,104.37377563202395L228.46936888249715,104.46393308651932L228.5250440823873,103.58859893796038L228.8498160817464,103.66947617490852L229.1374712811788,103.98076282493301L229.19005341440837,103.2744773056078L229.28593848088582,103.86327168637129L229.4220334139506,103.02558710948672L229.50245314712524,103.40587750280024L229.5828728802999,103.69410976575882L230.46748994522093,104.14345297801091L230.4984206118266,104.3859002796903L230.5046067451477,104.97595679939027L231.01186967748006,104.72155866198766L231.6304830095927,104.1870964243836L231.6366691429138,104.6291730536755L231.94597580897013,104.71208450441192L231.97999954223633,104.6852659813457L232.06660540873207,103.85131806831255L232.14702514190674,103.7104592764517L232.7378008740743,104.02582082911557L232.82749980723062,104.38091024721481L232.88317500712077,104.63759716117688L233.06257287343342,104.81742074986009L233.13989953994752,105.03446207954855L233.3440419395447,105.07677056537172L233.37187953948975,105.55135594669028L233.4677646059672,105.33388808505242L233.53271900583906,105.93538602071929L233.6100456723531,106.21306109793004L233.8389326052348,105.26922571923302L233.96884140497843,104.08810859923038L234.1729838045756,104.09347347767958L234.4420806040446,104.25373434405964L234.7854110033671,104.3395361786055L234.91222673645018,104.06228161401796L235.19678886922202,104.4951942324994L235.22462646916708,104.26851446223522L235.9948000676473,104.15784763192579L236.7247637995402,104.25105341883751L237.07428033218383,104.54655976609244L237.50730966466267,104.78972028221762L238.00529339701333,104.87281946369379L238.0918992635091,104.82791051527187L238.11664379679362,105.16956395343266L238.23108726323446,105.10871888186715L238.9332133951823,105.31905568171608L238.99816779505412,105.19713002058046L239.52708219401043,105.19202791675576L239.6322464604696,105.17420279148465L239.75287606023153,105.69436990549094L240.36530325902302,105.53815986710916L241.49117952346802,104.66496320744842L242.0726760556539,104.78721794056258L242.07576912231445,105.13997550002414L242.128351255544,105.53397451634629L242.20258485539756,105.85449776911895L242.22114325536091,105.3392796005292L242.31084218851726,104.67256514174794L242.42837872161866,104.42876842870412L242.58612512130736,104.5719575388062L242.8428496541341,104.71756444815814L243.08410885365805,105.17224387543406L243.39650858637492,105.59878126620235L243.77695578562418,105.38764544723058L244.13265845158895,105.60595970858093L244.31514938456218,105.7462730438861L244.88118058344523,105.94659620321443L244.8842736501058,106.37692133525763L244.92448351669313,105.89633935325176L245.3606059158325,106.18356393977687L245.5152592488607,106.21040575799306L245.75961151504518,106.58512543003063L245.824565914917,106.68393352491252L246.27306058069865,107.09054714342085L246.39987631378173,107.34803622965619L246.48338911361694,107.60134332909092L246.57618111343385,106.46829762974676L246.82053337961833,106.96126524436701L247.10509551239014,106.82295419215596L247.1824221789042,106.94851237483999L247.31542404530842,106.60809529125719L247.70824351119995,106.77981581989866L247.84124537760417,106.81143243373224L248.76916537577313,106.51039298522055L248.86195737559,106.54906981677955L248.87432964223228,105.79052480368081L248.94856324208578,106.27293387789334L248.9702147087097,106.3971505387413L249.08156510849,106.67682874451263L249.15270564168296,107.03746041723205L249.2393115081787,106.94843134761976L249.38468564122516,106.95315216344612L249.4743845743815,106.93489260584609L249.7032715072632,104.79581675558926L250.27548883946739,104.77727666325283L250.52602723897297,105.2129636146689L251.3797136372884,105.5799728016334L251.50962243703208,105.58723256612635L251.86223203633625,105.56642005042332L251.94883790283203,105.60308625064542L251.98286163609825,105.60404963746147L252.25195843556725,105.81886001263798L252.33237816874188,105.89736559625304L252.69117390136716,106.02581053577269L252.91696776758832,106.21272712782414L253.16750616709393,106.45090792856676L253.34071790008545,106.76176548245918L253.40257923329673,106.62662384222908L253.49846429977416,107.0404958305537L253.56651176630658,106.79692740679378L253.66858296610513,106.92369766751429L253.74590963261923,107.09718462505998L253.7551888326009,107.16216284268543L254.06140243199667,107.20287974780511L254.24080029830932,106.60750753807837L254.48205949783326,106.90382375464334L254.54701389770509,106.11841018715566L254.55010696436563,106.2086129929026L254.55629309768676,105.36859504433978L254.65836429748535,105.57821430549649L254.8717858970642,105.6763741724772L254.88106509704588,105.9779483319997L255.0047877634684,106.12769153289045L255.35739736277262,106.50725789692694L255.37904882939657,106.62291829659002L255.86775336176555,106.88985525620492L256.33171336085,106.87203366411734L256.5636933603923,106.69010242140168L256.75237042668664,106.67467654779163L257.2008650924683,106.79240026257663L257.27819175898236,107.00233765227917L257.7081280248006,106.94313645504974L258.3607650901794,106.91751727514057L258.5741866897583,106.53488320086647" fill="none" class="style-scope vz-line-chart2"></path></g></g></g></g><g opacity="0.2"><g><g><g class="style-scope vz-line-chart2"><path style="fill: none;" stroke="rgb(255, 112, 67)" stroke-width="2px" d="M32.58855033569336,-5.849393928666984L32.72155220209757,42.924563978031415L32.74320366872152,1.2264997023268052L32.89167086842855,-0.5624207334810762L32.931880735015866,16.124598727696252L33.1391162012736,-34.174185560343176L33.16386073455811,25.828714426020383L33.41130606740316,-27.105953662685835L33.429864467366535,30.463120112016554L33.5164703338623,2.372046708948716L34.06703619944255,-16.585238638079346L34.22787566579183,57.26176518676144L34.34541219889323,-0.7011452559993074L34.58048526509603,32.44522231344183L34.831023664601645,28.428057652313242L35.001142330932616,48.44428884469707L35.01042153091431,48.88916444405834L35.05372446416219,20.25204519974173L35.066096730804446,44.1501112679681L35.214563930511474,40.13188575145443L35.23621539713542,54.787650045032564L35.37231033020019,49.59947784804086L35.73110606282552,28.58811715535299L36.161042328643795,26.60463584192715L36.294044195048016,55.98831438254879L36.30332339502971,39.76627962392044L36.63428152770996,40.17948279639697L36.736352727508546,33.89589490336792L36.860075393931076,63.13447200187899L37.22815032653809,45.644255354117064L37.41373432617187,51.20144020315696L37.732320192209876,74.65492535407347L37.92718339182536,49.29960939253374L38.0663713915507,-39.34526619835353L38.32000285771688,37.34174179051951L38.465376990763346,63.560835674771155L38.51795912399292,37.98583424391089L38.524145257314046,38.46184005518231L38.61693725713094,45.45926574952864L38.6200303237915,48.88043006805475L38.65714712371826,41.43341386152471L38.67261245702108,56.5309890611295L38.76231139017741,26.161905527900103L39.23555058924357,35.698700757437905L39.405669255574544,60.61949624690264L40.10779538752238,53.87530262660849L40.32740312042237,24.55692562857763L40.70785031967163,78.94563746987795L40.921271919250486,59.21525965463657L40.970760985819496,63.67183061625241L40.973854052480064,75.79409544110304L41.153251918792726,75.56933554685735L41.69453858439128,36.32453471092438L42.12138178354899,-28.839662469342954L42.12756791687011,61.124987944237404L42.28222124989827,27.17397335251877L42.50182898279826,36.678117810761165L42.72762284901937,23.84458481208145L42.749274315643305,88.87969946655242L43.08023244832357,40.051190018498374L43.16683831481934,53.068958235714916L43.414283647664384,-14.690185514638358L43.606053780619305,65.50464099679617L43.90917431335449,29.062343087033952L44.02052471313476,77.89876769498865L44.283435379282636,73.10149123918232L44.540159912109374,68.48402977114176L44.824722044881185,60.27851964522486L44.877304178110755,49.60736353973641L45.35672951049805,52.44625969925535L45.3691017771403,92.70017564565194L45.393846310424806,86.3199732952501L45.74026977640788,92.0311943461991L45.783572709655765,86.04781084621581L46.06813484242757,84.06890889186876L46.30630097529093,50.92902432755848L46.723864974466956,90.3112530849835L46.81047084096273,74.14597408945525L47.463107906341556,77.41093334617393L47.506410839589435,85.26685626087107L47.69508790588379,59.27114315886453L48.09409350509644,95.1481053402932L48.49619217096965,83.77122697718303L48.632287104034425,52.75312980030381L48.89519777018229,75.34205906789269L49.068409503173825,26.38872819650561L49.09006096979777,96.24910820802512L49.20141136957805,65.6005658981687L49.458135902404784,36.03446148680587L50.10767990112304,64.33105793980381L50.16644816767374,96.7896729631178L50.38296283391317,46.40105779852885L50.652059633382166,81.06100078858844L51.26448683217366,82.86981815650702L51.354185765329994,74.62034146852088L51.651120164744064,72.37156379785843L51.688236964670814,75.03725763484508L52.130545497131344,86.11428522337118L52.476968963114416,72.32202774501768L52.934742828877766,64.543735869942L53.06155856196086,89.23961233685333L53.76368469390869,70.33096720922975L54.00494389343262,84.89675328523266L54.01422309341431,75.98268016671855L54.06061909332276,60.14074399891216L54.16269029312134,72.89496037663639L55.01946975809734,82.17485768740254L55.05040042470296,80.16703563653085L55.158657757822674,96.11437957412392L55.64736229019165,68.49971864355842L55.87934228973389,60.22205267053512L56.231951889038086,92.8862261056254L56.35876762212118,43.192064557012515L56.797983087921146,100.02162193643838L56.81344842122395,102.41486453598037L56.841286021169026,92.36834597484969L57.21554708709717,94.87621989238723L57.2464777537028,87.97497252597762L57.53413295313517,83.04957420786252L58.390912418111164,101.35880657472835L58.4806113512675,84.32670853771769L58.54556575113932,78.03485775996734L58.567217217763265,72.73573187698159L58.74661508407593,62.970363567452964L59.572463882446286,91.54505736600046L60.21582174784343,96.83174766641703L60.48182548065186,81.07499229238903L60.522035347239175,96.63916115854347L60.871551879882816,92.30493629102891L60.92722707977295,106.62574728405993L61.37572174555461,99.65335777680072L61.573678011830644,72.81130603588426L62.12115081075032,74.54967671259456L62.715019609578455,97.8189796877435L62.73667107620239,93.8915162430618L63.095466808827716,90.80056673769627L63.34291214167277,92.70047032770334L63.475914008076984,34.482807251505164L63.73882467422486,89.34609274930709L63.88419880727132,71.58597091702461L64.06050360692342,93.39763501855231L64.20278467330932,54.93746639996557L64.20587773996989,75.92414452402797L64.27392520650228,100.65308431710665L64.4904398727417,97.52960780690731L64.65127933909099,84.40725692964804L64.66055853907267,80.86397636902076L64.77809507217407,89.74262281131527L64.84923560536703,93.65179828788693L64.87398013865153,78.08774729455305L65.01626120503744,68.51066902858854L65.2698926712036,88.10133808326002L65.32866093775432,85.80000092190943L65.56682707061768,72.45341468445598L66.25039480260213,96.13269701043909L66.41432733561197,62.75968358162329L66.47618866882324,100.5975190694942L66.57207373530069,92.89727668255298L66.59991133524576,87.25486389060646L66.7050756017049,91.81275832877652L66.95870706787109,77.24358340918248L67.07315053431192,92.07154221267713L67.3020374671936,61.05762952092782L67.95158146591187,68.70639684713005L67.96704679921467,92.97644006884174L68.07839719899495,79.79586591186637L68.47430973154704,92.08714268047838L68.55472946472167,76.96202649634948L68.94445586395264,97.71499817908563L70.1229142616272,84.63396761907401L70.76008599370321,90.79236868302625L70.95185612665811,86.14867461876985L71.19311532618205,86.67719277160118L71.24569745941163,89.89982979209745L71.32921025924682,94.96127691970403L71.39416465911866,82.44761539418066L71.43128145904541,96.73955343981527L71.47767745895385,89.04456818067106L72.38394599049886,82.86117807875989L72.6994387898763,94.47371367837661L72.82934758961994,37.072402395537665L72.98709398930868,80.08626917988248L73.05823452250162,68.64909886905536L73.24072545547486,94.76103457213505L73.64591718800862,89.64587280019882L73.8748041208903,99.30177851491348L74.48104518636067,79.81045856705182L74.91716758550008,108.54510578310058L75.14296145172119,82.65802427252304L75.22338118489583,95.982862974583L75.27905638478597,64.0409022047109L75.46154731775918,61.930029840463774L75.61620065078735,102.28941249305731L76.18841798299154,85.83477929761595L76.2069763829549,106.83978664527558L76.2997683827718,94.90175114532074L76.32760598271688,89.33283795063501L76.3585366493225,100.69655581332954L76.64309878209433,69.9979588102219L76.67093638203939,84.90007140513146L76.73589078191121,85.92548243303763L76.93384704818725,90.46361549284065L76.99261531473795,97.74599873089316L77.60504251352947,78.73628944692061L77.88341851298014,85.58537809023198L78.14942224578857,81.93660135520263L78.32882011210124,93.29820929440912L78.78968704452515,83.73291241685968L78.79587317784627,111.28870176719599L78.8948513109843,107.65381634406974L78.99073637746174,83.16621525744864L79.6155358428955,91.9118657963042L79.68976944274903,99.92182491291042L80.39808170801798,88.52144860302143L80.71357450739542,90.44378928442228L80.77852890726724,100.81392178076212L81.18990677312215,96.09355734037182L81.4126075726827,87.30897340888497L81.4806550392151,84.44003146740502L81.67551823883056,73.49740836252357L81.98173183822631,69.9862776137043L82.57560063705445,105.14307222335152L82.92202410303751,104.75851803991235L83.07049130274456,101.82291312476413L83.2004001024882,84.35096087054812L83.71694223480225,89.2202340451531L83.8128273012797,91.24091602074799L84.25204276707967,66.12956732956434L84.41597530008951,97.89131234408075L84.49330196660361,96.88476686110536L84.56134943313599,104.11939392590762L84.88612143249512,102.17218207936838L85.19233503189086,65.00329842274516L85.23563796513875,99.9337772169153L85.32533689829509,75.81996852521617L85.35008143157958,106.12050901328938L85.43978036473592,92.13229386439426L85.74599396413167,91.6931350968302L86.46049236272177,102.8660816930878L86.66154169565836,97.44160395907649L86.80691582870485,113.7521906741513L87.42243609415691,67.6527258104944L87.58946169382732,101.96387723087301L88.00083955968222,93.54504676794588L88.00393262634277,99.14976383187701L88.43696195882163,94.46287527252603L89.2195078239441,92.54086463502274L89.56902435658773,105.75163780862583L90.05772888895672,66.73017060580975L90.22166142196656,99.41391092911314L90.537154221344,84.37645086799442L91.3413515530904,90.9475305703717L91.6784958190918,20.081553952082317L91.72179875233968,64.1043590376599L91.95996488520304,88.56688268170664L92.3156675511678,97.10249564160459L92.60022968393962,103.66666210305596L92.77653448359172,92.33409213319466L92.90025715001424,95.24858013253937L92.95593234990439,110.91913805971164L92.98376994984945,104.72324459835947L93.21884301605225,94.5653833709269L93.54670808207193,82.82629361751488L93.55598728205362,101.52023929612764L93.57145261535645,93.8513628667377L93.79106034825644,103.50402707888693L93.97664434789021,80.68739699017938L94.15294914754232,94.35610017802087L94.29213714726765,87.71963052843738L94.45916274693808,101.30468526916776L94.46225581359863,97.9071662384462L94.53030328013102,81.0679258167964L94.57979234670003,90.59553875361249L94.98807714589437,98.80014125881107L95.20149874547323,82.85578539721924L95.21077794545492,96.34129064734483L95.36233821182252,106.241670485544L95.43657181167602,97.38539630459198L96.13251181030273,98.58897210077608L96.33046807657877,54.26862065425638L96.53151740951539,71.01315615822645L96.60265794270833,73.16141778115552L96.86247554219564,85.69256573960912L96.87175474217733,100.97682791241841L96.88722007548014,97.31167274897211L97.09445554173787,92.799784072667L97.15013074162802,59.40386795481619L97.5027403409322,77.88933197570275L97.99144487330119,100.14215278910301L98.3440544726054,104.12913022088595L98.42447420578002,87.23226177726389L98.48942860565185,111.0016225127197L98.50798700561523,89.84764160079408L98.99669153798422,106.91430584243423L99.7359344698588,99.8342218326695L99.88130860290528,39.412979418852984L99.99884513600668,105.97617374451245L100.08545100250244,89.48900765059626L100.43806060180664,97.93730631866364L100.66076140136718,110.09077797275779L101.34432913335165,105.58570823912214L101.57630913289388,81.86695619917417L101.85468513234456,94.15562797845178L102.4980429977417,90.4502015658608L102.52897366434732,92.53267247399376L102.63413793080647,101.55840062178426L102.66506859741212,94.10559685976466L102.74548833058675,106.1469478869412L102.8846763303121,104.9335591784454L102.95581686350504,106.1762805383378L103.18779686304728,103.39992180376748L103.39193926264446,63.5634701323107L103.74145579528808,101.8988409021285L104.1435544611613,100.73494699098626L104.17757819442748,90.19227815355028L104.23943952763875,104.85530341287497L104.97249632619221,37.64663162818255L105.40861872533164,91.66583575158828L105.52924832509358,100.4613818553873L105.61894725824992,97.77163017572416L105.8880440577189,85.67859781037264L106.03651125742594,86.62394372491276L106.04269739074708,89.66776767661801L106.16023392384847,91.9257983636945L106.23137445704143,-32.689341639736455L106.88710458908082,97.39032928213246L107.08506085535686,110.73247171425076L107.38818138809204,88.8761043455253L107.41292592137656,97.05126222014776L107.95111952031453,87.36735581690883L108.05319072011311,66.95564363061982L108.28207765299479,96.89489213639156L108.40270725275676,97.46401158226513L108.66871098556518,104.74504517652223L108.97183151830038,107.52896545253154L109.03987898483277,104.19358307916869L109.28423125101726,104.46971194861486L109.46672218399047,103.92607660654657L109.81933178329469,98.31716327020347L109.86572778320313,106.03080190320144L110.1100800493876,95.8540810244791L110.3791768488566,89.26198459819581L110.76890324808757,85.13147343281575L110.87716058120728,90.30293715749293L111.10604751408894,103.29460833223727L111.55454217987061,83.15289562872525L111.63186884638468,72.8179953184511L111.82982511266071,96.83704604970126L111.87312804590862,105.22982661928441L112.25357524515788,98.57592947318099L112.28759897842407,81.90027295190573L112.59690564448039,111.39419204795703L112.80414111073812,96.9720575783718L113.81557390874228,109.48436946009976L113.81866697540283,106.10248036538458L113.90836590855916,100.83843343379777L113.9145520418803,105.55305746782675L114.22076564127605,74.686974973984L114.88268190663655,104.72725816789958L114.90124030659993,91.25999963039682L114.91979870656331,109.65551195509276L114.93217097320556,90.63757809506556L114.93526403986613,105.47531444902575L115.2909667058309,89.31611179739741L116.00546510442098,100.9839474307803L116.30858563715617,102.94418422399151L116.3395163037618,98.4242448340421L116.36116777038573,108.35536001020255L116.41684297027588,110.02587719775691L116.72924270299275,77.25878310939382L116.99524643580118,79.01776384877921L117.27671550191243,105.20358223578651L117.38187976837159,104.17999823659905L117.43755496826172,92.0905315240695L118.31289283320109,49.058099770486336L118.52940749944051,92.59066000806872L118.8912962987264,96.68607454112674L118.93150616531372,100.10477531770313L119.21606829808553,104.46088327435484L119.30576723124186,101.63929673853526L119.42639683100383,104.61416509021234L120.536807762146,96.6020371137078L120.61722749532063,85.02107374907834L120.68527496185303,96.94788186287475L120.74404322840373,90.7948793741042L120.8213698949178,97.0392097242454L120.8708589614868,111.58622455357397L121.25130616073608,106.41906318684727L121.443076293691,108.39678051934767L122.08643415908813,101.65759060028633L122.13592322565714,83.1496305515957L122.29057655868532,84.00140902117452L122.36481015853882,108.12273210518441L122.51946349156698,102.00135489417038L122.94012055740356,100.90719454367202L123.19065895690918,105.47384103876874L123.19375202356974,105.36690681595582L123.72266642252603,106.48168312277029L123.73813175582886,107.7662021848336L123.8185514890035,111.14372114472648L124.00722855529786,69.4045634569538L124.26086002146403,108.46390319701612L124.47428162104289,106.12026737400723L124.60109735412598,103.6988001275819L124.7340992205302,100.43768352481351L125.14238401972453,104.83409219881503L125.17640775299073,89.6285337082943L125.61562321879069,102.34353379861788L125.90637148488364,88.15878340236041L125.94967441813151,111.674481827969L126.00534961802165,103.74294939252303L127.14050508244831,91.69513304113872L128.07151814727783,96.62158632099784L128.18596161371866,107.11794882087642L128.96850747884113,105.36148466621L129.31493094482423,98.66106311783116L129.5159802777608,104.41355144325857L129.53763174438475,97.51203296936167L129.56237627766927,89.62659470039607L129.7108434773763,99.96372870061985L129.73868107732136,97.60853544755494L129.9211720102946,110.23841368051042L129.96138187688192,103.24760654503858L130.44699334259033,110.97279082081049L130.54906454238892,107.50801945231785L130.67897334213256,94.92539053948424L131.2542837409973,77.18721662639022L131.58524187367757,107.2913574208447L131.79866347325643,67.29142793455189L131.94094453964232,108.46332562019538L132.0925048060099,98.41111969547264L132.26571653900146,109.63206410426267L132.6740013381958,72.52002461535498L132.6987458714803,80.26561857000704L133.00805253753663,94.44233593354328L133.04516933746336,88.98035696167047L133.10703067067465,110.59460766332263L133.4720125366211,112.15751875298689L133.5555253364563,76.00265960980364L133.56171146977744,113.0153499919015L133.8400874692281,103.7180664401026L134.05660213546753,46.46896433045404L134.16176640192668,113.52079454010803L134.24837226842243,110.59741008963147L134.66902933425902,105.61677362098098L134.95359146703083,114.08118845043956L135.25361893310546,103.56279846721864L135.28145653305054,113.20940401639105L135.31857333297728,79.4708375028105L135.377341599528,109.39827809878253L135.42992373275757,114.0222785615437L135.59694933242798,106.32406358711614L135.63406613235475,93.18766816328703L135.71139279886881,104.24412694462525L135.82583626530965,74.18578563459972L136.14751519800822,107.01367852380817L136.2062834645589,53.69366061012401L136.37021599756878,111.48974270312429L136.53105546391805,70.30361482121859L137.2146231959025,83.57949504725853L137.27957759577433,107.91659611658737L137.4496962621053,109.48516804845906L137.7187930615743,86.92146061764971L137.72188612823487,109.36853878615499L137.83942266133627,114.03079487282923L137.94767999445597,114.67953151535072L138.5168042599996,105.4502370064514L138.8106455927531,106.86498785431152L139.54370239130657,108.97131622132602L139.73547252426147,120.66561724974537L139.9736386571248,118.36768366608848L140.21799092330934,11.108025782877235L140.28294532318117,89.92836680195526L140.30768985646566,114.55541732894102L140.3540858563741,103.85290705318334L140.67576478907267,106.23563539713129L140.68195092239378,110.20654381665125L140.96032692184448,112.5115497695418L141.57275412063598,110.49004857784401L141.59440558725993,105.63519124919364L141.7985479868571,115.93244887422163L141.8140133201599,67.70871540026086L142.13569225285846,63.08711070257759L142.18827438608804,84.03800263831768L142.39550985234578,100.72531678154643L143.04196078440347,91.57486740232034L143.0914498509725,98.86834247278766L143.1316597175598,93.3728817262345L143.2399170506795,113.66923472986099L143.32033678385417,112.03301558626934L144.04102131576536,105.98072952902713L144.22660531539918,102.96577263107726L144.31939731521607,105.25908854698868L144.37816558176678,105.90141880171268L144.65344851455686,115.22995043824228L144.7864503809611,96.60272077606704L144.81428798090616,109.7158864137841L144.91017304738364,94.69631650000603L145.08647784703572,104.29528374874872L145.53806557947794,114.86464783322123L145.89686131210328,106.03898227694837L145.99893251190184,111.31667004069459L146.7814783770243,111.17939240704875L146.88664264348347,108.77249718806529L147.73723597513836,106.04152832987249L148.0836594411214,114.0663394218694L149.06106850585937,114.09494126177852L149.23118717219035,108.8249653273175L149.2775831720988,110.4208336576106L149.59616903813682,80.53045522324345L149.82505597101846,96.07422030415879L149.8745450375875,103.07264791747991L149.9085687708537,97.88735771095092L150.01373303731282,99.80162410414336L150.2611783701579,106.49345861754433L150.44985543645222,110.49894208215534L150.4529485031128,86.79238987913543L150.63234636942545,97.14279046531335L150.69420770263673,107.35206192343362L150.82720956904095,87.26904399091994L151.0653757019043,101.81121424732346L151.5014981010437,91.69263413734282L151.57573170089722,108.51536647047305L151.99638876673382,84.66963593457577L152.29332316614787,101.3934670776143L152.4758140991211,110.70158314162275L152.5098378323873,97.31392411984483L153.3882687639872,70.58679248533429L153.73159916330974,120.98606924654297L153.8182050298055,107.34867897348352L153.97595142949422,113.17074762488808L154.27597889556884,112.9298509415076L154.3718639620463,97.34327445216451L154.3873292953491,110.01006455887865L154.43991142857868,97.42859079968655L154.71519436136882,105.49935461077916L155.56888075968425,105.4981464143684L156.1627495585124,87.26102863912179L156.19986635843912,93.43109911230957L156.6545471575419,102.90577536541173L156.68547782414754,104.55836409695877L156.70403622411092,110.21591175906534L156.71640849075317,107.36215773051467L156.81229355723062,109.54105744632805L156.81847969055175,100.41744476152319L156.86178262379966,109.89624951016549L156.88034102376304,109.49342798635986L157.10613488998413,103.74919665201276L157.87012235514322,108.48546802953776L158.1423122212728,100.89422263976928L158.22273195444743,100.60006512241831L158.5011079538981,109.88898559759842L158.5846207537333,100.8888063836645L158.80113541997275,112.91365226914199L159.01146395289103,94.7693681805487L159.26509541905722,79.94676080310752L159.41356261876425,101.69899342850837L159.46305168533326,66.86407412996702L160.15899168395998,103.76324709222362L160.4404607500712,113.40622805216378L160.85802474924725,103.74797077467892L160.87967621587117,103.7490787791922L161.25393728179932,90.80294187503057L161.32817088165282,98.74792359930255L161.40240448150635,108.34110329255569L161.59417461446128,99.57570905625617L161.88801594721477,102.55951216773178L162.23134634653726,113.45633578818425L162.2870215464274,111.44207493448943L162.93656554514567,106.41981757289885L163.23968607788086,108.10323594066362L163.71911141026814,75.43214337100642L163.82118261006673,101.55793502414305L163.8737647432963,102.35001680374874L163.99439434305827,100.12371158632625L164.79240554148356,75.69744562188406L165.39864660695395,105.6815152676741L165.5347415400187,105.57757501450342L165.64299887313842,103.48117153898016L165.73579087295533,101.7760468913091L165.81002447280883,110.47624272373581L165.90900260594685,113.65300069564923L166.1317034055074,107.51456139385898L166.2152162053426,116.16462886252162L166.22758847198486,103.69936002347957L166.35440420506794,58.49545748859886L166.42245167160033,118.6913123354002L166.95136607055665,99.52447563479934L166.9637383371989,105.63625210457869L167.00394820378622,110.81722816587514L167.25139353663127,110.67512364022733L167.26376580327351,90.15480049025292L167.37511620305378,98.89885385238986L167.64421300252278,108.65677259965904L167.66586446914673,99.59647235359799L167.8019594022115,97.79867020076084L167.96589193522135,120.08272141796874L168.83504366683962,103.72993033949207L168.83813673350016,93.60805568417675L169.0206276664734,77.06059174890258L169.28044526596068,97.15136571300917L169.5062391321818,94.11864538100076L169.54954206542968,103.849052611951L170.00731593119303,101.09455928559473L170.10010793100992,113.74840106297026L170.44034526367187,107.78642916084188L171.07751699574789,106.52854346258431L171.10535459569294,97.30979857112519L171.2692871287028,99.76871401264273L171.6868511278788,100.93300279773385L171.7982015276591,111.4910068891248L172.15390419362384,103.96317707681814L172.7137492591858,95.47726519170975L172.8220065923055,85.42927322032205L173.28596659138998,110.73576331276493L173.31380419133504,112.33436334567453L173.39731699117027,113.17854785878869L173.49010899098715,102.51899927930496L173.5952732574463,111.44920329331285L173.73446125717163,102.12898169063278L173.84581165695192,109.48034705009812L174.19532818959553,108.64037059667797L174.24481725616457,98.3000245620939L174.48916952234904,113.99569529368668L174.75517325515747,106.50492764298491L175.36450738728843,104.5978514918467L176.9172268508911,92.28495095430279L177.0502287172953,97.77589717182846L177.23581271692913,105.83340029060795L177.2976740501404,98.35785296786112L177.37809378331502,105.45806376173665L177.65646978276573,96.64450079731489L177.817309249115,96.80917502127961L178.00289324874876,93.1541687076836L178.11424364852905,108.14644811668128L178.2781761815389,89.07209148427206L178.29054844818114,111.89733512934211L178.33075831476847,104.25693972022022L178.37406124801637,79.94749750823603L178.44829484786987,120.21370758981712L178.48541164779664,115.9631164353111L178.58438978093466,115.97787705926584L178.60604124755858,104.06181305306357L178.64934418080648,94.98890041520251L178.9988607134501,103.39151157802046L179.0328844467163,112.85638081245193L179.0514428466797,108.11128076066692L179.17825857976277,83.58210593023396L179.19063084640504,105.14059689411975L179.23393377965292,107.5684999965477L179.30507431284585,113.98435003470769L179.63293937886556,72.4337122424992L179.9577113782247,106.61519177297869L180.00720044479368,110.46539253060317L180.0999924446106,112.96073362049457L180.98770257619222,107.56461019346918L181.0124471094767,112.0794221157242L181.40835964202878,90.2517037360361L182.00841457417806,98.68028228122364L182.4352577733358,97.66445431362908L183.3322471048991,105.69752829034731L183.49927270456948,107.48735045323248L183.57659937108357,101.03663068793004L183.96632577031454,93.37702495587722L184.21686416982016,108.7727948169372L184.4055412361145,98.19149316256238L184.4643095026652,110.95316204936658L184.64680043563843,101.07905311604993L185.60255803375242,115.86238526968019L185.7572113667806,86.94351462237667L186.044866566213,107.75429702995694L186.09435563278197,108.02219248288692L186.18714763259885,106.1994779094242L186.41294149882,116.85645980824022L186.76555109812418,90.92668476205549L187.03774096425374,111.10091268311926L187.24806949717205,109.45218428644559L187.5295385632833,104.9563322073778L187.53572469660443,96.33051707154557L187.5542830965678,103.38051993750314L188.11722122879027,104.47485709723234L188.61211189448036,102.36429120231868L188.72346229426066,103.76868102925148L189.09153722686767,41.79476478023645L189.37919242630005,107.36768596579897L189.54931109263103,117.49535701706537L189.7348950922648,120.76628947896599L190.0287364250183,48.44979350541726L190.99686628977457,95.16306929486342L191.13296122283936,110.37722071400304L191.1453334894816,101.76121259684149L191.17007802276612,101.88827949740623L191.62785188852945,109.21184160532174L191.7732260215759,68.65595317357098L191.97736842117308,77.00485558570033L191.98355455449422,110.51224697677615L192.50318975346883,112.97169873962726L192.6733084197998,104.69081778542315L192.75991428629555,105.49922495067655L192.86198548609417,106.73642986256668L192.93621908594767,104.727134401438L192.9671497525533,105.39903894684073L193.3475969518026,109.10832274748456L193.4032721516927,108.32886809378147L193.75278868433634,112.14979808324014L193.87960441741944,111.84016091772901L194.250772416687,120.15104050476589L194.57245134938557,98.92540470522123L194.67452254918416,108.38515236559932L194.8724788154602,85.00553811132839L194.90340948206585,114.90349282123711L195.14776174825033,112.46252056982946L195.19415774815877,106.13227272078136L195.3086012145996,80.0775112293148L196.10351934636432,73.77091456171226L196.12826387964884,113.34835544408885L196.3107548126221,71.84537363323317L196.35405774586994,114.82709649941101L196.86750681152344,108.37869293503259L197.04690467783612,61.01450574952558L197.06855614446005,105.07412841060541L197.0809284111023,83.38459233846095L197.09330067774457,63.56331689764396L197.52942307688394,74.21493558312446L197.63149427668256,96.5657087104109L197.66551800994873,115.06319575899465L198.02740680923463,74.52471124919974L198.17896707560223,97.642376734338L198.22536307551067,59.39231052476019L198.2903174753825,87.64660242245883L198.33671347529094,97.53434040065284L198.70169534123738,114.14408244067039L199.0945148071289,107.76492326473051L199.39763533986408,107.53008524432687L199.77808253911337,107.20217484480827L199.88943293889363,101.51751054033166L199.95748040542603,101.26948255130723L200.0935753384908,95.66788322347993L200.18018120498655,115.36141104819345L200.45237107111615,106.66663736551253L200.85446973698933,113.53036581313758L200.99365773671468,114.41833713226964L201.6462948020935,107.29142814453705L201.9741598681132,81.87016823353446L201.9834390680949,116.67225995154956L202.06385880126953,94.22275065612023L202.159743867747,80.00570900067007L202.7134027999878,106.09883809522924L202.7288681332906,113.774403807186L202.75361266657512,116.21309816633631L203.25468946558635,104.66123170746233L203.4186219985962,108.86026823707552L203.50832093175254,119.57171032581121L203.74030093129477,108.14013013349921L204.02795613072715,86.54219303021269L204.03723533070882,86.51848291235684L204.42386866327922,95.03592577696531L205.08269186197916,85.3196220289952L205.18476306177777,114.45745322777279L205.3146718615214,112.00115750969222L205.47860439453123,108.2955513410499L205.7105843940735,111.49878354846132L205.75388732732137,107.1767555710543L205.77553879394532,108.97638475261014L206.02298412679036,107.33695652147873L206.57664305903114,109.03787605627629L206.67871425882976,111.69204782505311L206.79006465861002,105.08966404835535L207.23237319107054,114.4443457701264L207.3468166575114,103.93748080193585L207.96852305628457,118.36903036306339L208.04275665613812,118.12041890357719L208.1602931892395,109.38661753000854L208.17885158920288,119.82525181601738L208.68611452153522,106.84239752825101L208.73251052144366,113.01610437795308L208.8376747879028,120.08977021263829L209.58619691975912,54.77298666615478L209.92643425242105,105.62165944939323L210.60690891774496,117.31973830171157L211.2409875831604,71.68151862537134L211.3987339828491,114.05529768540335L211.68948224894206,111.65597579514093L212.0482779815674,79.88945693139179L212.21839664789837,110.93953889813024L212.31118864771526,103.5325110459755L212.3235609143575,115.19631542889522L212.5524478472392,103.9745989531305L212.63596064707437,114.60357426978122L212.68854278030395,107.7554639708805L212.7349387802124,117.6427392982538L212.76586944681804,108.24304489313101L213.02568704630534,116.492279941835L213.46490251210528,111.3057019747414L213.51439157867432,109.1033514612774L213.5329499786377,111.76249746308189L214.23816917724608,122.13755704332117L214.38354331029257,97.09461584355009L214.7578043762207,111.58244083603395L215.2032059753418,72.46708203800002L215.3516731750488,107.81693464680305L215.40116224161784,117.26214269476495L215.49395424143472,117.23516749977958L215.64551450780232,115.31147422776277L215.70118970769246,124.78531063701843L215.74449264094034,114.01530049056649L216.08782304026283,116.31112709755585L216.17133584009807,111.41110679770755L216.53941077270508,104.97027656205016L216.78066997222902,114.56286099755945L217.0683251716614,112.40717338693504L217.08688357162478,107.69919737998572L217.15493103815714,116.47677966593123L217.43330703760782,107.48876492707922L217.74570677032472,118.39867243061396L217.98387290318806,76.82573015393483L218.07047876968383,101.9172703176232L218.3581339691162,115.21009476161879L218.48804276885988,115.22727177839504L218.59011396865844,115.5702816862275L218.79116330159505,109.42931695925675L219.20872730077107,110.74923322933454L219.6757803665161,102.88738131176318L219.9850870325724,118.8280359667894L220.2418115653992,115.30288424596439L220.46141929829915,92.92645020564183L220.7614467643738,96.67124614030017L220.79856356430054,95.7064924658547L220.88516943079628,98.04676301983658L220.96249609731038,108.09443673460875L221.25943049672443,115.81978897914996L221.71101822916665,105.42624988746724L221.9182536954244,115.66057521359772L222.05744169514975,93.7376686376656L223.13073582636514,106.26282865683471L223.21115555953978,113.4742259355249L223.37818115921021,99.95085109497356L223.88853715820312,98.86261974734943L224.29682195739744,111.55344412217596L224.39270702387492,79.36850621364047L224.41745155715944,94.38581002244327L225.40413982187908,51.92817329104365L225.5866307548523,99.46744876421194L225.67323662134808,105.3654334056988L225.86809982096352,98.18280593568703L226.47434088643394,97.54413563204146L226.90118408559164,106.13109399257576L227.11769875183106,102.72851232421108L227.12079181849163,109.00187475005646L227.38060941797895,109.00027167969682L227.6930091506958,114.48480856260448L227.86003475036622,109.11336181056355L227.8693139503479,108.02973634340283L228.20955128300986,89.89414242850539L228.37039074935913,116.96661785269549L228.46936888249715,107.10581970764069L228.5250440823873,77.93865585746649L228.8498160817464,106.03942430002547L229.1374712811788,113.10240496352681L229.19005341440837,82.578171330234L229.28593848088582,121.11673126813483L229.4220334139506,78.47889056866158L229.50245314712524,114.54953842201556L229.5828728802999,112.1401885015439L230.46748994522093,117.31057074309243L230.4984206118266,111.49034090768863L230.5046067451477,122.26640087665587L231.01186967748006,97.26692233264613L231.6304830095927,88.52573328004881L231.6366691429138,117.58335791807569L231.94597580897013,107.14164125780918L231.97999954223633,103.89940198725363L232.06660540873207,79.41411710155654L232.14702514190674,99.58286983010525L232.7378008740743,113.26686996323504L232.82749980723062,114.78610622606092L232.88317500712077,112.15930157939788L233.06257287343342,110.08679681824334L233.13989953994752,111.39443074041867L233.3440419395447,106.31653740752331L233.37187953948975,119.45814575684173L233.4677646059672,98.96142074554363L233.53271900583906,123.56109825677461L233.6100456723531,114.34978229983136L233.8389326052348,77.6119890162048L233.96884140497843,69.47779784036832L234.1729838045756,104.25068067344843L234.4420806040446,108.94986336798392L234.7854110033671,106.85378993635823L234.91222673645018,95.93788270625693L235.19678886922202,117.18084581042405L235.22462646916708,97.6261102851006L235.9948000676473,100.91497414982905L236.7247637995402,106.98226541712867L237.07428033218383,113.20579121444085L237.50730966466267,111.91506025473397L238.00529339701333,107.30787729664634L238.0918992635091,103.51194223878761L238.11664379679362,115.18104500499153L238.23108726323446,103.32577390599359L238.9332133951823,111.4825613015316L238.99816779505412,101.62433867760608L239.52708219401043,105.04252081377199L239.6322464604696,104.6518726055098L239.75287606023153,120.9368426098562L240.36530325902302,100.96073237877081L241.49117952346802,79.07765502890625L242.0726760556539,108.36965208969556L242.07576912231445,115.4768409545483L242.128351255544,117.07933963099795L242.20258485539756,115.24680035794148L242.22114325536091,90.24182599367309L242.31084218851726,85.13581115261239L242.42837872161866,97.28478595860214L242.58612512130736,108.76783237119159L242.8428496541341,108.98428812522876L243.08410885365805,118.49572891106388L243.39650858637492,118.09761935326017L243.77695578562418,99.20072614584655L244.13265845158895,112.00322912451358L244.31514938456218,109.85787896025238L244.88118058344523,111.81667181141172L244.8842736501058,118.98675171967477L244.92448351669313,91.81383097144362L245.3606059158325,114.60011470249776L245.5152592488607,106.99695237057057L245.75961151504518,117.56554733488892L245.824565914917,109.5793101234206L246.27306058069865,119.00555832819526L246.39987631378173,114.89324672630983L246.48338911361694,115.02400893979916L246.57618111343385,73.26662516714723L246.82053337961833,121.4067101939969L247.10509551239014,102.77002123797163L247.1824221789042,110.62774760682335L247.31542404530842,96.6328431753614L247.70824351119995,111.81174767433278L247.84124537760417,107.73789502697589L248.76916537577313,97.68902490307501L248.86195737559,107.68241818397885L248.87432964223228,83.56285729863635L248.94856324208578,120.40898159799949L248.9702147087097,110.03707511571021L249.08156510849,114.87224768332689L249.15270564168296,117.60506125116149L249.2393115081787,104.33960982292066L249.38468564122516,107.09148637266048L249.4743845743815,106.39983223617274L249.7032715072632,42.11441229503373L250.27548883946739,104.23399577569803L250.52602723897297,117.97991155464797L251.3797136372884,116.33445412874488L251.50962243703208,105.79996566505584L251.86223203633625,104.95655027209582L251.94883790283203,106.67751702685031L251.98286163609825,105.63227979052579L252.25195843556725,112.11345494584067L252.33237816874188,108.19781709188176L252.69117390136716,109.7896364907886L252.91696776758832,111.68994968884712L253.16750616709393,113.43032715032747L253.34071790008545,115.8708338040939L253.40257923329673,102.66656426336526L253.49846429977416,119.16819924600532L253.56651176630658,99.6596345044956L253.66858296610513,110.6384504589303L253.74590963261923,112.18087819920156L253.7551888326009,109.06622152280069L254.06140243199667,108.396008452373L254.24080029830932,89.16129763487261L254.48205949783326,115.58678682792655L254.54701389770509,83.10341261865375L254.55010696436563,108.85182854312335L254.55629309768676,80.75352364251408L254.65836429748535,111.72069386726993L254.8717858970642,108.552755729155L254.88106509704588,114.81498506709838L255.0047877634684,110.51562108626472L255.35739736277262,117.62970256429975L255.37904882939657,110.01211849277693L255.86775336176555,114.71191707279985L256.33171336085,106.34980701112666L256.5636933603923,101.3589657030361L256.75237042668664,106.22265170594649L257.2008650924683,110.24206184430679L257.27819175898236,113.15413934447103L257.7081280248006,105.20836197866026L258.3607650901794,106.16679766992367L258.5741866897583,95.3225453274414" fill="none" class="style-scope vz-line-chart2"></path></g></g></g></g></g></g><g transform="translate(51, 177)" clip-path="url(#clip_1)"><clipPath id="clip_1"><rect width="278" height="22"></rect></clipPath><g><g><line x1="0" y1="0" x2="0" y2="5" style="visibility: inherit;" fill="rgb(0, 0, 0)" stroke="rgb(204, 204, 204)" stroke-width="1px" class="style-scope vz-line-chart2"></line><line x1="30.930666605631508" y1="0" x2="30.930666605631508" y2="5" style="visibility: inherit;" fill="rgb(0, 0, 0)" stroke="rgb(204, 204, 204)" stroke-width="1px" class="style-scope vz-line-chart2"></line><line x1="61.861333211263016" y1="0" x2="61.861333211263016" y2="5" style="visibility: inherit;" fill="rgb(0, 0, 0)" stroke="rgb(204, 204, 204)" stroke-width="1px" class="style-scope vz-line-chart2"></line><line x1="92.79199981689453" y1="0" x2="92.79199981689453" y2="5" style="visibility: inherit;" fill="rgb(0, 0, 0)" stroke="rgb(204, 204, 204)" stroke-width="1px" class="style-scope vz-line-chart2"></line><line x1="123.72266642252603" y1="0" x2="123.72266642252603" y2="5" style="visibility: inherit;" fill="rgb(0, 0, 0)" stroke="rgb(204, 204, 204)" stroke-width="1px" class="style-scope vz-line-chart2"></line><line x1="154.65333302815756" y1="0" x2="154.65333302815756" y2="5" style="visibility: inherit;" fill="rgb(0, 0, 0)" stroke="rgb(204, 204, 204)" stroke-width="1px" class="style-scope vz-line-chart2"></line><line x1="185.58399963378906" y1="0" x2="185.58399963378906" y2="5" style="visibility: inherit;" fill="rgb(0, 0, 0)" stroke="rgb(204, 204, 204)" stroke-width="1px" class="style-scope vz-line-chart2"></line><line x1="216.51466623942056" y1="0" x2="216.51466623942056" y2="5" style="visibility: inherit;" fill="rgb(0, 0, 0)" stroke="rgb(204, 204, 204)" stroke-width="1px" class="style-scope vz-line-chart2"></line><line x1="247.44533284505206" y1="0" x2="247.44533284505206" y2="5" style="visibility: inherit;" fill="rgb(0, 0, 0)" stroke="rgb(204, 204, 204)" stroke-width="1px" class="style-scope vz-line-chart2"></line><line x1="278.3759994506836" y1="0" x2="278.3759994506836" y2="5" style="visibility: inherit;" fill="rgb(0, 0, 0)" stroke="rgb(204, 204, 204)" stroke-width="1px" class="style-scope vz-line-chart2"></line></g><g transform="translate(0, 8)"><text style="text-anchor: middle; visibility: hidden; font-family: &quot;Helvetica Neue&quot;, sans-serif; font-size: 12px; font-weight: 200;" x="0" y="0" dx="0em" dy="0.95em" fill="rgb(50, 49, 63)" stroke="none" stroke-width="1px" class="style-scope vz-line-chart2">-10k</text><text style="text-anchor: middle; visibility: hidden; font-family: &quot;Helvetica Neue&quot;, sans-serif; font-size: 12px; font-weight: 200;" x="30.930666605631508" y="0" dx="0em" dy="0.95em" fill="rgb(50, 49, 63)" stroke="none" stroke-width="1px" class="style-scope vz-line-chart2">0</text><text style="text-anchor: middle; visibility: hidden; font-family: &quot;Helvetica Neue&quot;, sans-serif; font-size: 12px; font-weight: 200;" x="61.861333211263016" y="0" dx="0em" dy="0.95em" fill="rgb(50, 49, 63)" stroke="none" stroke-width="1px" class="style-scope vz-line-chart2">10k</text><text style="text-anchor: middle; visibility: hidden; font-family: &quot;Helvetica Neue&quot;, sans-serif; font-size: 12px; font-weight: 200;" x="92.79199981689453" y="0" dx="0em" dy="0.95em" fill="rgb(50, 49, 63)" stroke="none" stroke-width="1px" class="style-scope vz-line-chart2">20k</text><text style="text-anchor: middle; visibility: hidden; font-family: &quot;Helvetica Neue&quot;, sans-serif; font-size: 12px; font-weight: 200;" x="123.72266642252603" y="0" dx="0em" dy="0.95em" fill="rgb(50, 49, 63)" stroke="none" stroke-width="1px" class="style-scope vz-line-chart2">30k</text><text style="text-anchor: middle; visibility: hidden; font-family: &quot;Helvetica Neue&quot;, sans-serif; font-size: 12px; font-weight: 200;" x="154.65333302815756" y="0" dx="0em" dy="0.95em" fill="rgb(50, 49, 63)" stroke="none" stroke-width="1px" class="style-scope vz-line-chart2">40k</text><text style="text-anchor: middle; visibility: hidden; font-family: &quot;Helvetica Neue&quot;, sans-serif; font-size: 12px; font-weight: 200;" x="185.58399963378906" y="0" dx="0em" dy="0.95em" fill="rgb(50, 49, 63)" stroke="none" stroke-width="1px" class="style-scope vz-line-chart2">50k</text><text style="text-anchor: middle; visibility: hidden; font-family: &quot;Helvetica Neue&quot;, sans-serif; font-size: 12px; font-weight: 200;" x="216.51466623942056" y="0" dx="0em" dy="0.95em" fill="rgb(50, 49, 63)" stroke="none" stroke-width="1px" class="style-scope vz-line-chart2">60k</text><text style="text-anchor: middle; visibility: hidden; font-family: &quot;Helvetica Neue&quot;, sans-serif; font-size: 12px; font-weight: 200;" x="247.44533284505206" y="0" dx="0em" dy="0.95em" fill="rgb(50, 49, 63)" stroke="none" stroke-width="1px" class="style-scope vz-line-chart2">70k</text><text style="text-anchor: middle; visibility: hidden; font-family: &quot;Helvetica Neue&quot;, sans-serif; font-size: 12px; font-weight: 200;" x="278.3759994506836" y="0" dx="0em" dy="0.95em" fill="rgb(50, 49, 63)" stroke="none" stroke-width="1px" class="style-scope vz-line-chart2">80k</text></g><line x1="0" y1="0" x2="278.3759994506836" y2="0" fill="rgb(0, 0, 0)" stroke="rgb(204, 204, 204)" stroke-width="1px"></line></g></g></g></g></svg>